<svg xmlns="http://www.w3.org/2000/svg" viewBox="0 0 149 132.092"><defs><style>.a{fill:#fff;}</style></defs><g transform="translate(0 -0.01)"><path class="a" d="M2852.2,2151.554c8.655,0,14.513-5.857,14.513-14.513v-94.428c0-8.656-5.857-14.513-14.513-14.513H2732.223c-8.656,0-14.513,5.857-14.513,14.513v117.579l7.446-8.632h0V2042.613a7.079,7.079,0,0,1,7.066-7.067H2852.2a7.079,7.079,0,0,1,7.066,7.067v94.428a7.078,7.078,0,0,1-7.066,7.066h-108.93l-7.446,7.446-.047-.059" transform="translate(-2717.71 -2028.09)"/><path class="a" d="M57.862,63.178h4.114V46.715H67.1V42.63H52.74v4.085h5.122Z" transform="translate(-21.473 -17.353)"/><path class="a" d="M92.474,63.158h4.114V42.58H92.474v8.229h-6.16V42.58H82.2V63.158h4.114V54.923h6.16Z" transform="translate(-33.468 -17.332)"/><path class="a" d="M124.119,59.037H116.4V54.923h6.592V50.809H116.4V46.694h7.369V42.58H112.28V63.158h11.839Z" transform="translate(-45.715 -17.332)"/><path class="a" d="M62.178,95.145,54.062,86.11H52.74V107h4.174V95.518l5.264,5.525,5.264-5.525L67.419,107h4.168V86.11H70.294Z" transform="translate(-21.473 -35.056)"/><path class="a" d="M2818.458,2114.16c-14.157,0-14.157,21.206,0,21.206S2832.615,2114.16,2818.458,2114.16Zm0,16.949c-8.229,0-8.229-12.716,0-12.716S2826.687,2131.109,2818.458,2131.109Z" transform="translate(-2754.407 -2063.13)"/><rect class="a" width="4.114" height="20.572" transform="translate(98.039 51.374)"/><path class="a" d="M182.244,103.107V98.993h6.592V94.879h-6.592V90.764h7.369V86.65H178.13v20.572h11.833v-4.114Z" transform="translate(-72.526 -35.276)"/><path class="a" d="M2776.58,2158.81h-6.13v20.572h6.13C2790.275,2179.382,2790.275,2158.81,2776.58,2158.81Zm0,16.457h-2.016v-12.343h2.016C2784.578,2162.924,2784.578,2175.267,2776.58,2175.267Z" transform="translate(-2739.183 -2081.309)"/><path class="a" d="M2815.7,2169.058a5.023,5.023,0,0,0,1.9-4.055c.089-3.628-2.187-6.243-5.84-6.243h-8.146v20.6h8.146a6.118,6.118,0,0,0,6.071-6.189,5,5,0,0,0-2.128-4.114Zm-7.944-6.189h3.658a2.081,2.081,0,0,1,0,4.15h-3.658Zm3.658,12.373h-3.658v-4.114h3.658a2.021,2.021,0,0,1,2.069,2.045,2.046,2.046,0,0,1-2.069,2.075Z" transform="translate(-2752.685 -2081.289)"/><path class="a" d="M137.027,97.754l-5.419-11.1H126.86l9.7,21h.925l9.7-21H142.44Z" transform="translate(-51.652 -35.276)"/></g></svg>