<svg width="17" height="17" viewBox="0 0 17 17" fill="none" xmlns="http://www.w3.org/2000/svg">
<g clip-path="url(#clip0)">
<path d="M16.9958 17V16.9993H17.0001V10.7645C17.0001 7.71445 16.3434 5.3649 12.7777 5.3649C11.0635 5.3649 9.91316 6.30557 9.44353 7.19736H9.39395V5.64965H6.01306V16.9993H9.53349V11.3794C9.53349 9.89966 9.81399 8.46883 11.6465 8.46883C13.452 8.46883 13.4789 10.1575 13.4789 11.4743V17H16.9958Z" fill="white"/>
<path d="M0.280518 5.65038H3.80518V17H0.280518V5.65038Z" fill="white"/>
<path d="M2.04142 0C0.914458 0 0 0.914458 0 2.04142C0 3.16837 0.914458 4.10196 2.04142 4.10196C3.16837 4.10196 4.08283 3.16837 4.08283 2.04142C4.08212 0.914458 3.16767 0 2.04142 0V0Z" fill="white"/>
</g>
<defs>
<clipPath id="clip0">
<rect width="17" height="17" fill="white"/>
</clipPath>
</defs>
</svg>
