<svg width="20" height="16" viewBox="0 0 20 16" fill="none" xmlns="http://www.w3.org/2000/svg">
<path d="M1.40044 0.744294C2.45077 2.09216 5.6105 4.8223 9.84683 4.95995C9.6426 3.95622 9.73304 1.67346 11.7287 0.572227C14.2232 -0.804315 16.5427 0.658261 16.8053 1.2605C17.4325 1.13145 18.8271 0.761501 19.3873 0.314125C19.3144 0.715617 18.8709 1.70787 17.6805 2.46497C18.3595 2.39397 19.7624 2.17672 19.9936 1.87171C19.9957 1.86869 19.9979 1.8657 20 1.86273C19.998 1.86574 19.9958 1.86873 19.9936 1.87171C19.7107 2.26448 18.9249 3.21039 17.9869 3.92755C18.264 5.64822 17.7243 10.0101 13.3479 13.6924C11.4661 15.3127 6.16193 17.6844 0 14.2086C1.19621 14.309 4.07877 14.114 6.03939 12.5309C4.98906 12.4162 2.76586 11.705 2.27571 9.77785C2.78629 9.80653 3.8512 9.81226 4.02626 9.60578C2.97593 9.34768 0.857768 8.19483 0.787746 5.64822C1.25456 5.87765 2.25821 6.28487 2.53829 6.07839C1.5609 5.31843 -0.0350109 3.18766 1.40044 0.744294Z" fill="white"/>
</svg>
