  <svg id="map" fill="#16be99" stroke="#000" stroke-width="0.5" version="1.1" xmlns="http://www.w3.org/2000/svg" xmlns:xlink="http://www.w3.org/1999/xlink"
    viewBox="0 0 864 684"  xml:space="preserve">
    <path id="AL" class="st0" d="M518.7,528.1l0.5,0.4l2,2.9l1.4,0.5l1.9,1.3l1.4,3.2l0.1,2.2l-0.5,2.6l0.3,2.1l-0.8,0.8l0.7,2l0.2,1.9
      l1.2,2.2l1.2,1.1l1.3,2.4l1.6-0.2l1.3,1.1v1.1l1.1,1.8l-0.8,2.6l-1.7,0.8l-1.2,3.1l-0.3,2l-0.6,0.5l-1.9,0.3l-1.7,1.3l1,2.2
      l-0.9,0.7l-0.3,1.5l-0.7,0.7l-2.7-0.9l-0.7-2.5l-1.7-2.7l-4.9-2.6l-1.2-1.1l0.4-1.5l-0.1-1.4l-1.4-2.4l0.3-2.6l0.8-2.2l-0.3-2.7
      l0.1-2.1l-0.7-2.9l0.5-2.1l0.9-1.3l-0.2-2.2l-1.5-1.1l-1.6-0.2v-3.1l-0.3-0.6h1.7l-1.7-2.8l3.2-5.3l1.1,0.3l0.8,2.1L518.7,528.1
      L518.7,528.1z"/>
    <path id="AD" class="st0" d="M287.4,528.8l-2.8,1.1l-0.7-0.4v-2.1l0.9-0.7l2.6,0.6V528.8L287.4,528.8z"/>
    <path id="AM" class="st0" d="M838.6,572.4l-3.2-2.8l-2.3-1.7l-1.6-0.7l-3.5,0.4l-2.9-0.9l-1.8-0.9l0.5-0.6l-1.9-3l-0.8-1.9l1-1.4
      l0.2-2.3l-1.7-3.3l-1.7-1.2l-1.3-1.6l4.4-0.3l5.3-1.3l3.2,0.3l1.1-0.2l3.5-0.1l-0.5-0.7l2.3-0.5l1.3,1.5l1.6,1l-0.9,0.9l2.3,1h1.2
      l3.3,2.5v0.7l-1.9,1.5l-0.2,1.1l3.2,3.4l2.4,1.4l3.2,1.5l0.2,0.9l-0.9,2.5h-3l0.6,0.9l1.9,1.2l6.1,4.4l1.5-0.3l2.2,0.9l0.2,1.3
      l-1,1.4l1.9,1.4l0.8,1.5l-1.8,0.5l1.4,1.5l0.5,2.6l-2.2-0.1l-2.5,0.5l-3-4.7l0.1-1l-3.1-2.1l0.1-1.7l-0.8-1.2l-1.7,0.2l-1.9,0.9
      l-2.9-1.6l-1.2,0.2l-0.3-1.1l-1.8-1.7L838.6,572.4L838.6,572.4z"/>
    <path id="AT" class="st0" d="M471.8,434.9l-0.9,2.4l0.1,0.8l1.6,2.9l2.3,2.9l-0.6,0.7l-0.6,1.9l0.7,2l-3.9,0.3l-2.5-0.9l-1.3,1.4
      l2.6,0.7l0.5,1.1l-0.5,1.4l-2.2,1.2l0.4,1.5l-0.5,0.7l1.1,1.6l-0.3,1.8l-2.5,0.5l-1.8,1.7l-1.3,0.9l-0.1,1.9l-2.4-0.5l-1.6,0.2
      l-2.3,1.1l-2.8-0.2l-2.6,0.2l-1.9,0.7l-1,1.3l-3,1.2l-5-0.7l-5-0.9l-2.6-0.5l-4-0.3l-8.6-1.5l-1.1-0.5l-3.1-3.5v-2.3l-4.7,1.5
      l-3.1-0.2l-3.4,0.3l-1.4,0.6l-1.2,2.2l-1.1,0.4l-2.1-0.4l-0.9-0.8l-3-0.3l-0.5-1.5l-0.8-0.3l-2,1.9l-2.3-0.4l-1.5-0.8l-0.4-1
      l-3.3-0.8l0.3-0.8l-1.1-2.5l1-3l-0.9-0.7l1.7-0.5l0.7-0.5l3.5,1.6l0.9,1.4l1.2,0.3l-0.1,1.3l1.6-0.5l1-1.6l0.2-1.9l2.8-0.1l2.7,0.4
      l1.4,1.9l3.8-0.5l1.1-0.9l3.9-1.5l5.7-0.5l0.1-1.4l2,0.3l1.5,0.8l2.5-0.5l1.1,0.5l0.2,1.1l1.2,0.9l1.7,0.4l0.3-1.5l-0.3-1.9
      l-1.7-0.3l0.6-1.3l-0.1-1.3l-2.5-2.8l0.6-1.3l3.1-1.8l2.9-0.8l1-1l0.7-2.9l2.3,0.9l1.3-0.9l0.2-2.8l2.2,1.2l0.8,1.3l3.9,0.4l1.4-0.7
      l2.5,0.4l0.1-1.1l1.3-1.6h1.2l0.3-3.2l1.2-0.2l1.6,0.8l1.4-0.4l4.8,1.7l1.5-0.1l3,1.7l3.8,0.2l1.2-0.9l5.1,1.5L471.8,434.9
      L471.8,434.9z"/>
    <path id="BE" class="st0" d="M334,401.8l1.6-0.5l0.8,0.8l1.2,0.1l3,2.3l-0.4,1.5l1.7,0.7l0.4,2L340,410l-0.6,1.7l-1.7-0.7l-1.3,1.3
      l-1.4,2.5l-0.2,1.7l2,2.4l-1.1,1.7l-3.4,0.4l-2.8-2.6l-3.3-1.5l-1.7-0.1l-0.4-2l-0.6-0.6l0.8-2.7l-1.9,0.6l-0.5,1.4l-1.3,0.6
      l-2.2,0.3l-2.3-0.3l-0.5-0.6l0.7-1.4l-0.7-0.7l0.4-1.6l-1.6-1.1l-3.6-0.4l-0.9,0.3l-0.6-2l-4.2-1.1l-0.5-2l-1.6-1.8l-3.2,1l-2.9-2.4
      v-1.2l-0.9-2.2l5.1-2.5l4.7-1.7l0.3,1.3l1.2,0.7l1.2-0.6l3.9,1.1l3.2-1.5l0.6-1.2l2.1,0.3l-0.2-0.9l1.4-0.7l1.5,0.8l1.5-1l1.1,1.3
      l2.5-0.8l0.5,1.6l2.6,1.4l1.9-0.4l1.7,1.3l2.6,1.1l-1,2.9l-1.1,1.3L334,401.8L334,401.8z"/>
    <path id="BG" class="st0" d="M623.6,509.6l0.2,3.7l-0.9,1.8l-2-0.6l-2.2,0.5l-1,2l-1.2,1.2v2.6l0.4,4.2l-1.6,0.7l-2.9,3.7l3,1.8
      l1.7,2.2l2.4,2.5l0.5,1.2l-1.7-0.2l-0.9,0.4h-1.8l-1.5,0.6l-3.4-2.5l-3.5,0.3l-1.5,1.1l-3.4,0.4l-1,2.2l-1.9,0.3l-0.3,1.4l-1.6-0.5
      l-1.6,1.1l0.7,1l0.9,2.7l-0.2,0.8l-2.5,1.2l-1.8-0.3l-3.2,0.4l-3.4,0.9l-1.7-1.1l-3.7-1.2l-0.9,0.6l-2.4-1.4l-1.2-1.7l-1.6,0.5
      l-4.2-0.1l-0.2,0.9l-1.9,0.2l-3,1.1L563,546l-2.4,0.2l-1,1l-3-0.2v-4.2l0.5-1.7l-0.9-1l-1.7-3.3l-3.4-1.8l-3.3-3.2l1-0.3l1.1-1.7
      l-1.4-2.9v-3.3l1.1-0.6l1.8-0.1l1.1-1.6l1.6-1.7l0.3-1.4l-1.6-1l-1.3-1.6l-2.9-1.5l-2.4-3.9l-0.6-2.4l0.4-2.3l2.1-1l0.2-1.9l0.9-0.7
      l4.3,2.5l-1.8,2l0.9,1.8l3.7-0.6l3.9,0.3l5.3,1l3.5,0.4l2.5-0.5l9.4,1.7l4.2,0.2l2.3-0.6l1.6-0.9l1.2-1.6l3.3-2.1l3.2-1.2l4.4-0.9
      l2.9-0.4l4.5,2.3l3.2,0.4l0.9,0.6l1.7-0.5l2.5,2.6l2.2,0.7l2.6,0.5L623.6,509.6L623.6,509.6z"/>
    <path id="BA" class="st0" d="M502.2,492.2l2.8-0.7l1.5,0.8l-0.5,2.5l-1.6,2.7l-0.1,2.6l0.5,0.8l2.4,1.2l3.3,2.9l-0.3,0.8l-3.1-0.1
      l-0.5,0.8l3.2,3.7l-0.2,2.2l-2.5-0.3l-0.7,0.8l-3.2,0.5l1.4,2.2l-2.3,0.2l-2,1.7l-0.5,1.7l0.1,1.5l-1.7,0.2l-0.5,0.7l0.6,3l1.1,1.6
      l-0.1,0.8l-1.1,1l-1.7-0.7l-6.2-3.8l-0.6-0.9l-1.6,0.1l-1.1-0.6l0.3-1.6l-3-2.5l-1.5-1.6l-0.4-2.2l-2.4-1.1l-5-4.1l-1.7-2l-2.8-2.3
      l-2.3-2.4l-1.3-4l-3.4-3.2l-1.9-1.3l-0.1-1.4l0.3-5l1.2-0.6l1.8,0.4l1.7,1.8l1.8,1l2.7-3.2l3.2,0.3l1.5-1.2l2.7,1.6l2.5,0.1l2.8,0.7
      l1.7-0.6l1.6,1.3l2.2-1l1.8,0.3l1.8-0.2l2.6,0.7l2.2,0.2l1.1,0.8l1.3,2.2L502.2,492.2z"/>
    <path id="BY" class="st0" d="M588.5,321.5l1.8,1.3l1.2-0.4l1.9-0.1l3.1,2.2l1.6-0.9l1.5-0.3l3.6,1.2l0.2,2.3l1.7,1.5l2.1-1.3
      l2.7-1.1h3.4l2.7,0.9l2.4,1.8l3.5,1.4l0.4,2.5l-0.6,1.8l2.1,2.1l0.5,1.3l-1.3,2v2l4.1,2l0.5,0.5l-0.5,1.8l1.4,0.6l1.8,2.4l1.5,1.4
      l4.9,2.1l0.7,0.8l-0.4,2.8l5.3,0.5l3.2,1.3v1.1l0.7,1.1l2.8,1.4l0.6,1.7l-2.6,1l-0.3,0.9l-3,1.8l-3.5-0.2l-2.4-1.5l-2.9,0.1
      l-1.4,2.7l3.9,3.3l0.6,1l-0.2,1.5l1,1.5l0.5,3.3l1.6,1.4l1.3,1.8l-5-0.1l-1.4,0.8l-1.7-0.4l-1.1,0.5l-2.2,2.3l-0.8,1.2l-1,3.3
      l1.8,3.6l-0.8,1.4l-2.7-0.9l-0.5-1.2l-2-1.1l-7.1,0.6l-2.3,0.8l-0.6-0.5l-2.5-3l-3.8,1.6l-0.6,1.1l-1-0.3l-0.8-1.3l-5.1-1l-1.9,0.7
      l-1.9-0.5l-1.2,1.7l-0.8-1.4l-1.1-0.4l-3,0.1l-1-0.3l-1.8-2.1H586l-6.1-0.9l-6.5-1.5l-7.8-0.4l-2.4,0.1l-2.3,0.5l-5.9,0.5l-0.8,1.4
      l-1.6,1.6l-1.9,1.2l-1.1-0.5l-1.9-0.3l-1.1,0.5l0.1,1.4l-1-1.6l-0.1-1.3l0.8-1.5l-0.4-1.1l0.2-2.4l-0.8-1l-1.8-1l-3.3-1.3v-1.2
      l2-2.7l0.8-0.5l4-1.7l0.6-1.6l-0.9-3.9l-1.7-3.6l-2.9-4.9l-2.1-5.1l2.9,0.4l1.6-0.3l3.7-0.3l1.6,0.9l3.3-1.3l1.8,0.1l0.8-2.6l2,0.2
      l1.4-1.2l2.1-0.5l1-0.7l1.7,2.3l2-0.2v-1l-0.9-1.1l-1.9-0.5l0.5-2l1-1.5l-0.4-2.3l1.1-3l2.6-0.6l0.8-0.6l1-2l3.6,0.1l0.4-1.1l1.3-1
      l-3.9-1l0.7-3.1v-1.8l2.6-0.6l1.2-1.5l1.1-0.3l3,0.4l3.1,0.1l0.4-1.7l2.5-2.4l1.4-0.8L588.5,321.5L588.5,321.5z"/>
    <path id="CH" class="st0" d="M378.1,449.1l0.8,1.1l2.6,1.3h1.2l0.9,0.7l-1,3l-0.5,1.5l0.1,1.7l1.2,0.1l3.3,0.8l0.4,1l1.5,0.8
      l2.3,0.4l2-1.9l0.8,0.3l0.5,1.5l-0.5,3.1l0.5,1.8l-1.9-0.2l-1-0.9l-1.3,0.3l-0.6,1.8l1.5,3.5l-1.2,0.3l-1.4-1.9l-0.7-0.1l-2.9,1.1
      l-2-0.8l-0.8-2.1l-2,0.1v2.9l-0.5,1.1l-2.2,2.6l-0.2,1l0.7,1.7l-1.2,0.7l-0.9-1.4l-1.3-1.2l0.4-1.2l-2.2-0.6l-2.4-2l-0.2-2.5l-1-0.6
      l-3.4,2.9l0.6,1.5l-1.6,2.2l-2.4,1.4l-3.1-0.8l-2.6,1l-2.4,0.5l-1.4-0.7l-0.9-1.4l-2.3-2.3l0.5-1.7l-0.8-2.2l-2.2-0.3l-1.9,0.1
      l-2.3,1.5l0.5,1.3l-2.3,1.6l-1.4-0.1v-1l1.5-1l0.3-1.5l-0.8-0.7l1.1-2.9l3-2.2l0.5-2.9l2.1-0.9l3.8-4l0.6-0.9l-1.3-1.1l1.8-1.4h1.1
      l0.8,0.8l2.7-0.3l0.8-1.4l1.5-0.7l1,0.3l2.8,0.1l3.3-0.6l2.6,0.2l-0.2-1.5l1.3-1.2h1.3l1.4,1l0.8-0.2l1.1,0.9L378.1,449.1
      L378.1,449.1z"/>
    <path id="CZ" class="st0" d="M442.9,400.5l2.1-0.4l-0.1-1.9l3.3,0.8l0.3,1.1l1,1.1l4.6,1.1l2.7,1.1l0.8,0.9l3.2-0.7l1.8,1.2
      l-0.7,1.1l-1.6,1.2l1.6,0.9l2,1.8l1.5,1.9l1,0.4l3.5-2.5l-1.7-2.4h1.3l2.2,0.6l3.3,1.9l3.6-0.7v1.6l-1.4,0.5l2.7,2.3l1,0.6l1.8-1
      l3.5,1.8l0.5-0.2l2.7,0.8l0.5,1.8l2.8,2.2l0.5,1.6l-2.8,0.3l-2,1.5l-0.6,0.8l-2.3,1.2l-0.7,3l-1.6,0.8l-2.1,1.9l-1.5,0.7l-1.7,0.2
      l-3.6-0.5l-1.4,1.2l-1.1,2.8l-1-1.6l-5.1-1.5l-1.2,0.9l-3.8-0.2l-3-1.7l-1.5,0.1l-4.8-1.7l-1.4,0.4l-1.6-0.8l-1.2,0.2l-0.3,3.2h-1.2
      l-1.3,1.6l-0.1,1.1l-2.5-0.4l-1.4,0.7l-3.9-0.4l-0.8-1.3l-2.2-1.2l-0.6-0.7l-2.9-2.2h-1.3l-1.3-1.6l-2.5-1.5l-2.9-2.6h-1.3l-2.3-2
      l-1.8-2.7l-1.4-1.5l1.2-1.7l-0.6-1.6l-2.3-1.3l-2.5-3.4l0.5-0.7l1.9,2l1.9-2.6l1.1-0.6l2.6-0.6l2.1,0.4l0.8-1.3l2-0.3l0.6-1l1.6-0.7
      l1.1,0.1l0.6-1.2l4.4-1l3.5-1.5l1.9-0.6l-1.5-1.5l0.8-0.6l2.2,0.4l1.5,1.5v0.9l1.4,0.6L442.9,400.5L442.9,400.5z"/>
    <path id="DE" class="st0" d="M431.9,355.2l-3.4-0.1l-0.2-1.7l-1.1-1l-0.1-1l4.7,2.6L431.9,355.2z M397.1,347.1h-1.8l-1.4-0.7l0.8-1
      l1.7,0.4L397.1,347.1L397.1,347.1z M425.4,347.6l-1.3,0.7h-1.3l-1.3,1.3l-2.1-1.1l-0.5-1.1l0.1-2.2l0.6-1.4l2-0.9l0.9,1.2l1.7,0.6
      l-0.5,1.7L425.4,347.6L425.4,347.6z M378.8,341l1.8,0.7l1.6,1.6l0.1,1.4l-1.7,1.6l3.2-0.3l0.8,1.2l1.7-0.4l4.5,1.8l3.2-0.9l0.7,1.4
      l-0.6,1.5l-2.2,1.6l1.4,1.2l2.1-0.2l3.6,0.9l3.3-2.5l1.1-0.5l3.6-0.3l5.1-4.5l5.3,0.9l1.5,1.9l3.7,2.1l3.2-0.2l1.3,2l0.8,2.5
      l1.9,1.3l2.8,0.5l0.7,2.6l1.8,4.1l-0.3,2.7l-1.9,1.8l-0.7,1.6l1.6,1.4l3.3,2.1l1.4,1.7l-0.6,2.6l2,2.3l0.8,1.9l-0.7,2.6l-0.8,1.1
      l1.9,3.1v1.6l2.2,0.9l1.6,3.2l-0.4,2.3l-1.6,3.6l-0.9,0.7l-1.4-0.6v-0.9l-1.5-1.5l-2.2-0.4l-0.8,0.6l1.5,1.5l-1.9,0.6l-3.5,1.5
      l-4.4,1l-0.6,1.2l-1.1-0.1l-1.6,0.7l-0.6,1l-2,0.3l-0.8,1.3L419,407l-2.6,0.6l-1.1,0.6l-1.9,2.6l-1.9-2l-0.5,0.7l2.5,3.4l2.3,1.3
      l0.6,1.6l-1.2,1.7l1.4,1.5l1.8,2.7l2.3,2h1.3l2.9,2.6l2.5,1.5l1.3,1.6h1.3l2.9,2.2l0.6,0.7l-0.2,2.8L432,436l-2.3-0.9L429,438l-1,1
      l-2.9,0.8l-3.1,1.8l-0.6,1.3l2.5,2.8l0.1,1.3l-0.6,1.3l1.7,0.3l0.3,1.9l-0.3,1.5l-1.7-0.4l-1.2-0.9l-0.2-1.1l-1.1-0.5l-2.5,0.5
      l-1.5-0.8l-2-0.3l-0.1,1.4l-5.7,0.5l-3.9,1.5l-1.1,0.9l-3.8,0.5l-1.4-1.9l-2.7-0.4l-2.8,0.1l-0.2,1.9l-1,1.6l-1.6,0.5l0.1-1.3
      l-1.2-0.3l-0.9-1.4l-3.5-1.6l-0.7,0.5l-2.2-1.2l-5.1-2.3l1,1.6l-3.7,0.2l-1.1-0.9l-0.8,0.2l-1.4-1h-1.3l-1.3,1.2l0.2,1.5l-2.6-0.2
      l-3.3,0.6l-2.8-0.1l-1-0.3l-1.1-1.3v-1.5l0.6-2l-0.2-2.4l0.3-1.5l1-1.8l1.4-5.5l3.5-3.8l-0.1-1.3l-1.6-0.6l-4.8-0.8l-2-1.4l-3,0.6
      l-2.1-0.1l-0.3-0.9l-1.4-0.4l-1.8,0.7l-3.5-4.3l-1.4-0.1l0.6-3l0.9-0.9v-1.4l-2.8-1.1l-1.5-1.6l-0.3-2.2l0.6-1.7l2.3-1.3l-0.4-2
      l-1.7-0.7l0.4-1.5l-3-2.3l0.6-2.4l-1.9-1.2l0.5-0.8l2.2-1.6l-0.7-1.2l1.3-2.8V391l-3.1-4.1l0.7-1.1l1.8-0.7l2.3,0.8l4.5-1.3l0.7-1
      l-1-0.9l0.3-0.9l2.6-1.6l0.6-2.6l-0.8-1l-2.6-0.3l-0.7-1l0.6-1.6l3.1,0.1l1.1-3.8l0.7-1.7l-0.1-4.3l-1.7-1.4l0.5-2.7l1.1-1.4
      l0.9-0.4l4-0.3l4.5,0.1l1.9,2.2l-0.6,1.2l1.6,0.3l0.9-2.4l1.4,0.8l1.1-0.1l-0.5-1.7l0.2-1.6l0.9-1.4l3.3,0.6l3.6-0.3l0.1-0.6
      l-2.8-0.5l-0.9-1.1l-0.2-3.9l-1.5-0.8l-1.6,0.3v-1.5l3.4-1.1v-1l-3.4-3.8l-0.2-1.6l2.7,0.1l5.2,1.3l3.1-0.7L378.8,341L378.8,341z"/>
    <path id="DK" class="st0" d="M397.5,340l2.1,1l2.4,0.3l0.4,1.9l-3.5,0.7l-5.1-2.1l0.1-2.5l2.3-0.2L397.5,340L397.5,340z
      M411.2,338.9l-2.3,0.1l-1.9,1l-0.3-1.2l1.6-1l1.2,0.2L411.2,338.9z M382.4,340.1l-1.2,0.2l-1.7-0.5l-0.6-2.3l2.7,1.1L382.4,340.1
      L382.4,340.1z M390.4,342.1l-1.4-1.5l2.5-2.9l0.7-0.2L390.4,342.1z M440.5,338.1l-2.4-0.2l-2.4-1l0.1-2l0.5-0.9l4.5,2.3L440.5,338.1
      L440.5,338.1z M388.4,329.4l2.3,4.3l-0.1,2.8l-1.8,1.2h-2.1l-5.4-1.7l-1.7-2.9l-0.1-2.3l4.8-1.4l2.6,0.8L388.4,329.4z M411.7,329.6
      l-1,0.6l-0.7-0.9l0.9-0.9L411.7,329.6L411.7,329.6z M387.8,326.8h-0.9v-3l1.5,1.6L387.8,326.8z M410.4,326.8l0.1,1.5l-0.7,0.7
      l-2,0.7l-1.1,1.8l2,1.2l0.5,1.5l-1,0.7l-2.6,0.7v5.6l-2.2,0.6l-1.5-2.1l-0.1-0.9l-1.3-3.1l-2-0.4l-2.2,0.1l-1.5-1.8l0.1-2.1l-1-2
      l-1.3-0.6l0.4-1.4l3.1-0.2l1.5-1.9v-0.9l1.8-0.2l0.8,0.7l0.1,2.6l1.6,0.5l1.1-2.9l-0.9-1.1l3.9-2.2l1.1-0.1l3,0.9l-0.4,2.1
      L410.4,326.8L410.4,326.8z M378.8,341l-1.5-0.4l-3.1,0.7L369,340l-2.7-0.1l-0.5-2.1l-0.8-1.4l1.1-0.3l-0.9-3.9l-3.2-1.3l-2.5-1.4
      l0.5-5.6l-1-2.3l0.1-6.9l1.3-0.1l3.1,0.8l1.5,0.9l0.6-1.9l1.6-1.6l2-0.8l1.6,1.3l0.3-4.5l-1.6-0.5l-1.3,0.4l-1.3,1.9l-1,2.4
      l-1.9,0.2l-1.5,0.7l-2.4-1.4l0.1-1.4l1.6-1.9l2-1.9h2.2l1.6-0.6l3.9,0.1l2.8-1.3l2.8-3.6l1.5-1.5l3.3-0.5l3-1.7l-0.8,2.5l1.2,1.7v3
      l-0.9,1l-1.4,2.5l0.2,5.6l2.5,1.5h4.1l1,1.1l-0.7,2.2l-2.6,1.4h-0.9l-1.4-1.1l-1.1,0.9l-1.2,5.1l-2-0.1l-1.2,0.5l1.4,1.2l-1.3,0.8
      l-3.4,3.1l1.1,3.4l-0.2,0.9l-1.5,1.3l-0.6,1.1l2.3,0.3L378.8,341L378.8,341z"/>
    <path id="EE" class="st0" d="M519.5,285.3l3.9,0.2l4,1.8l-1.8,0.7l-3.7,2.5l-0.3,0.5l-2.6-0.1l-1.4,0.2l-1,0.9l-0.9,2.8l-1.6,0.5
      l-0.3-0.9l1.6-1.8l-1.5-1.4l-1.9-0.7l0.9-1.8l-1.6-1.6l1.5-0.2l1,0.5l2-0.5l0.5-1L519.5,285.3L519.5,285.3z M527.8,286.3l-0.9,0.2
      l-2.4-1.1l1-1l1.9,0.5L527.8,286.3z M522.4,282.3l-0.8,0.7l-0.9-0.6l-0.9,1.6l-1.3,0.3l-1.9-2.5l-2.9-0.5l-1.3-0.7l4.5-0.4l1.2-1.6
      l1.3,0.1l0.4,0.9l2.1,0.3l0.9,1L522.4,282.3L522.4,282.3z M575.6,301.2l-1.9-0.2l-3.4-1l-4,1.2l-2.8-1.1l-3.5-2.7l-0.6-0.7l-2.3-0.5
      l-5.6-2.5l-1.1,0.7l-1.5-1l-8.4,2.8l1-3.4l0.1-3.6l-2.3-0.4l-0.9,1.3l-1.3,0.3l-4.1-1.3l-1.2-2.1l-1.6-1.1l-0.8-1.2v-1.8l-1.5-2
      l0.7-1.1l-0.7-2.8l3-1.2l3.3-0.2l0.9-1.3l2-1.3l2.3,0.2l3.1-1l6.3,0.1l0.4-1.7h3.2l7.6,1.2h1.8l2.8,1.2l1.4,0.3h4l6.3,0.5l1.2-1
      l1.5,1.2l-1,1.4l-1.2,0.4l-0.9,3.2l-0.8,1l-1.7-0.3l-2.5,0.2l-2,0.5l-1.3,1.1l0.1,1.1l2.6,2.3l1.4,2.8l2.6,2.2l0.8,1.3l2.4,2.9
      l1.8,2.5l-2.3,0.6l-1.2,2L575.6,301.2L575.6,301.2z"/>
    <path  id="FI" class="st0" d="M510.5,260l2,0.2l-0.6,2.8l-2.3-1.8L510.5,260L510.5,260z M508.6,260.5l-2.1-0.6l0.9-0.8L508.6,260.5
      L508.6,260.5z M502.1,257.8l-1.5,0.7l-0.3-1.7L502.1,257.8z M527.6,194.9l-1.5,0.5l-1.3-0.3l-0.2-0.9l2-0.6L527.6,194.9z
      M557.7,140.3l-3.7,1.3l1.6,0.8l0.8,1.2l-2,3.2l0.1,0.6l3.1,4l7.2,1.7l2.3,1.8l3.6,2.3l1.8,0.9l0.1,1.9l-3,3l-2.6,3.1l-1.2,1.7
      l0.4,1.7l2.6,2.1l2.3,2.2l3,3.5l3,2.5l3,4.2l0.4,1.4l-3.7,0.7l1.2,0.9l-0.6,1.3l0.3,1.9l-0.5,1.5l1.9,0.3l0.3,1.3l-1.7,1v0.9
      l1.4,1.7l1,0.6l3.2,0.6l0.9,1.6l-1,1.7l1.8,2.2l4.5,1.8l0.7,1.3l0.2,1.7l-2.4,3l-2,0.8l0.7,0.8l4.5,2.6l6.6,2.9l2.6,1.3l2.1,1.9
      l2.2,1.6l0.5,1l-1.6,4.5l-0.7,1.2l-2.2,2.2l-3.4,2.8l-2.3,2.3l-5.3,5.9l-1.9,1.5l-2.1,2.2l-4.9,3.3l-0.7,0.8l-2.5,1.5l-5.6,5.2
      l-3.5,1l-2.6-1.1l-1.8,0.2l-1.2,0.8l-2.5,0.2l-2,0.6l-1-0.7l-0.7,0.6l-1.9,0.2l-2-1l0.3,1.5l-3.3,1.5l-0.8-0.9l-2,1l-2.1,0.2
      l-1.1,0.8l-5.9,1.1l-1.5,1.3l-1.2-0.3l-6.7,1.1l-2.9-0.2l-2.7,2l-1.8,0.4l1.5-3l-2.4-1.1l-1.2-1.6l-0.7,0.4l-0.3,1.5l-1.5,0.8
      l-2-0.1l-0.4-2.4l0.8-2.3l-3.6-0.6l-3.8-1.4l-0.9-0.1l-0.7-1.3l-2,0.9l-2.1-0.9l-1.7-5.3v-1.3l0.9-1.6l-0.1-3.4l-0.6-2l1.1-0.6
      l-0.9-1.6l-2.2-3l-1.6-1.1l0.5-3.3l-0.6-1.6l-1.9-1.1l-1.1-2.9l0.6-2.4l2.4-2.2v-1.2l0.9-1.1l-0.5-1.3l2.7-0.5l1,0.4l2.4-0.4l1.9-1
      l-1.1-1.8l1.5-0.7l1.2-1.2l-0.1-1l2.3-0.5l2.4-1.9l2.3-1.1l2.3-1.9l1.1-0.1l0.3-1.3l2.5-1.9l0.8-1.6l2.3-1.8l2.2-3.9l3.8-1.2
      l3.8,0.3L532,195l1-0.3l-0.6-1.3l-1-0.6v-4.6l-1.3-0.9l-4.5-1.6l-1.7-0.1l-1.2-1.2l-4.6-0.7l-1.6-2.5l-1.9-2.2l-1.8-0.6l-1.3-2.6
      v-1.3l1.5-1.3l-0.1-1.8l0.7-1.4l-0.6-0.9l-3.3-2.6l-0.8-1.6l0.1-1.1l1-0.8l-0.6-1.3l-2.8-0.4l0.3-1.9l-0.7-1.4l-0.4-2.4l1.1-1
      l-1.8-0.9l-1.9-1.5l-1.4-0.1l-1.2-1.6l-3.5-1.8l-8.3-1.7l-4.2-1.8l-4.8-2.3l-2.9-1.1l-0.4-0.9l-2.9-0.8l0.5-0.4h2.1l1.9,0.4l0.5-0.6
      l-1-1.4l1.9-1.1h3.6l7.9,5.5l1.4,1.8l6.9,0.6l0.8,0.5l1.8-0.1l3.7-0.9l1.2-1.2l1.5,0.1l3.6,1.1l3.9,0.8l2.6,0.8l1.3-0.6l0.5-1.7
      l1.6-1.3l2.1-0.3l1.5-1.4l-0.7-3.2l0.6-1.7l0.7-3.8l2.6-1.7l1.7-1.8l2.1-0.2l3.8,0.4l0.9-0.2l3.5-1.6l2.9-0.3l1.8,1.2l4.2,2l4.2,1.1
      l3.6,0.8l2.6,2.7l-0.7,1l-3.2,2.9v0.7L557.7,140.3L557.7,140.3z"/>
    <path  id="GB" class="st0" d="M253.1,403.1l-1.6,1.3l-1.3,0.2l-2.5-1.2v-0.5l2.5-1.1l2,0.6L253.1,403.1z M216.6,363.4l1.3,0.9
      l-3.4,1.9l-1.2-0.6l-0.9-1.2l-0.1-1.9l1.2-0.5h1.8L216.6,363.4L216.6,363.4z M193.3,352l-2.1,0.4h-2.9l0.1-1.5l-1.4-0.5l-1.8-2.7
      l-1.3-0.5l-1.9,1.6l0.5,0.9l-2.4,1.8l-2.9-0.3l-0.8-0.7l-2.1-0.4l-0.2-1l-2.7-2l1-1.4l2.9-0.9l-1-1.4l0.2-0.8l1.6,0.1l2.2-0.8
      l1.2-1.6l1-2.3l1.9-0.9l1.3,0.6l1.9-2l2.8-0.1l2.7-0.7l3.9,0.3l1.1,1.1l0.5,1.7l1.3,1.7l1.7,1.4v0.9l-2,1.1l3.5,0.3l1.2,2.5
      l-2.1,0.3l-0.1,1.4l1.1,0.2l-0.6,1.4l-2.6,0.6l-1.4,2.2l-1,0.5L193.3,352L193.3,352z M207,331.8l-2.6-0.5l-0.6-2l0.9-1.4l1.8,0.7
      l0.6,1.3L207,331.8L207,331.8z M195.5,324.7l0.7,3.4l-2.4,1.3L193,327l-1.4,1l0.2-1.9l1.5-0.3L195.5,324.7L195.5,324.7z
      M197.2,326.4l-1.1-1.2l1.6-2.2l1.7-1l-0.1,1.6L197.2,326.4L197.2,326.4z M199.7,318.6l-4.6,0.8l0.6-3l-1.9-0.9l0.3-0.9l2.1-0.5
      l1.7,1.7l2.1,0.6L199.7,318.6L199.7,318.6z M183.5,307.2L182,307l-0.4-1.4l0.2-2.3l1.6,0.2L183.5,307.2L183.5,307.2z M196.3,301.5
      l-0.1,2.8l2.9,0.8l2-0.1l0.4,0.6l-3.3,2.7l-0.7-0.1l-0.2-2.2l-1.4,0.3L194,306l-1.2-1.9l-2.7-0.5l-0.9-1.1l1.4-0.6l0.3-1.2l2.8-0.6
      l1.5-0.7l0.9,1L196.3,301.5L196.3,301.5z M184.4,298.9l1.2,0.9l-1.1,1.3H183l-2.2-1l0.2-0.5L184.4,298.9L184.4,298.9z M196.2,289
      l-1.6,2.6l-1,0.7l-0.2,1.7l-3,1.6l-3.2,2.4l-1.4-1l2.6-1.7l-2.1-1l-0.2-2.6l0.8-0.7l1.4,0.7l1.9-0.3l-0.7-1.2l6.3-3.2L196.2,289
      L196.2,289z M231,286.8v1.2l-1.3,1.6l-2.2,1.2l-4.2,2.8l-2.5,1.3l-0.5,1.6l1.4,0.1l0.2,0.8l-2.2,1.6l-0.6,1.5l3-0.4l5.3-1.5l3.6,0.5
      l2.6-0.3l6.9,0.2l1.9-0.3l2.3,1.3l1,1.7l-2.8,3.4l-0.8,2.3l-2,3.5l-1.9,2l-2,2.5l-2.1,1.1L231,317l4.5,1.9l-1.4,1.8l-2.4,0.1
      l-2.3,1.7l-2.1,0.7l3.6,1.1l2.4-1l2.7-0.1l5.2,1.9l3.6,3.4l2,1.5l0.5,1.1l2.1,6.9l1.5,3.8l1.6,1.8l4.5,1.6l1.1,0.6l3.4,3.3l3.4,2.4
      l-1.4,1.5l0.4,1.2l2.1,2.9l0.3,1.6l-1.3-0.1l-2.3-1.4l-0.3,0.7l5,3.3l1.6,2l1,2.7l-0.6,1.1l-3,2.7l2.8,1.4l1.2-0.2l2-2.1l1.7-0.2
      l4.2,0.3l3.8,1l3.3,2.1l0.7,1.1l0.4,3.1l-2.2,5.8l-2.8,1.9l-0.5,1.7l-2.1,0.9l-1.7-0.3l-2.4,1.2l1.7,0.6v1.7l-1.1,0.6l-2.5,0.2
      l1.1,2l2.5,0.4l4.3-0.2l1.9,0.2l-0.2,2.7l-0.4,0.4l-3.8,1.7l-1,1.8l-2.2-0.1l-1.1,0.7l-5.7,1.9l-4.9-0.8l-2.9,0.1l-4,0.6l-4.2-1.2
      l-1.8-0.2l-2.8,1.7l-4.2,0.5l-2-0.2l0.9,1.5l-0.9,0.4l-3.8-0.5l-1,0.5l-1.4-0.2l-2.7-1.4l-2.6-0.1l-4.9,1.2l-1,1.3l-1.3,3.5
      l-1.1,1.2l-1.4,0.2l-4.5-2.5l-1.5,0.5l-2.5,0.3l-2.7,0.7l-3.9,2.4l-0.9,1.5l-1.3,0.2l-1.1-0.9l-1.4-0.3l-2.3,0.8l-0.3-1.3l1-1
      l2.8-0.7l2.5-1.9l2.2-2.3l4.6-3.8l0.8-3.1l2.7-0.7l1.4-2.5l4.1-0.6h2.8l2.8,0.5l2.9-0.1l1.1-0.7l1.9-2.4l3.6-3l-4.7,1l-3.8,2.3
      l-3.2-0.4l-2.3-1.9l-2.1-0.8l-2.1,0.4l-0.7-0.9l-2.4-1.7h-2.6l-3.6,1.7l-2.6-1.2l-0.9-2.3l0.3-1.4l1.1-0.7l2.5-0.6l3.8-1.7l2.2-0.7
      l2.8-1.9l1.2-2.3l-0.3-2l0.5-1.4l-0.9-1.7l0.3-1.5l-3,0.3l-2.7,1.2l-0.7-1.1l2.8-1.8l1-1.4l2.6-1.7l3.6-1.3l1.9,0.1l3.7-0.7l2.7,1.3
      l-0.8-2.1l1.2-0.4l0.1-2.4l1.6-2.2l-1.2-0.6l0.1-2l1.5-0.8l0.7-2.6l-1.7-0.5l-2.1,0.6l-1.7-1.5l-2.8-3.6l-0.3-1.4l1.6-3.1l2.3-2
      l-1.9-0.8l-1.4,0.2l-2.7,1.2l-2,1.3h-2.1l-0.8-0.9l-1.1,0.1l-2.5,1.1l-3.5-1.3l-1.1,2.3l-2.6-2.5l-0.3-1.9h1.3l1.2-2.4l2.9-4
      l0.6-1.2l-0.5-1.4l-1.9-1.5l0.3-2.6l0.8-1l1.5-0.4l-1.9-1.2l-2.9,0.9l-1.8,0.9l0.3-2l-0.6-0.4l-1.5,1.4l0.1,3.3l-2.1,5.7l-1.1,0.9
      l-1.4-0.5l1.1-3.9l1.4-2.5l-0.6-0.3l0.3-3.6l1-2.9l1.7-3.8l2.2-3.5l-4.1,2.7l-1,0.5l-2.4-0.4l-0.8-0.7l-1-2.3l1.8-0.2l1.7-1.1
      l-1.5-0.7l1.5-0.9l1.7-2.1l0.4-1.9l-1-1.5l-1.6-0.6l-0.2-0.9l1.7-1.9l-0.7-1.5l1.6-3.1l3,0.1l1.9-0.4l-2.3-2l0.7-2.9l3.7-0.3
      l-0.8-1.8l0.3-2l1.6-0.9l1.3,0.2l1,0.9l2.6-0.9l0.6,0.8l2.8-0.6l3.7-0.3l4.5-0.6l2.2-0.4l2.3,0.2L231,286.8L231,286.8z M230.4,282.8
      l-1.3,0.1l-1.3-1.4l1.5-0.3L230.4,282.8L230.4,282.8z M231.7,279.4l2.7,0.6l-0.6,1.4l-1.4-0.7l-2,0.3l-1.9-1l0.4-2.1l1.7-0.1
      l1.2,0.5L231.7,279.4L231.7,279.4z M235.4,277.1l-1,0.3l-0.4-1.2l-1.7-0.6l0.4-0.8L235.4,277.1L235.4,277.1z M251.5,257.6l1.6,1.8
      l1,0.5l-1.3,3.8l-0.2,1.6l-1,1.7l-0.8-0.4l0.9-2.9l-0.5-1.1l-1.7,0.3l-0.4-0.9l1.6-1.4l-0.8-2l-1.1-0.2l1.5-1.6L251.5,257.6
      L251.5,257.6z M254.4,258l-1.4-1.3l1.3-0.6L254.4,258z"/>
    <path id="GE" class="st0" d="M836.9,547.7l-2.3,0.5l0.5,0.7l-3.5,0.1l-1.1,0.2l-3.2-0.3l-5.3,1.3l-4.4,0.3l-1.3-1.2l-1.9-0.2
      l-1.1-1.7l-3.5-2.5l-1.2-0.4l-0.6-1.1l-1.4-0.3l-1.4,0.4l-0.9,1.9l-3.4-0.8l-3.6-0.1l-1.1,1l-4.3-1.3l1.9-3l0.4-1.7l-0.4-2.4
      l-1.7-2.7l-3.7-8l-1.1-1.2l-4-1.4l-1.1-1.6l-3.2-2.1l-4.1-0.9l-4.8-2.9l-2.9-1.7l0.9-2.1l0.8-0.2l4.8,0.9l1.5-0.4l5.9,2.5l3.6,0.7
      l3.1,1.7l6,0.5l2.8-0.6h1.8l2,1.1l2.4-0.2l3.2,1.2l1.5,1.6l3.5,1.4l2.8,0.8l3.2,1.5l0.2,2.4l2.5,0.4l4.3-2.1l2.1-0.7l1.8,0.2
      l1.9,1.9l0.8-2.2l4.6,1.7l2.1,1.8l2.8-0.1l2.2,1l-0.2,4.2l2.9,1.4l1.6,1.2l3.4,0.7l3.1,1.5l-1.2,2.1l-1.2,0.3v1.3l1.1,0.8l0.9,1.5
      l4.5,2.6l0.9,0.8l-0.2,2l-1.8,1.4l-4.1-2l-1.7,0.5l-3.2-0.9l-1.4-1l0.1-0.7l-4-1.4l-1.9-0.4L836.9,547.7L836.9,547.7z"/>
    <path  id="GR" class="st0" d="M576.9,637.7h2.3l1.7-1l2.2,3.7l1.7-0.1l3.5-0.9l3.7,0.2l1.4,1l2.6,0.2l2.3,0.5l3.3-0.7l0.4,0.4
      l0.1,2.8l1.2,0.2l0.7-0.7l1.7-0.6h1.8l1.6-0.8l-0.4,3.5l-0.9,0.4l-4.4-0.1l-8.1,1l-5.3,0.4l-0.7-0.2l-0.7-2.2l-3.3-1.1l-6.2-1
      l-1.5-0.4l-3.1,0.2l-1.1-1l-0.4-1.8l0.2-1.9l1.4,0.3l0.4-1.4L576.9,637.7L576.9,637.7z M620.3,638.8l-1.6-2.1l1.1-0.5l1.2,2.4
      L620.3,638.8L620.3,638.8z M565.6,627.4l-1.4,0.2l-0.7-2.2l0.5-1l2.1,2.1L565.6,627.4L565.6,627.4z M628.3,631.5l-1.7-0.4l0.4-1.8
      l-0.7-1.6l2.3-2.7l3.2-1.3l0.9,0.9l-0.9,2.5l-0.9,1.3l0.4,1l-1.6,0.2L628.3,631.5L628.3,631.5z M609.3,621.2l-1.5,1.2l-0.9-0.6
      l1.9-1.2L609.3,621.2z M615.5,619v-0.7l1.3-1.1l2.5-1l1.2,0.6l-2.5,1.4l-1.5,0.1L615.5,619z M593.3,613.6l-0.9,1.3l-1.3-0.7l0.4-1.2
      l1.1-0.6L593.3,613.6z M596.9,615.2l-1.1,0.6l-1.4-2.2l1.9-2l0.9,0.7l0.1,1.8L596.9,615.2L596.9,615.2z M602.3,606.4l0.6-1.6
      l1.6-0.1v1.1L602.3,606.4L602.3,606.4z M580.6,605.7l-1-0.4l0.4-1.2l1.1,0.5L580.6,605.7L580.6,605.7z M612.2,602l2.8,0.7l-0.7,1
      l-1.6,0.9l-1.7-0.9l-1.2-1.2L612.2,602z M535.5,602.1l0.4,1.2l-1.1,1l-1.6-1.2l-1.2-1.8l0.9-1.1l0.9,1.2L535.5,602.1L535.5,602.1z
      M588.6,602.8l-1.4-0.1l-2.4-2.1l0.9-1.4l0.9,1.2l1.3,0.1L588.6,602.8z M531.3,593.1l0.3,1.8l0.9,0.3l1.3,1.6l-0.2,1.2l-2.1-0.8
      l-1,0.2l-1.1-2l-1.3,0.2l0.6-1.8l1.4,0.1L531.3,593.1L531.3,593.1z M602.1,595.6l-1.1,0.9l-1.8-1.7l1.4-1.3l-2.1-2.4l-0.1-1l2.1-0.5
      l1.3,0.9l0.6,1.2l0.4,2.6L602.1,595.6L602.1,595.6z M531.9,589.5l-1.3,0.1l-0.4-0.9l0.8-2.4l1.1,0.3l0.2,2.5L531.9,589.5
      L531.9,589.5z M566.5,584.1l0.9,1.7l5.5,2.5l2.8,0.3l1.7,2.6l-0.2,0.6l1.5,3.8l1.1,0.9l2.7,0.3l0.4,1.9l-0.9,0.8l-1.9-0.7l-2.1-1.6
      l-0.4-1.3l-2.2-2.9l-3.6-0.2l-1.5-0.7l-0.6-1.7l-1.5-0.9l-2-1.9l-1.5-1.1l-3-1.1l-0.6-0.7l1.9-1.3l2.1-0.5L566.5,584.1L566.5,584.1z
      M604.4,578.3l-0.1,0.9l1.9,1.5l0.7,1l-1.2,2.1l-4-0.8l-0.8-0.8l1.6-1.3l-0.9-0.5l-1.2,1.5l-2.2-0.7l-0.9-0.9l0.7-1.4l1.5,0.1
      l1.7-0.8v-0.6l2.3-0.2L604.4,578.3z M523.1,576.7l-1.3,0.3l-1.2-0.8l-1.2-1.9l-2.2-2.2l0.7-1.1l1.6-0.4l1.4,1.2l-1.1,1.2l0.8,0.7
      l0.9,2.4L523.1,576.7z M590.9,568.1l-0.7,1.4l-0.1,1.3l-3.8-0.7l-0.3-2.3l2.2-0.1l0.8,0.8l1-0.9L590.9,568.1L590.9,568.1z
      M593.3,561.2l-1.4,0.4l-1.7-1.3l1.4-0.5L593.3,561.2L593.3,561.2z M581.4,558.2l-1.6,0.6l-1.8-1.1l1.1-2.3l1.3,0.1l1,1.3V558.2z
      M597.3,556.5l-0.5-0.7l-2.1-1.2l-4.6-0.6l-2.3-0.9l-0.9,0.2l-2-1l-1.2,0.4l-2.5,1.7l-1.5-0.2l-1.6-1l-2.2,0.4l-1.7,1.9l-1.8,1
      l-1.8-0.4h-2.3l-0.2,1.1l2,2.1l-0.5,1l0.5,1l2.1,0.1l2.5,1.3l-0.7,0.7l-3.2-1.2l-1.2-0.1l-1.2,1.2l3.5,2.7l0.5,1.4l-0.6,0.9
      l-1.5-0.8l-2.5-3.2l-3.1-0.6l-0.4,0.6l1.2,2.4l2.9,1.7l-0.6,0.6l-3-1l-1.1-1.6l-0.4-2l-5.5-2.8l-1.4-2.8l-2.2,1.3l0.4,2l-0.6,3.8
      l0.4,1.3l3.5,3.7l1.3,2.7l2.6,2.1l2.6,3.2l0.7,1.8l-1.3,1.1l-1.3-0.5l0.3-1.9l-2.2-1.2l-1.9,1.2l1.5,2.3l0.5,1.2l-0.4,1.3l-1.6,0.8
      l-2.6,0.1l2.4,1.4l3.3,1l1.6,1.1l1.5,0.1l1.7,2.1l2.6,0.6l1.7,2.1l2,0.5l1.7,0.8l1,2.1l0.3,2.9l0.6,2.1l0.1,1.7l-1.1,0.5l-1.3-1.6
      l-4.2-3.6l-1-0.4l-1,0.7l-2.9,0.5l-1.9,1.3l1.5,1.3l0.1,1.2l0.8,1.5l2,0.4l2,2.4l-3,1l-1.1,0.7l-0.8-0.5l-0.2-1.2l-4.3-2.2l-0.6,0.6
      l0.7,2.4l1.3,1.6l2.2,4.3l1.3,3.7l-0.2,2.1l1,1.5l0.1,1.5l-1.7-1.2l-2.2-2.5l-0.8-1.5l-2.2,0.1l-1.3,3.3l0.2,1.9l-1.6-1.1l-0.2-2.9
      l-2.1-2.8l-0.9-0.4l-1.3-1.9l-1.5,0.6l-0.1,2.9l-0.4,1l-2.2-1.9l-2.3-3.5l-0.2-1.8l1.4-1.7l-0.3-1.2l-1.6-2.5l-2.1-1.5l-1.2-0.5
      l-0.7-1.6l-2-1.3v-1l2-1.7l1-2.6l1.9,0.5l1.4-0.2l2-2.4l1.6,0.1l3.9,2.1l4.2,1.2l2.1,1l1.2,1.1l1.6,0.3l-0.5-1.4l0.8-0.4h2.1
      l0.2-1.6l-2-0.6l-0.8,0.2l-2.4-1.4l-2.3-0.8l-2.2-1.5l-1.2,1.3h-1.2l-3.4-0.9l-2.1,0.7l-4.2,0.7l-1.1-1.3l-2.6,1l-1-0.7l-1.9-4.2
      l-1.7-1.9l-1.2-0.5l-0.2-1.9l1.5-0.2l2.4,0.9l0.9-0.6l-0.6-1.6l-2.5-0.2l-1.8,0.5l-2.8-2.2l-1.5-1.7l-2.2-1.1l-1.7-3.4l-2.6-2.6
      l2.7,0.9l0.7-0.7l0.3-1.5l0.9-0.7l-1-2.2l1.7-1.3l1.9-0.3l0.6-0.5l0.3-2l1.2-3.1l1.7-0.8l0.8-2.6l-1.1-1.8v-1.1l4.6-0.3l0.9-0.6
      l2.3,0.6l2.4-1.3l1.7-2.5l0.8-0.3l3-0.4l3.3,0.6l2.9-1l0.2-2.1l2-0.3l3,0.2l1-1l2.4-0.2l2.6,0.2l3-1.1l1.9-0.2l0.2-0.9l4.2,0.1
      l1.6-0.5l1.2,1.7l2.4,1.4l0.9-0.6l3.7,1.2l1.7,1.1l3.4-0.9l3.2-0.4l1.8,0.3l2.5-1.2l0.2-0.8l-0.9-2.7l-0.7-1l1.6-1.1l1.6,0.5
      l1.2,0.3l2.3,1.5l0.9,3.1l-3.4,2.5l0.5,4.4l-2.5,3.2L597.3,556.5L597.3,556.5z"/>
    <path id="HR" class="st0" d="M475.2,521.2l2.3,0.4l-1.1,0.9L475.2,521.2L475.2,521.2z M488.1,522.7l1.6-0.1l0.6,0.9l6.2,3.8l1.7,0.7
      l1.2,1.9l-4.8-3.1l-4.4-2.5l-3.1-0.7l-4.3-2l-0.5-0.9L488.1,522.7L488.1,522.7z M481.8,519.2l-0.8,0.1l-5.6-0.1l-1.7-0.3l-0.5-1.3
      l1.8,0.2l0.5,0.6L481.8,519.2z M476.5,516.9l-2,0.1l-2.6-0.8l0.3-1.1l4.8,0.6L476.5,516.9z M455.3,500.4l-0.3,0.4l-3.3-2.7l-0.3-1.9
      l2.8,2.7L455.3,500.4z M450.4,493.9l-1.9-0.2l0.8-1.1L450.4,493.9L450.4,493.9z M446.2,495.4l-0.9-0.1l-1.7-4.2l0.4-1.2l-0.8-2
      l0.9-0.3l0.5,2.1l1,0.9l-0.1,1.6L446.2,495.4L446.2,495.4z M449.9,490.5l-1.5,0.3l-1-1l-1.3-0.2l-1-1l1-0.7l0.5-1.2L449.9,490.5
      L449.9,490.5z M499.4,475.8l-0.7,1.5l1.6,2.7l0.2,1.6l1.3,0.4l-0.4,2l1.2,1l3,1l0.9,1.5l-2.3,0.1l-1.7,0.4l0.7,2.6l-1,1.6L500,492
      l-1.3-2.2l-1.1-0.8l-2.2-0.2l-2.6-0.7l-1.8,0.2l-1.8-0.3l-2.2,1l-1.6-1.3l-1.7,0.6l-2.8-0.7l-2.5-0.1l-2.7-1.6l-1.5,1.2l-3.2-0.3
      l-2.7,3.2l-1.8-1l-1.7-1.8l-1.8-0.4l-1.2,0.6l-0.3,5l0.1,1.4l1.9,1.3l3.4,3.2l1.3,4l2.3,2.4l2.8,2.3l1.7,2l5,4.1l2.4,1.1l0.4,2.2
      l1.5,1.6l3,2.5l-0.3,1.6l-3.5-2.8l-2.6-1.5l-3.1-2.8l-3.8-1.1l-2.7-1.2l-3.3,0.6l-1.8-0.2l-0.7-2.2l-5.8-3.9l-4.3-4l-0.8-1.3
      l3.1-1.2l-1.4-0.8l-3.9-3.4l-1.2-1.6l-0.1-4.1l-0.8-1.7l-2.9-2.2l-1.1-1.1l-2.1-0.7l-1.4,0.9l-0.3,1.9l-3,5h-1.3l-3.1-4.2l-0.5-1.9
      l-1.3-3.9l0.7-0.5l0.5,0.6l3.3,0.8l1.4-1.3l1.1,0.5l3.6-0.1l0.6-0.3l1.2-2.2l2.6,2.1l1.5,0.7l1.3-0.5l2,0.7l1.6,0.2l1.2-0.4
      l-0.8-2.3l0.7-0.7l-1-1.1l2.1-1l2.1-0.6l0.4-1.1l-0.2-2.2l-0.9-0.9l0.4-1.4l4.4-1.7l0.7-1h2v-1.7l0.9-0.8l2.5,0.6l2.9,1.2l1.7,1.2
      l0.9,1.3l2.7,1.8l2.2,2.2l1.3,0.7l2.5,0.6l1.3,1.3l3.3,0.9l4.9,0.2l2.5-0.9l1.1-1.4L499.4,475.8L499.4,475.8z"/>
    <path  id="HU" class="st0" d="M535,437.8h1.5l1.4,2.3l2.2,0.8l0.9,1.1l2.3,0.4l0.9,0.7l0.7,1.7l-2.2,2.3l-4.6,1.1l-1.9,2.4l-1.2,1
      l0.1,1.7l-1.4,1.4l-0.7,2.5l-1.4,1.5v1.2l-1.6,2.7l0.2,1.3l-2.1,1.5l-1.5,4.7l-1.3,0.9l-2.6-0.3l-2.5,2l-1.4-0.5l-3.2,0.9l-1-0.5
      l-2.8-0.3l-1.1,0.2l-2.9-0.4l-1,0.3l-1.5,1.6l-2.2,1l-1.6-0.5l-2.1,1.3l-2.9,0.4l-1.1,1.4l-2.5,0.9l-4.9-0.2l-3.3-0.9l-1.3-1.3
      l-2.5-0.6l-1.3-0.7l-2.2-2.2l-2.7-1.8l-0.9-1.3l-1.7-1.2l-2.9-1.2l-1.9-2.2l-1.4-3.3l-2.4-0.1l1.8-1.7l2.5-0.5l0.3-1.8l-1.1-1.6
      l0.5-0.7l-0.4-1.5l2.2-1.2l0.5-1.4l-0.5-1.1l-2.6-0.7l1.3-1.4l2.5,0.9l3.9-0.3l-0.7-2l0.6-1.9l0.6-0.7l2.1,0.3l4.2,2.7l1.6,0.7
      l4.7,0.1l7-0.4l0.6-1l-0.5-1.3l0.4-1l1.4-0.7l4.3-0.4l2.4-0.6l1-1.5l0.7-0.2l3.5,1.4l5-2.5l1.6-3.5l1.8-0.4l2.7,0.1l2.5,0.6l4.6-0.7
      l1.4,0.9l2.2,2.2l0.6,0.2L535,437.8L535,437.8z"/>
    <path id="IE" class="st0" d="M193.3,352l0.7,1.1l-2.2,0.4l1.5,5.2l0.6,0.9v4.1l0.9,3.2l0.1,2.5l-1.3,1.8l-0.9,2.1l-0.2,1.8l-1.6,2.1
      l-1.5,0.9l1.6,1.5l-2.8,0.8l-2.6-0.3l-1.3,0.8l-3.9,0.2l-3.7,0.7l-1.7,1.8l-2.5,0.7l-1,1l-2.3,0.8l-1.7-1.2l-1,0.2l0.2,2.1l-2.9,1.3
      l-1.8,0.3l-1,0.7l-5.8,1.4l-1.9-0.5l-3.3,0.8l-1.2-0.1l1.6-1.8l1.6-1.3l-3.8,0.6l-1.4,0.5l-0.6-0.6l3.2-1.9l-3.3,0.1l-3-0.4l-0.4-1
      l2.9-2.3l2.4-0.9l-0.1-0.9l-5.1,0.1l0.5-1.1l1.7-1l1.8-0.1l1.5,0.6l1.1-0.8l-0.6-1.7l3.9-2.3l3-0.3l3.3-0.7l3.3-0.8l-2.4-1.2
      l-2.3,1.8L155,374l-1.9-0.5H151l2.7-2l1.6-1.7l-0.8-0.7l2-2.3l3.6-1l-1.6-1.3l-3.9,0.2l-1.4-1.3l-2.6,0.1l0.4-1.2l-3.5-0.2l0.5-1
      l-0.6-1.1l2.8-0.6l-0.2-2l1.9-0.8l2-0.4l0.1-1.1l-2-0.2l-2,0.4l0.8-2.1l-0.8-1l-0.4-1.7l-0.9-1l2.8-0.2l1.2-0.5l4.7,0.1l1.9,1.3
      l1.7-1.2l4.8,0.9l0.6-2.6l3.8-1.5l1.2-2l-3.7,0.4l-3.6-1l0.7-0.8l2.1-0.7l1.9-1.6l-0.3-1.1l1.7-2.7l3.1-0.8h2.4l1.6-0.9l1.2,2l-1,1
      l0.6,0.9l1.2-0.8l-0.5-2.1l0.9-1.3l1.9-0.3l0.6-0.8l3.2,1.7l-2.5,1.5l-0.5,0.7l-1.9,0.9l-1,2.3l-1.2,1.6l-2.2,0.8l-1.6-0.1l-0.2,0.8
      l1,1.4l-2.9,0.9l-1,1.4l2.7,2l0.2,1l2.1,0.4l0.8,0.7l2.9,0.3l2.4-1.8l-0.5-0.9l1.9-1.6l1.3,0.5l1.8,2.7l1.4,0.5l-0.1,1.5h2.9
      L193.3,352L193.3,352z"/>
    <path id="IS" class="st0" d="M104.3,177.9l1.2,0.1l2.8-0.8l2.2-1.1l0.5,1.1l-2.5,2.4l2.2,0.9l2,0.3l-0.1,1.7l-1.7,1.6l0.8,0.3
      l3.5-0.5l1,2.3l1.5-0.2l2.4,0.3l1.4,1.2l1.2-0.3l0.5,0.9l-0.7,1.2l-1.5,0.6l2.1,2.9v1.1l-1,0.7h-1.3l-1,2.1l-1.2,1.1l-2,1l-2.6-0.5
      l-1.1,1.5l0.2,1.4l-1.3,1.3l-5.3,2.1H104l-2.6,0.5l-6.2,2l-4.7,2.8l-2,0.7l-3.1,0.3l-1.8,0.5l-5.9,0.8l-2,0.5l-1.2,1.1l-0.5,1.4
      l-4,1.1l-3.8,0.7l-6.4-0.5l-5.4-1.3l-4.5-0.3l-3.8-2.5l-2.9-1l-3.6-1.8l-2.3,1.1L24.9,211l-0.8-0.5l-0.2-2.1l1.1-0.8l1.3,1.2l5-1.1
      l2.7-1.9l2.5-2.7l-3.5,1.2l-0.2-1.9l-0.9-1.1l-1.7-0.8l-0.3-0.8l1.1-0.9l-2.3-1.2l-2.6,0.1l-6.6-0.5l-3.8,1l-2,0.1l-0.9-1v-1.1
      l1.5-0.3l1.8,0.1l4.1-0.6l1.4-0.6l0.8,0.5l3.6-1.1l1,0.2l4-0.2l4.4-0.1l1.1-0.8l0.4-1.1l-2.8,0.9l-3.7-0.5l-0.6-0.9l3.6-1.6l2.7-0.8
      l-0.8-1.3l-3.2,0.2l-0.7-0.8l-2.6-0.4l-1.8,0.3l-0.9-0.5l-2.4,0.6l-5.2,0.9l-3.3,0.9l-3.1-1.1l-2.4-0.2l1.4-1.4l2-0.1l1.7,0.8
      l0.1-3.2l1.2,0.3l2.8,1.1l-0.7-2.8l2.2,0.1l-2.2-1.6l0.5-1l1.6-0.3l0.8-1h2.4l2.3,1.1l0.2,1.4h2.1l1.1-0.8l0.9,0.6l0.5,1.2h1.2
      l0.4-2.2l-3.6-1.1l-0.3-1.4l3.7-0.1l-1.7-1.1l-3,0.2l-1.4-0.4l2.6-1.2h3.4l1.4,0.2l2.3,1.7l2,0.6l3.1,2.3l2.2,0.9v1.2l0.7,0.8
      l-2.3,3.4l0.9,0.7l-0.8,1.6l1.9,0.6l1,1.7l0.9-1.8l1.5-1.9l2.3-1.3l0.9,0.1l0.9,1l0.9,0.1l1.4-2l0.7-4.3l1.7-0.9l1.8,0.7l1.3,1.6
      l2.6,2.1l1.8-0.5l0.1-2.3l1-1.3l2-0.3l2.2-0.8l2.3-0.2l1.7,1.4l1.2,1.4l1.7,1.1l0.7,1.8l0.9-0.3l-0.2-1.7l-1.4-2.6l0.3-0.9l4.1,0.2
      l3,2.3l1.3-0.3l3.6-2.8l2.3,0.8l1.8,0.1l2.8-0.8l0.8-1.2l-0.9-2.3l0.6-0.4l2.6-0.6l2.7,0.1l2.6,2.1l-0.1,1L104.3,177.9L104.3,177.9z
      "/>
    <path id="IT" class="st0" d="M466.6,595.6l-1.2,2.5l-2.8,4.3l-1.5,5.1l0.3,2l1.6,1.4l-0.7,0.5l1.6,1.8l0.1,1.3l-1.8,1.9l-0.4,1.7
      l0.1,1.5L459,619l-1.4,0.3l-3.7-1.4l-1.9-2.8l-3-2h-3l-1.4-0.5l-2.9-1.9l-3-1.4l-2.6-2.1l-1.7-0.4l-1.5-1H430l-2.3-1.6l-1.3-2.3
      l1.3-3.7l1.4-0.8l0.9-1.2l2.3,2.3l1.8-0.8l1.4-1.6l2.4,0.1l0.5,0.9l1.4,0.3l2.5,1.6l1.4,0.4l3.4-1l3,0.4l2.8-0.5l1.7-0.6l1.2-1
      l1.4-0.3l3.5,0.3l2-1.2l0.8,0.2l2-1.2L466.6,595.6L466.6,595.6z M388.3,554.1l0.7,0.9l1.8,5l-0.6,1.6l-1.3,2l0.8,2.8l-0.6,11.5
      l-0.6,2.9l-0.9,0.4l-2.9-1.2l-1.5,0.3l-1.2-0.6l-0.3,3l-1.8,2.1l-3-0.2l-0.7-0.6l-2.4-3.8l-0.4-4.3l0.6-1.3v-2.5l1.1-0.1v-1.7
      l-1.8-1.2v-1.9l0.7-1.4l-0.1-2.6l-0.8-0.9l-0.8-2.3l-2.2-2.4l0.1-3.4l3.4,0.6l1.3-0.3l3.1-1.5l2.1-2.5l1.4-0.5l1.5-1.8l0.7,0.9
      l2.2,0.8l1.2,1.5l0.9,0.5l-0.7,1.4L388.3,554.1L388.3,554.1z M396.6,523.3l0.3,1.4l-2.5,0.5l-1.1-1.1l2.9-0.2L396.6,523.3
      L396.6,523.3z M434.5,466.7l-0.2,0.9l-3.3,2.3l0.7,1.4l2.3,0.7l-1.6,2.1l0.3,1l1.3,0.2l-0.4,2l1.9,1.1l1.5,1.3l0.2,1.3l-1.5,0.1
      l0.7-0.6l-2-2.2l-2,0.9l-3.2-0.9l-2.1,2l-1.5,0.4l-1.7,1.1l-3.2,1.2l-1.8-0.4l-1,0.7l-0.4,3.1l0.8,0.6l1.5,2.6l1.7,1.1l-0.7,1.9
      l-0.9,0.7l-1.3-0.5l-0.3,1.7l0.9,4.5l1.4,3.2l1.2,1.3l2.7,2.2l2.7,1.1l5.1,3.7l2.8,1.1l0.7,0.7l1.8,2.8l1.6,3.2l1.8,5.1l1.3,2.5
      l2.3,2.9l4.8,4.1l4.3,2.9l4,1.9l3,0.3l7-0.4l2.6,0.7l0.4,1.2l-0.4,0.9l-2.9,2.1v1.7l1.5,1.2l7.1,3.2l7.2,2.6l2.2,1.4l2.7,2.1
      l6.4,2.9l1.1,1.4l4,3l1.8,2.4l0.5,1.8l-1.5,4.4l-1.6-0.5l-1.9-1.3l-3.1-5.4l-5-0.5l-2.9-1.3l-0.7-1.4l-2.3-0.4l-1.3,0.9l-1.4,2
      l-1.5,3l-1.5,4.3v1.7l1.1,1.7l2.9,1l2.4,1.5l1.6,1.6l0.3,3.8l0.9,2.1l-0.9,1.3l-1.9-0.3l-2.5,0.7l-1.7,1.4l-0.7,1.4l0.5,3.4
      l-0.3,1.4l-3.3,2.5l-1.6,2.5l-1,2.3h-4.3l-1.1-1.5l-0.1-2.2l0.6-1.3l1.6-0.7l0.9-2.8l-0.5-2l1.1-1.6l2.8-0.7v-2.9l-1.4-1.3l-1.4-5.1
      l-2.4-4.3l-1.4-3.8l-1.1-1.8l-1.4-1l-3.7-0.3l-4.6-2.6l-0.3-1.1l0.6-1.1l-1.1-2.8l-2-1.7l-2.6,0.6l-1.2-0.1l-0.1-1.5l-2-1.3
      l-2.7-0.2l-0.7-0.7l-2.6-4l-1.7-1.7l-2.3,0.1l-3.9-0.9l-2,0.7l-3.2-2.6l-2.8-0.9l-5.7-5.3l-1.8-2l-3.5-2.2l-2.3-3.2l-1.8-1.2l-4-1.4
      l-0.3-1.3l-3.1-3.1l-1.7-1l-1.3-2.1l-2.5-0.5l0.1-2.7l-1.2-3.5l-1.7-2.2l-1.2-5.3l-0.8-1.5l-1.8-1.1l-4-1.2l-5.7-3.4l-1.1-0.1
      l-3.4-1.3l-2.1-0.2l-2.6,1.2l-3.1,3.2l-2.5,3.4l-0.9,0.6l-3.4,1.2l-3,0.5l-0.2-1.5l2.1-2.6l-0.3-2l-3.3,0.6l-5.1-2.4l-0.9-0.9
      l-0.1-1.4l-0.7-1.3l1.4-2.5l0.8-0.7l-0.5-1.7l-3.2-1.4l-1.5-3.1l0.8-0.4l1.9,0.2l1.7-1.3l1.2-0.3l0.8-2.5l-1.8-1.6l-1.7-2.6
      l-0.9-0.6l-0.1-1.6l2.6-1.7l1.4,0.7l2.4-0.5l2.6-1l3.1,0.8l2.4-1.4l1.6-2.2l-0.6-1.5l3.4-2.9l1,0.6l0.2,2.5l2.4,2l2.2,0.6l-0.4,1.2
      l1.3,1.2l0.9,1.4l1.2-0.7L377,475l0.2-1l2.2-2.6l0.5-1.1v-2.9l2-0.1l0.8,2.1l2,0.8l2.9-1.1l0.7,0.1l1.4,1.9l1.2-0.3l-1.5-3.5
      l0.6-1.8l1.3-0.3l1,0.9l1.9,0.2l-0.5-1.8l0.5-3.1l3,0.3l0.9,0.8l2.1,0.4l1.1-0.4l1.2-2.2l1.4-0.6l3.4-0.3l3.1,0.2l4.7-1.5v2.3
      l3.1,3.5l1.1,0.5l8.6,1.5l4,0.3L434.5,466.7L434.5,466.7z"/>
    <path id="LI" class="st0" d="M383.4,458.5l-1.2-0.1l-0.1-1.7l0.5-1.5l1.1,2.5L383.4,458.5L383.4,458.5z"/>
    <path  id="LT" class="st0" d="M571.9,328.5v1.8l-0.7,3.1l3.9,1l-1.3,1l-0.4,1.1l-3.6-0.1l-1,2L568,339l-2.6,0.6l-1.1,3l0.4,2.3
      l-1,1.5l-0.5,2l1.9,0.5l0.9,1.1v1l-2,0.2l-1.7-2.3l-1,0.7l-2.1,0.5l-1.4,1.2l-2-0.2l-0.8,2.6l-1.8-0.1l-3.3,1.3l-1.6-0.9l-3.7,0.3
      l-1.6,0.3l-2.9-0.4l-0.8-3l-1.1-0.9l-4.5-2.2l-2.3-0.7l-0.6,0.6l-1.3-2v-2.1l1-3.1l-1.3-1.3l-1.4-0.6l-0.9-1.3l-5.7-0.1l-2.4-0.6
      l-3.9-1.4l-2-1.2l-1.8,0.2l-0.6-1.2l0.2-1.6l-1.1-2.4l-1.6-2.9l-0.7-3.8l2.8-1.7l3.6-1.9l4.7-1.4l5.9,0.5l4.3-0.1l1,0.9l1.6-0.7
      l4.9,0.5l2.3,0.1l3.7,0.9l4.6-0.4l1.7-1.3l2.3-0.2l2.4,2.9l6.1,1l0.9,0.4l5.4,3.1l2.6,2.1l1.5,0.7L571.9,328.5L571.9,328.5z"/>
    <path  id="LU" class="st0" d="M339.4,411.7l0.3,2.2l1.5,1.6l2.8,1.1v1.4l-0.9,0.9l-0.6,3l-1.3-0.7l-2,0.6h-1.4l-2.1-1.2l1.1-1.7
      l-2-2.4l0.2-1.7l1.4-2.5l1.3-1.3L339.4,411.7z"/>
    <path  id="LV" class="st0" d="M575.6,301.2l1.9,0.3l0.5,1.1l3.2,1.7l0.7,2.2l-0.8,1.6l-0.3,3.1l1.8-0.3l1,0.6l0.3,1.2l1.7,2.1
      l1.3,0.8l1.9,4.2l-0.3,1.7l-1.3,0.2l-1.4,0.8l-2.5,2.4l-0.4,1.7l-3.1-0.1l-3-0.4l-1.1,0.3l-1.2,1.5l-2.6,0.6l-2.3-0.5l-1.5-0.7
      l-2.6-2.1l-5.4-3.1l-0.9-0.4l-6.1-1l-2.4-2.9l-2.3,0.2l-1.7,1.3l-4.6,0.4l-3.7-0.9l-2.3-0.1l-4.9-0.5l-1.6,0.7l-1-0.9l-4.3,0.1
      l-5.9-0.5l-4.7,1.4l-3.6,1.9l-2.8,1.7l-0.8-2.8l-0.6-5.5l0.1-2.8l1.9-1.6l0.8-1.2l0.6-4.5l2.5-3.6l2.4-0.4l3.1-1l3.5-0.9l1.4,1.9
      l4.9,3l1.2,1l2.3,3.4l4.4,1.8l3.1-0.6l3.6-2.4l1-1.1v-1.1l-1.2-4.7l-1.1-2l0.1-1.3l8.4-2.8l1.5,1l1.1-0.7l5.6,2.5l2.3,0.5l0.6,0.7
      l3.5,2.7l2.8,1.1l4-1.2l3.4,1L575.6,301.2L575.6,301.2z"/>
    <path  id="MD" class="st0" d="M615.4,483.2l-2-2.3l0.9-0.7l-1.4-5l-0.1-2.6l0.9-4.8l-0.5-2.9l-1.4-2.3l-1.4-2.9l-3-2.1l-1.3-1.7
      l-2.1-1.8l-2.5-3.2l-1.5-1.3l-3-4.9l-2.5-3l-2.5-1.6h-2.1l0.2-0.6l2.3-1.4l0.7,0.2l4,0.1l1.2-1l0.8,0.3l1.6-1l3.5,1l3.6,2.4l2.5,0.3
      l0.6,1.2l5.6,0.6l1.4,1.9l1.4,1l1.4-0.7l1.4,1.4l0.6,2.3l-0.6,3.1l0.6,1.2l2.3,1.2l2.9,2v2.4l0.9,1.9l2,1.3l2.1,0.8l1,1.6l0.2,2.9
      l2.9,1.7l-0.6,0.7l-2.9,0.4l-1.2-1.3l-1.6,0.6l-2.1-0.8l-1.9-0.2l-2.1-1l-2.5,1.6l0.5,2.1l1,1.7l-0.4,2l-2.3,1.7v1.3l-2.5,2.9
      l0.5,1.4l-0.4,1l-2,0.2L615.4,483.2L615.4,483.2z"/>
    <path  id="MK" class="st0" d="M547.8,531.8l3.3,3.2l3.4,1.8l1.7,3.3l0.9,1l-0.5,1.7v4.2l-2,0.3l-0.2,2.1l-2.9,1l-3.3-0.6l-3,0.4
      l-0.8,0.3l-1.7,2.5l-2.4,1.3l-2.3-0.6l-0.9,0.6l-4.6,0.3l-1.3-1.1l-1.6,0.2l-1.3-2.4l-1.2-1.1l-1.2-2.2l-0.2-1.9l-0.7-2l0.8-0.8
      l-0.3-2.1l0.5-2.6l1.7,0.3l0.5-0.8l0.2-2.6l3.4-1.5l1-0.1l1.6,1.2l1.5-1.9l2.1-0.4l2.2-0.3l2-0.9l1.9,0.3l2.3-0.8L547.8,531.8
      L547.8,531.8z"/>
    <path id="ME" class="st0" d="M506.4,512.9l0.4,1.2l2.6,1.7l1.9,2l3,1.6l2.1,0.5l5.3,2.9l0.1,1l-1.6,0.4l-0.2,0.7l-2,0.4l0.9,1.5
      l-0.2,1.3l-3.4,1.2l-0.8-2.1l-1.1-0.3l-3.2,5.3l-0.8,0.3l-2.5-0.2l1.6,1.9l1.7,0.8l0.3,0.6v3.1l-2.1-1.2l-0.9-1.8l-3.1-2.9l-3.5-2
      l0.1-1l-1.6,0.1l-1.2-1.9l1.1-1l0.1-0.8l-1.1-1.6l-0.6-3l0.5-0.7l1.7-0.2l-0.1-1.5l0.5-1.7l2-1.7l2.3-0.2l-1.4-2.2L506.4,512.9
      L506.4,512.9z"/>
    <path  id="NO" class="st0" d="M322,260.9l0.1,1.7l-1-0.1l-0.7-1.1l-0.2-2l0.7-0.5L322,260.9z M320.2,249.8h-1.8l0.3-1.3l0.9-0.3
      L320.2,249.8z M352.7,217.9l-2.3-0.2l-1-0.8l2.8-0.8l0.7,0.5L352.7,217.9z M356.3,213.3l-0.3-0.9l2.7-0.6l0.9,1L356.3,213.3
      L356.3,213.3z M384.3,196.7l-4.2,0.3l-0.3-1.1l2.1-0.8h1.2L384.3,196.7z M391.1,186.2l-2,0.3l0.1-1.1l1.8-0.3L391.1,186.2
      L391.1,186.2z M395.2,180.5l-0.1-1.1l1-1.2l1,0.4l-0.3,1.5L395.2,180.5L395.2,180.5z M398.3,155.6l-1.5,0.7l1.1-2.6l1.1-0.7l0.4,1.5
      L398.3,155.6z M406.8,150.4l2.3,0.2l-0.5,0.8l-1.4,0.3l-1.1,0.8l-1.9,0.2l-1.9,1l-1.6,0.3l-0.4-1.2l0.9-1h1.3l1-1.2L406.8,150.4
      L406.8,150.4z M419.2,141.4l2.2,2.1l-0.3,1.5l-1.2,0.7l-3.3,0.1l-1.6-0.9l-2.2,0.6l-1.6-1.1l1.6-1.4l2.6,0.4l0.5-1.7l1.7,0.3
      l0.4-1.5L419.2,141.4L419.2,141.4z M425.5,146.4l1.3-1.1l1.5-0.4l0.6-2.2l1.8-0.5l1.6,1l0.9,1.2l-0.2,1.1l-3.1,1.2l-2.5,2l-1.6-0.2
      l-0.7,0.7l-2.4,0.6l-1.7-0.9l-0.9,0.9l-1.4,0.4l-1.2-0.4l-2.9,1.5l-2.8,0.3l-1-1.1l3.1-1.9l5.1-0.6l2.9-2.3l0.4-2.5l0.6-0.9
      l-1.3-0.6l0.2-1.7l2.4-1.7l1.3-1.4l1.5-0.3l0.9,1.1l-1.1,1.4l-1.6,1.2l1.1,1.5l0.6,2.4L425.5,146.4L425.5,146.4z M441,132.7l1.4,0.8
      l1.5-0.3l2.3,0.7l1,1.5l-1.2,0.9l0.4,1.7l-3.8,0.5l-0.9-0.5l-1.5,0.9l-1.4,1.4l-2.2-0.6l0.2-1.6l-0.3-2.3l0.7-0.5l2.9,0.3l-0.4-2
      L441,132.7L441,132.7z M565,130.1l-1.8,0.4l0.2-1.8L565,130.1L565,130.1z M472.6,126.3l-1.3,0.4l-1.8-0.3l-0.7-1l2.2-1l1.7,0.3
      L472.6,126.3L472.6,126.3z M457.5,126.6l1,0.7l1.5-0.5l1.1,1l-1.4,0.8l-0.8,1.2l-2,0.1l-2.9,2.3l-0.1,0.8l-5,0.5l-1.5-0.3l1.7-2.7
      h1.7l1.7-0.8l-0.3-0.8l2.5-2l0.6-1.7l1.4-1C456.7,124.2,457.5,126.6,457.5,126.6z M462.3,124.6l1.4,0.2l1.3,1.6h-2.3l-2-1.8
      C460.7,124.6,462.3,124.6,462.3,124.6z M499.6,120.3l0.5,1.1l-3.3,2.1l-1.6,0.1l-2.1-1.2l0.1-0.8l1.9-0.9l0.9,0.1l2.7-1.4
      L499.6,120.3L499.6,120.3z M503.5,120l-1.8,0.5l-1.7-0.9l-0.2-1.6l0.8-0.3l3.2,1.2C503.8,118.9,503.5,120,503.5,120z M497.1,116.8
      l-0.4,0.8l-2.7,2.1l-2.2,0.7l-1.8-0.3l-0.8,0.6h-2l-2-0.6l-2-1.2l3.5-0.1l0.6-0.5h1.5l2.8-0.4l1.1,0.3l2.1-1.4H497.1L497.1,116.8z
      M557.7,140.3L556,139v-0.7l3.2-2.9l0.7-1l-2.6-2.7l-3.6-0.8l-4.2-1.1l-4.2-2l-1.8-1.2l-2.9,0.3l-3.5,1.6l-0.9,0.2l-3.8-0.4
      l-2.1,0.2l-1.7,1.8L526,132l-0.7,3.8l-0.6,1.7l0.7,3.2l-1.5,1.4l-2.1,0.3l-1.6,1.3l-0.5,1.7l-1.3,0.6l-2.6-0.8l-3.9-0.8l-3.6-1.1
      l-1.5-0.1l-1.2,1.2l-3.7,0.9l-1.8,0.1l-0.8-0.5l-6.9-0.6l-1.4-1.8l-7.9-5.5h-3.6l-1.9,1.1l1,1.4l-0.5,0.6l-1.9-0.4h-2.1l-0.5,0.4
      l-5.1,0.2l2.6,1.6l0.1,2l-1.4,1.9l-1.6,0.9l2.9,0.9l-2.5,1.6l-1-0.1l-8.6-1.7l-2.9-0.1l-4.1-0.9l-2.1,0.5v0.8l0.8,3.6l-2.1,3.1
      l-6.3-1.8l-1.5,0.9l-3.7,1.9l-1.5,3.5l-1.1,1.1l-2.7,0.6l-0.5,1.1l2.7,2.3l1,1.3l-0.2,1.4l-1.5,1l-3.3,2.9l-3,2.9l-1.3,0.9l1,2.5
      l-3.3,1.5l-2.4,0.5l-3.8,0.4l1.4,3.9l-0.6,2.7l-0.1,4.7l-3.3,5l-4.4,5l4.7,1.6l1.1,2.9l0.1,1.2l-1.7,2.2l-7.1-0.9L404,208l-3.3,1.5
      l-3.5,3.8l-1.2,1l0.5,1.5l-2,2.8l2.7,4.1l-1.1,1.1l0.6,2.8l-0.1,1.8l2.5,4.4v1.6l-0.9,6.4l3.8,2.1l1.2,0.4l3.4,2.7l-0.4,1.9
      l-1.3,2.5h-2.4l-1.8,0.6l0.3,1.6l3.1,4.9l0.5,1.4L404,261l-0.1,2.8l-1.9,2l-1.3,0.8l-2.6,0.7l-0.9,2.4l-1.5,1.5l1.6,4.4l-0.6,3.9
      l-0.7,1.4l-1.9,0.2l-1-1.8l-0.4-1l-6-1.2l-2.3-2.9l-0.4-3.1l-2.5,1.2l0.6,1.1v2.3l-2.5,3.9l-1.1-0.2l-1.3,0.8l-1.3,0.2l-0.6-1
      l-1.1,0.2l-0.8,1l-3.4,1.3l1,0.7l-1.7,1l-0.6,0.9L366,286l-4.3,3.9l-2.3,1.1l-1.6,1.2h-1.4l-1.8,0.9L350,294l-3.1-0.4l-2.1,0.4
      l-1.1-0.7v-1.1l-1.2-0.1l-0.8,1.2l-1.6-0.4l0.7-2.4l-3.1-0.1l-3.8-1.6L333,288l-3.1-1.3l-1.4-1.4l-0.8-1.6l0.3-3.6l0.6-0.5l2.7,0.8
      l2.8,1.3l-0.1-1.2l-2.4-1.6l0.8-1.8l-0.2-1.6l2.6-2.1l-0.4-0.7l-3.4,2l-3.1,0.9l-1.1,1.2l-1.1,0.6h-2.1l-0.5-0.9l0.5-3.3l1.2-2.7
      l1.8-1l3.4,0.7l1-1l1.3-0.2l2.4-1.2l-4.1,0.5l-1.2-1l2.8-2.4l1.2-1.4l0.3-1.5l2.2-1.7l1.8-0.8l1.6,0.6l1.5-1.9l-5,1.1l-2,1.1
      l-2.7,2.8l-0.2,1.1l-2,0.9l-1.5,1.5l-0.6,1.2l-2.8,1.9l-1.4,0.3v-2.4l1.1-2l-0.3-1.6l3.2,0.2l1.8-1.2h-2.7l-1.4-0.7l-1.2-1.5
      l-0.6-1.9l1.1-1.8l-2.2-2l-0.5-2.2l-0.1-2.5l0.9-0.5l2.1,0.4l2.4-0.2l5.2-0.9l3.4,0.6l1.4-0.1l2-0.7l1.9-0.1l2.2,1.2l0.7-0.5
      l5.4-1.2l-3-1.5l0.1,1.4l-3.6,0.3l-3.2-0.6l-1.3-0.6l-0.5,1.3l-1.1,0.3l-3.4-0.5l-4.7,0.3l-2.1,0.7l-1.4-0.1l-2.5-1.2l-0.9-0.9
      l-0.3-2.6l2.8-0.3l-1.9-2.3l-1.9-1.3l-0.2-1.4l0.7-1.3l1.5,0.2l3.8-0.1l6,1.5l4.9-0.3l-0.8-0.6h-2.9l-7.2-1.3l-2.2,0.1l-1.2-0.3
      l-0.7-1l0.4-1.9l1.1-0.4l1.2,0.6l1.9-2.3l1.9-1l2-0.5l2,1l1.3-0.1l4-0.8l-1.3-0.5l-3.5,0.5l-0.2-0.5l2.4-2.3l4.2-0.4l5.9,0.5
      l2.3,0.8l0.4-1.8l5.3-1.4l-6.8,0.8l-1.8-0.5l-4.9,0.7l-0.1-1.3l2.3-2.3l4.1-0.9l1.9-1.1l3.1-0.2l2.6,0.3l1.2,1.3l4.4,1.7l-5.1-4
      l1.1-1.7l3.3-0.4v-1.6l-2.2-0.3v-1.2l1.9-0.9l2.8-0.7l3.2,0.8l-0.6,1.3l0.9,0.5l1.7-1.5l3.9-0.8l2.8,2.1l0.5,1.1l1.1-0.5l2.7-0.5
      l2.7,0.3l1.8-0.2l-1-1.3l0.4-1l2.4-1l1.7-0.3l2.6-1.2l-0.8-1l-1.4-0.3l2.9-1.5l-1.7-0.6l-2.4,0.9l-1.6,0.9l1.5,1l-1.1,1.1l-6.1,2.8
      l-3,0.8l-1.4-0.1l-1.9-2.5l-2.1-0.1l1.3-2.2l1.6-0.8l1.4-2.3l2.3-1.3l3.2-3.3l2.8-1.1l0.9-1.1l3-1.5l3-0.9l0.3-1l-2.7,0.9l0.4-2.1
      l1.4-1l6.8-2.8l1.6,1.3l2.1-0.2l2.3-1.6l-0.3-0.7l-2.1,1h-1.5l-0.4-0.6l-2.1-0.5l-0.3-1.2l1.3-2.8l3.4-3.3l0.5-1.3l1.3-0.7l1.7,0.2
      l-0.2-1.1l-2.1-1.1l6.2-1.1h3l2.4-0.9l0.5-1l-6.4,1.1l-2.4,0.1l-0.8-2.7l0.2-1.5l1.9-2.2l1.4-0.2l1.7-1.1l0.1-1.5l2.3-0.8l2.1-2.1
      l2.3-0.5l1.4,0.2l3-0.7l6.6-0.1l0.1-0.6l-6.3-0.3l-3.5,0.2l-0.4-0.6l2.8-2.7l2-1l1.7,0.2l1.8,1l0.6-0.8l-1.6-1.5l0.7-1.5l-2.6,1.1
      l-1.8,0.3l-0.9-2l2.3-2h2.3l0.3-1.5l3.3-1.3l1.9-0.2l1.5-0.6l0.6,0.4l0.9,2.3l1.5,0.3l1-0.8l-1.3-1.1l-1.1-1.8l2-1.5l2.3-0.2
      l2.6,0.7l2.3-0.2l0.9-1.2l-6.3-0.1l-0.8-0.9l1.2-1.2l2.2-0.8l2.5-0.1l2.4-1.4l0.9-1.1l0.3-1.6l1.4-1.3l3.9-0.8l-0.6-2.2l0.8-1.4
      l1-0.6l2.1,1.5l1.8,0.5l-0.5-1.4l0.3-1.2h2.1l1-0.5l0.3-1.3l1.4-1.2l4.7-0.7l0.5,2.5l0.7,1.4l0.8-2.8l1.6-2.1l2.4-0.9l0.9,1.1
      l-0.4,4.3l-1.9,2.4l1.5-0.2l2.5-2.3l0.6-1.2l-0.7-2.8l0.6-0.8l3.5-0.1l1.9,0.4l0.7-1.5l1.7-0.1l1.8,0.9l4.1,1.4l-1.3-2.2l-1-0.8
      l-2.1-0.5l-2.2-1l1.2-1l2.4,0.3l2-0.8l2.2-0.2l1.1,0.6l0.8-1l2.5-0.5l2.8,0.9l1.6,2.7l2.4,1.4l-0.1-1.4l0.6-1.9l2.3-2l2.1-1l1.4-0.1
      l2.9-3.4l-1.6-1l3.3-2.3l1.1-0.1l5.4,2.1l1.5-0.9l3.4,0.8l-0.8,1l-3.1,2.9l-0.5,0.8l-0.1,2.2l-1.2,1.4l0.8,1.4l1.6-0.4l1.8-1.3
      l0.1-1.3l4.3-3.7l1.9-2.1l2.3-1.7l1.5-0.3l0.9,1.1l-0.2,1.5l0.2,4.3l3.7-1.4l1.1-3l1.1-0.7l-0.8-1.4l0.4-1.1l2.3-1.3l2.2,0.4
      l3.3,0.3l2.7,0.8l0.2,1.4l-0.8,0.9l-2.9,1.1l0.7,0.7l2-0.6l0.9,5.5l0.9-2.1l1-0.7l0.1-1.5l0.8-1.9l1.8-1.3h2.7l3.3,1.7l2.5,0.3
      l1.8,0.8l2.4-0.7l2,1l0.1,1l3.8,0.3l3.8,1.6l0.6,1.6l-4.4,1l-1.8,1l-3.3,0.4l-11.5-0.7l0.4,0.7l8.3,1.5l0.6,0.5l0.4,2.1l1.8,0.7
      l3.5-0.2v-1.3l3.2,0.6l3.8,0.2l1.1,1.7l-0.3,1.5l-2.4,0.1l-4.2-1.4l-0.4,2.3l-1.1,0.9l-5.8,1.3l-1.1,2.6L557.7,140.3L557.7,140.3z
      M517.2,112.6l3.7,0.5l2.2,1.4l-3.6,0.5l-1.7-0.1l-2-1.8L517.2,112.6L517.2,112.6z M177.6,116.5l-0.1-1l4.5-1.5l1.9-1.4l3.4-0.5
      l-0.2,1.8l-3,0.8l-3.3,0.5L177.6,116.5L177.6,116.5z M446.8,71.5l-1,0.5l-1.9-0.8l-0.8-1.2l3-0.1L446.8,71.5z M456.4,21.4l3.9,0.2
      l2,1.9l1.4,2l1.3,0.2l4.7-0.4l3.4,0.7l-1.4,1.1v1.2l5.5,1.3l1.8,0.1l3-0.4l6.5,1.7l-6.6,1.1l-2,1.9l-3.7,1.3h-2.6l-2.3,1.3l-2.2,0.1
      l-1.5-1.9l2.2-1.3l-3.1-0.4l-1.2,0.5l-10.5,1l-1.1-0.2l-0.9-1.2l2.8-0.6l0.2-1.1l2.5-2.4l-5.5-1.6l-2-1.2l-0.8-1l-2.5-0.9v-1
      l-1.7,0.1l-0.4-1.2L456.4,21.4L456.4,21.4z M502.6,20.8h-1.3l-2.6-0.8l0.7-1L502.6,20.8L502.6,20.8z M365,21.2l3.5,1.5l1.9,0.5
      l2.3,1.5l-0.7,0.9l-2-1.2l-3.6-1.3l-2.3-0.2l-3.3-2.5l-1.5-0.8l-0.8-1.7l3.6,0.7l1.6,1l-0.3,0.8L365,21.2L365,21.2z M520.6,17.8
      l2.7,0.1l-0.1,0.6l-7.3-0.4l-3.8,0.7l0.4-0.9l2.4-0.6l3.7-0.1L520.6,17.8L520.6,17.8z M410.7,7l1.4-0.6l5.4,0.8l2.5,0.9l1.3,1
      l-1.9,1.9l1.7,1l3.2-1.7l2.7,0.3l1.7,0.9l1,1.1l-0.2,1.4l3.1,1.1l3.4-0.2l2.4,0.3l1.5,1l1.9-0.2l0.2-0.8l2.6,0.2l3,0.8l-2.1,0.9
      l2.1,0.8l3.4,0.6l2.1,0.6l-1.5,1.4h-3.2l-2.9,0.3l-5.4,0.3l-3,1.6l-2.5,1.8l-0.4,1.6l0.6,1.1l-1.5,0.5l-3.3,0.2l0.2,3.9l-0.8,1.9
      l-3.3,0.3l-1.8,1.1l-1.2,2.1l-2.1,2l1,1l-2.1,1.9l1.2,1.8l-1,0.6l-2.1,0.3l-2.2-0.3l-2.3-1.1l-6.7-2.2l-4.3-2.4l-6-1.3l-3.3-1.6
      l-1.5-1.3l0.3-1.4l2.8-0.2l2.9,0.7l1.7-1.9l11.3-1.1l7.3-0.2l-1.9-1.3l-6.9,0.7l-4.3-0.2l-2.1,0.1l-2.1,0.6l-4.3,0.5l-4.6-0.1
      l-2.9-1l-1.3-2l1.2-0.6l3.8,0.1l6.4-0.9l3-0.8l3.1-0.1l-0.5-0.8l1.8-0.4l2.4-0.2l5.6,0.1l0.2-0.6L412,23l-0.9-0.6l2.6-1.8l-2.2,0.1
      l-3,1.3l-1.8,0.5l-4.6,0.3l-1.7-1.6l0.9-1.2l-0.8-0.7l-1.3,1.3l-2.1,0.3l-2-0.9l-1.9,0.5l0.7,1l-0.6,1l2,0.9L393,24l-2.1,1.1
      l-3.9,0.2l-4.5,0.1l-4.6-1.6l-2.2-1.2l-1.8-1.2l-2.7-0.6l-1.7-0.8l-0.4-1.1l-1.4-0.7L367,17h4.4l-1.7-1.8l0.5-1.6l-3.4,0.1l0.4,0.9
      l-2.2,1l-1.2-0.2l-2.3-1.9l-2.4-2.4l0.4-1.3l-1.2-1l1.5-0.7l2.5,0.9l0.8-0.7l3.8-0.4l4.6,1.1l0.4-1.1l4.2,0.5l3-0.6l5-0.3l2,0.4
      l-1,1.1l-6.3,0.3l-4,1.3l5.7-0.2l1,0.1l0.6,1.1l3,0.5l2.3,1l0.8-0.5l-0.6-2.2l4.4-2.3l2.1,0.4l2.1,0.9l4,3l2.3,1.9l6.1,2.8l-0.7-1.5
      l-4.2-4.5l-0.9-1.7l0.9-1.7l1.1-0.5l-0.4-1.3l1.3-0.5l2.4,0.3C408.1,5.7,410.7,7,410.7,7z M545.4,4.7l-8,0.4l-0.9-0.3l15.7-1.4
      l1.7,0.5L545.4,4.7z M426.5,2.8l-1.8,0.6l-3.2-0.5l0.9-0.7L426.5,2.8z M445.1,3.3l5.6,0.1l1.5,0.9l5.5,1.1l0.8-1.5l-0.6-2.2l1.9-0.1
      l1.7-0.6l3.1,0.3l0.2,1.3L464.3,4l2.1,0.1l2.8-0.3l1.9-1.1l2.4,0.1l1.3-0.6l1.4,0.6l8.2,0.7l3.3,0.6h5.2l3.7,0.2l2.8,1l1.1,1.7
      l-0.9,0.4l-6.7,2l-1.6,0.7l-2.4,2.3l-4.1,0.7l-3.5-0.3l-3,0.7l-1.9,1l-1.5,0.2l-9.2-0.4l-2.2-1.1l1.2-0.9l-8.2,0.3l-9.2-0.1l-1-0.5
      l-5.6-0.5l-4.2-1.1l1.1-0.5h5.8l-0.7-1.5l-2.9-0.1L438,8.7l-4.3,0.2l-4-0.1l-1.9-0.3l-3.8-1l-0.7-0.8l2.8-0.4l2.1-0.7l-4.5-0.3
      L421.8,5l-0.6-0.9l5.9-0.2l5,0.8l-0.7-2.2l3.9,1.1l0.2-1.1l-2-1.4l2-0.1l4.5,0.7L445.1,3.3L445.1,3.3z"/>
    <path id="PL" class="st0" d="M530.8,348l0.6-0.6l2.3,0.7l4.5,2.2l1.1,0.9l0.8,3l2.1,5.1l2.9,4.9l1.7,3.6l0.9,3.9l-0.6,1.6l-4,1.7
      l-0.8,0.5l-2,2.7v1.2l3.3,1.3l1.8,1l0.8,1l-0.2,2.4l0.4,1.1l-0.8,1.5l0.1,1.3l1,1.6l1.2,1.8v1.3l2.7,2.8l1.9,2.8l1.4,1l-1.2,1.3
      l1.8,2.6l0.1,1.3l-1.2,1.8l-3,0.5l-4.8,4.6l-2.4,2.7l-3.4,4.4l-0.6,1l1.5,3.8l-0.1,1.8l1.9,1.4l-0.4,0.9l-3.3-0.7l-0.9-0.2l-5.7-1.9
      l-0.8-1.4l-1-0.7l-3.1-1l-3.6-0.3l-3.2,0.2l-1.4,1.5l-1.8-0.1l-2.4-1l-3,0.1l-2.3,1l-1.1,2.1l-1.7-0.6l-1.4,0.4l-0.6-2.7l-1.4-0.4
      l-3-3l-2.2,1.3l-1,1.7H495l-0.5-1.5l-1.3-0.2l-0.5-1.6l-2.8-2.2l-0.5-1.8l-2.7-0.8l-0.5,0.2l-3.5-1.8l-1.8,1l-1-0.6l-2.7-2.3
      l1.4-0.5V409l-3.6,0.7l-3.3-1.9l-2.2-0.6h-1.3l1.7,2.4l-3.5,2.5l-1-0.4l-1.5-1.9l-2-1.8l-1.6-0.9l1.6-1.2l0.7-1.1l-1.8-1.2l-3.2,0.7
      l-0.8-0.9l-2.7-1.1l-4.6-1.1l-1-1.1l-0.3-1.1l-3.3-0.8l0.1,1.9l-2.1,0.4l1.6-3.6l0.4-2.3l-1.6-3.2l-2.2-0.9v-1.6l-1.9-3.1l0.8-1.1
      l0.7-2.6l-0.8-1.9l-2-2.3l0.6-2.6l-1.4-1.7l-3.3-2.1l-1.6-1.4l0.7-1.6l1.9-1.8l0.3-2.7l-1.8-4.1l-0.7-2.6l2.8,0.9l0.7-0.5l-0.1-1.8
      l-4.1-0.7l-0.1-1.2l2,0.4l3.8-1.4l6.5-1.8l6.9-1.7l3.3-0.5l2-2.2l1.9-1.7l3.8-0.7l1.3-0.8l2.8-1.2l6.6-1.2l5.5-0.4l5.4,2.3l-0.9,0.3
      l-3-1.2l2.2,3.5l1.1,1.2l2,0.9l1.7,0.3l4.9-0.5l2.2-1.1l0.5,0.1l6.6,0.4l22.9,0.9L530.8,348L530.8,348z"/>
    <path  id="PT" class="st0" d="M170,611.9l-1.2,0.2l-4.5,2.5H163l-2.5-1.1l-4.5-0.4l-1.5-0.3l-1.8,0.7h-1.5l-1.1,1l-0.8-0.3l1-2.1
      l1.6-4.1v-2.6l0.4-2.2l-0.3-2.1l-0.7-1.4l1.1-3.5v-1.8l-0.9-2.3l2.8,0.3l-1.7-1.4h-1.5l-2.3,0.9l-1.5,0.1l0.1-1.4l-0.5-1.8l2-0.6
      l1.6-1.7l-0.3-1.6L149,586l-0.6,1.4l-2.8,0.7l-1.5-0.5v-1.9l0.6-1.7l0.4-2.3l0.8-2.2l-0.2-1.4l1.6-1.3l1.4-1.9l4.3-8.9l-0.6-1
      l1.7-6.6l1.2-2.3l0.6-4.3l-0.2-2l-0.7-2l-0.7-4.3v-1.4l-0.9-1.8l0.1-1l1.4-1.7l1.2-1.1l1.9-0.9l4.1-1l1,1.8l-1.3,1.9l0.9,1.3l3-1.1
      l2.9-0.1l2.2,0.8h1.4l2.5-0.9l0.8-1.4l1.5,0.5l5.2,0.1l0.7,1.1l0.1,3.1l1.9,0.2l1.9,0.9l0.3,1.1l-2.5,2.5l-2.1,1.1l-1.6,1.4
      l-1.1,1.6l-2,1.6l0.8,2l0.4,3.5l-0.4,3.8l0.4,1.1l-2.7,2.1l-0.2,1l1.4,1.3v1.9l-1.7,3.5l-1,0.5h-4.3l-1.1,0.3l1.1,1.9l1.4,1.2
      l0.3,1.9l1.6,3.2l1.7,0.4l0.5,0.8l-0.6,2.4l-3.2,3l-0.9,4l3,4.3l1.7-0.2l-0.7,2.4l-2.1,0.6l-3.5,4.3l-0.8,2.2L170,611.9L170,611.9z"
      />
    <path  id="RO" class="st0" d="M615.4,483.2l1.5,1.6l1.8,0.9l4,0.9l0.6-1.2l0.9,0.3l1.6-0.5l2.2-1.3l2.2-0.2l2.2,0.7l1.9,1.8l-0.2,4.3
      l-0.7,2.1l-6.2,1.3l0.4-0.6l-0.7-2l-1-1l-0.9,1.1l0.6,1.7l-0.7,1.4l-0.2,2.4l0.6,0.9l-1.6,2l-0.5,1.3l0.8,4.8l-0.4,3.7h-2l-2.6-0.5
      l-2.2-0.7l-2.5-2.6l-1.7,0.5l-0.9-0.6l-3.2-0.4L604,503l-2.9,0.4l-4.4,0.9l-3.2,1.2l-3.3,2.1l-1.2,1.6l-1.6,0.9l-2.3,0.6l-4.2-0.2
      l-9.4-1.7l-2.5,0.5l-3.5-0.4l-5.3-1l-3.9-0.3l-3.7,0.6l-0.9-1.8l1.8-2l-4.3-2.5l-0.8-1.2l-1.6-0.9l-0.5-1.7l2.5-1.8l-3-1.6l-1.7,0.5
      l-1.7,1.8l-1.3,0.2l-1-1.2l-1.5-0.7l-3.5-0.7l-1.5-1.2l-2.1-0.6l0.2-0.6l1.8-0.8l-2.3-1.1l1.5-2l-0.9-1.1l-2.6-0.8l-3.8-1.9
      l-2.2-1.8l-0.4-4.1l-0.8,0.2l-1.8-2l-2.9-1.7l-1.7-2l3.2-0.9l1.4,0.5l2.5-2l2.6,0.3l1.3-0.9l1.5-4.7l2.1-1.5l-0.2-1.3l1.6-2.7v-1.2
      l1.4-1.5l0.7-2.5l1.4-1.4l-0.1-1.7l1.2-1l1.9-2.4l4.6-1.1l2.2-2.3l2.1-0.9l0.9-1.2h0.7l2.7,1.5l2.7-0.1l6.9,1.4l3.6-0.7l1.2,0.3
      l4.3,3.3l2.1-0.5l1-1.2l3.4-1.3l8.4-1.2l1.1-1.9l0.2-1.4l3.7-0.8h2.1l2.5,1.6l2.5,3l3,4.9l1.5,1.3l2.5,3.2l2.1,1.8l1.3,1.7l3,2.1
      l1.4,2.9l1.4,2.3l0.5,2.9l-0.9,4.8l0.1,2.6l1.4,5l-0.9,0.7L615.4,483.2L615.4,483.2z"/>
    <path  id="RS" class="st0" d="M515.6,473.1l1.7,2l2.9,1.7l1.8,2l0.8-0.2l0.4,4.1l2.2,1.8l3.8,1.9l2.6,0.8l0.9,1.1l-1.5,2l2.3,1.1
      l-1.8,0.8l-0.2,0.6l2.1,0.6l1.5,1.2l3.5,0.7l1.5,0.7l1,1.2l1.3-0.2l1.7-1.8l1.7-0.5l3,1.6l-2.5,1.8l0.5,1.7l1.6,0.9l0.8,1.2
      l-0.9,0.7l-0.2,1.9l-2.1,1l-0.4,2.3l0.6,2.4l2.4,3.9l2.9,1.5l1.3,1.6l1.6,1l-0.3,1.4l-1.6,1.7l-1.1,1.6l-1.8,0.1l-1.1,0.6v3.3
      l1.4,2.9l-1.1,1.7l-1,0.3l-1.4-0.7l-2.3,0.8l-1.9-0.3l-2,0.9l-2.2,0.3l-0.6-1.3l1-0.9l1.2-3.2l0.2-1.2l-4.7-1.2v-1.3l-2.2-1.2
      l-0.2-0.7l-2.3-2.1l-2.8-1.3l-1.1-1.3l-1.7,0.9l0.6,1.6l-0.4,1l-1.7,1.3v1.4l-1.5,0.5l-0.1-1l-5.3-2.9l-2.1-0.5l-3-1.6l-1.9-2
      l-2.6-1.7l-0.4-1.2l0.7-0.8l2.5,0.3l0.2-2.2l-3.2-3.7l0.5-0.8l3.1,0.1l0.3-0.8l-3.3-2.9l-2.4-1.2l-0.5-0.8l0.1-2.6l1.6-2.7l0.5-2.5
      l-1.5-0.8l-2.8,0.7l1-1.6l-0.7-2.6l1.7-0.4l2.3-0.1l-0.9-1.5l-3-1l-1.2-1l0.4-2l-1.3-0.4l-0.2-1.6l-1.6-2.7l0.7-1.5l2.1-1.3l1.6,0.5
      l2.2-1l1.5-1.6l1-0.3l2.9,0.4l1.1-0.2l2.8,0.3L515.6,473.1L515.6,473.1z"/>
    <path  id="SK" class="st0" d="M538.8,427.7l-1.5,3l-0.8,2.9l-1.6,1.7l0.1,2.5l-4.3,1.1l-0.6-0.2l-2.2-2.2l-1.4-0.9l-4.6,0.7l-2.5-0.6
      l-2.7-0.1l-1.8,0.4l-1.6,3.5l-5,2.5l-3.5-1.4l-0.7,0.2l-1,1.5l-2.4,0.6l-4.3,0.4L495,444l-0.4,1l0.5,1.3l-0.6,1l-7,0.4l-4.7-0.1
      l-1.6-0.7l-4.2-2.7l-2.1-0.3l-2.3-2.9l-1.6-2.9l-0.1-0.8l0.9-2.4l1.1-2.8l1.4-1.2l3.6,0.5l1.7-0.2l1.5-0.7l2.1-1.9l1.6-0.8l0.7-3
      l2.3-1.2l0.6-0.8l2-1.5l2.8-0.3l1.3,0.2l0.5,1.5h2.2l1-1.7l2.2-1.3l3,3l1.4,0.4l0.6,2.7l1.4-0.4l1.7,0.6l1.1-2.1l2.3-1l3-0.1l2.4,1
      l1.8,0.1l1.4-1.5l3.2-0.2l3.6,0.3l3.1,1l1,0.7l0.8,1.4l5.7,1.9L538.8,427.7L538.8,427.7z"/>
    <path  id="SI" class="st0" d="M469.2,467.1l-2.5-0.6l-0.9,0.8v1.7h-2l-0.7,1l-4.4,1.7l-0.4,1.4l0.9,0.9l0.2,2.2l-0.4,1.1l-2.1,0.6
      l-2.1,1l1,1.1l-0.7,0.7l0.8,2.3l-1.2,0.4l-1.6-0.2l-2-0.7l-1.3,0.5l-1.5-0.7l-2.6-2.1l-1.2,2.2l-0.6,0.3l-3.6,0.1l-1.1-0.5l-1.4,1.3
      l-3.3-0.8l-0.5-0.6l1.7-1.1l1.5-0.1l-0.2-1.3l-1.5-1.3l-1.9-1.1l0.4-2l-1.3-0.2l-0.3-1l1.6-2.1l-2.3-0.7l-0.7-1.4l3.3-2.3l0.2-0.9
      l5,0.9l5,0.7l3-1.2l1-1.3l1.9-0.7l2.6-0.2l2.8,0.2l2.3-1.1l1.6-0.2l2.4,0.5l0.1-1.9l1.3-0.9l2.4,0.1l1.4,3.3L469.2,467.1
      L469.2,467.1z"/>
    <path id="SE" class="st0" d="M455.1,319.4l-1.5-0.3l-0.3-3.8l2-4.6l1-0.3l2.7-6.5l0.5,2l-1.5,3.2l-0.3,2.2l-0.6,0.5L455.1,319.4
      L455.1,319.4z M481.3,296.7l-1.3,1.4l-1.4,0.5l0.1,3.3l1.5,1.2l-1.3,0.5l-0.7,1.8l-1.8,0.6l-1.5,1.6l-0.3,1.6l-2.1,0.9l1.2-2.4
      l-0.9-0.7l-1.4-2.1l0.4-0.9l-0.6-3.2l2.7-2.9l1.3-1.1l3.3-1h1.3L481.3,296.7L481.3,296.7z M518.1,183.7l-2.7,0.3l-2.2-0.6l-1,0.3
      l-3.8,0.3l-1.1,0.7l-2.1-0.7l-2-1.2l-2,1.1l-1.6-1l-1,1.9l0.1,1.8l-1.8-0.2l0.3,1.1l-2,1.5l-3.2,0.2l0.7,1.5l-0.9,0.7l1,1.7
      l-1.3,1.5l-2.1,1.9l-0.5,1l1.7,1.1l1.6,2.5l1.6,1.1l-0.4,1.2l-2.1,1.1l-2.2,1.7l-2,4.3l-3.1,1.3l-2.4,1.6l-3,0.7l-2.4,2.2l-1.8-0.8
      l-1.5,0.5l-1,1.8l-1.9,1.5l-2.4-0.2l0.2,0.8l-2.3,0.3l-1,4l-2.2,0.6l-0.7,0.8l-0.9-0.6l-2.1,0.1l1.6,2.8l-1.7,1.8h-1.2l-1.5,0.7
      l-1.9-0.8l-0.2,1.2l0.8,1.3l1.3,1l-0.1,1.3l-0.9,4.3l0.7,1.8l-2.1,1.2l-0.8,1.1l0.6,1.7l-0.1,1.1l0.7,1.9l0.8,4.2l1.1,2l-0.1,1.6
      l1.3,0.9l2.1-0.1l1.4,1.6l3.1-0.8l0.8,1.1l2.9,2.2l1.7,0.3l1.9,1.2v1.5l2.9,1l1.9,2l0.8,1.6l-0.1,1l-2.6,1.5l-1.3,1.3l-3.8,2.1
      l-0.6-0.1l-2.1,1l2,0.6l1.4-0.7l2.6-0.6l1.4,1.2l-2.2,0.5l-0.3,1.6l-0.8,1l-2,0.7l-2.8,1.5l-4,1.4l-1.1,1.2l-2.6,1l-1.3,0.8h-3.8
      l-3.7-0.1l1,0.9l0.9-0.2l3.6,0.4l1.7,1.3l-3,0.9l1.7,3.2l-0.7,0.8l0.4,3.5l-1.1,0.1l-0.3,1.4l0.6,2.5l1,2.1l-0.1,1l-1.5,2.4l0.9,2.9
      l-1.5,5.3l-1.9,3.1l-1.3,4.1l-1.8,1.4l-2.4-0.9l-3.4,0.5l-3.2-0.3l-3,0.2l-0.8,0.4l0.7,1.4l-2.3-0.2l-1.7,1.1l-2,2.1v1.5l1.9,3
      l-1.7,2h-1.1l-3.2-0.5l-5.5,1.2l-5.1-1l0.5-1l0.2-3.1l-0.6-1.7l-1.3-1.1l-3.1-3.8l-1.2-2.3l2.4,0.9l1-0.5l-1.8-2.6l2.2-0.1l0.7-1
      l-0.6-1.5l-1.9-0.6l-1.9-2.4l-1.8-1.2l-3.5-4.7l-1.3-3.2l-1.1,0.3l-1.2-3.7l-1.7-0.6l-0.6-3.7l-1.8-0.4l-1.3-1.7l-0.4-3.2l-1.2-0.6
      l-0.8-1.4l-0.8-3l-0.3-2.7l-0.9-1.8l0.5-1.2l1.1-0.2l1.1,0.8l1,1.8l1.9-0.2l0.7-1.4l0.6-3.9l-1.6-4.4l1.5-1.5l0.9-2.4l2.6-0.7
      l1.3-0.8l1.9-2l0.1-2.8l0.6-2.1l-0.5-1.4l-3.1-4.9l-0.3-1.6l1.8-0.6h2.4l1.3-2.5l0.4-1.9l-3.4-2.7l-1.2-0.4l-3.8-2.1l0.9-6.4v-1.6
      l-2.5-4.4l0.1-1.8l-0.6-2.8l1.1-1.1l-2.7-4.1l2-2.8l-0.5-1.5l1.2-1l3.5-3.8l3.3-1.5l3.3-0.4l7.1,0.9l1.7-2.2l-0.1-1.2l-1.1-2.9
      l-4.7-1.6l4.4-5l3.3-5l0.1-4.7l0.6-2.7l-1.4-3.9l3.8-0.4l2.4-0.5l3.3-1.5l-1-2.5l1.3-0.9l3-2.9l3.3-2.9l1.5-1l0.2-1.4l-1-1.3
      l-2.7-2.3l0.5-1.1l2.7-0.6l1.1-1.1l1.5-3.5l3.7-1.9l1.5-0.9l6.3,1.8l2.1-3.1l-0.8-3.6v-0.8l2.1-0.5l4.1,0.9l2.9,0.1l8.6,1.7l1,0.1
      l2.5-1.6l-2.9-0.9l1.6-0.9l1.4-1.9l-0.1-2l-2.6-1.6l5.1-0.2l2.9,0.8l0.4,0.9l2.9,1.1l4.8,2.3l4.2,1.8l8.3,1.7l3.5,1.8l1.2,1.6
      l1.4,0.1l1.9,1.5l1.8,0.9l-1.1,1l0.4,2.4l0.7,1.4l-0.3,1.9l2.8,0.4l0.6,1.3l-1,0.8l-0.1,1.1l0.8,1.6l3.3,2.6l0.6,0.9l-0.7,1.4
      l0.1,1.8l-1.5,1.3v1.3l1.3,2.6l1.8,0.6l1.9,2.2L518.1,183.7L518.1,183.7z"/>
    <path  id="TR" class="st0" d="M597.4,565.7l-2.9,0.5l-0.1-1.5l2.2-0.6L597.4,565.7z M791.9,544.2l4.3,1.3l1.1-1l3.6,0.1l3.4,0.8
      l0.9-1.9l1.4-0.4l1.4,0.3l0.6,1.1l1.2,0.4l3.5,2.5l1.1,1.7l1.9,0.2l1.3,1.2l1.3,1.6l1.7,1.2l1.7,3.3l-0.2,2.3l-1,1.4l0.8,1.9l1.9,3
      l-0.5,0.6l1.8,0.9l2.9,0.9l3.5-0.4l1.6,0.7l2.3,1.7l3.2,2.8l0.8,0.9l-3.3-1.9l-1.4,1.6l-0.1,3.8l-0.6,0.4l-2.8-0.1l-1.2,0.4l1.2,2.5
      l1.4,1.2v2.3l2.1,2.5l0.2,2.1l0.9,2.2l0.3,2.2l0.5,0.7l1.4,0.3l-0.6,3.8l-0.6,1.2l-0.4,2l1.7,0.6l3.2,2l0.1,1.3l0.6,1.5l0.3,2
      l3.2,2.3v2.3l-2.1-0.5l-3.7,3.1l-1.2-1.2l-0.3-2.4l-1.5-1.5l-1.3-0.2l-2.1,1.4l-4.2-0.3l-2.9-1.1l-2.9-0.8l-1.9,0.6l-2.2-0.7
      l-1.5,1.9l-2,1.9l-1.2,0.3l-1.6-2.6l-1.3-0.2l-1.2,1.3l-2.2,0.8l-4.6,1l-3.2,0.3l-4.1-0.6l-3.2,0.2l-3.1,1.4l-5.2,2.8l-4.1,1.4
      l-4.2,0.9l-7.6-0.2l-1.1-0.3l-3.5-2.3l-3.4-0.6l-3.4,1.6l-2.3,0.8l-3.5,1.6l-4.8-0.1l-1.9-1.7l-3.7-0.7l-0.6,1.6l-0.3,3.8l1.8,3.1
      l-3.3,1.4v2.6l-1.8,1.1l-0.8,1.6l-2.2-1.2l-1-0.1l0.7-1.3l-2.5-4.9l0.7-1.5l3.5-3.9l-0.4-2.4l-2-1.6l-2.9,2.1l-1.7,0.8l-0.3,1.2
      l-1.1,0.8l-1.8,0.4l-2.9-1l-3.2-1.4l-1.9-1.1l-1.4-0.3l-1.3,0.5l-3.5,2.8L708,625l-0.8,0.8l-3.2,1.7l-2.2,0.6l-1-0.1l-4.4,0.8
      l-2.2,0.1l-1.6,0.9l-3.5-1l-2.2-1.3l-1.4-1.3l-2.3-2.9l-1.6-1.3l-3.3-1.2l-5.8-3l-5.3-0.7l-4-0.3l-0.7,1.1l0.1,4.2l-0.5,1.2
      l-0.1,2.2l-1.1,1.1l-2.1-1l-1.9,0.9l-3.7,1.3l-1.2,0.1l-4.6-1.6l-2.9-2.1l-0.6-2l-1.3-2.7l-1.8,0.3l-2.3-0.4l-3.2-1.6l-2.4-0.1
      l-1.2,1.9l-1,0.7l-1.3-0.4l0.8-1.3l-3.7,0.2l-1.8,1l-1.5-0.1l-1-1l2-0.6l3.9-0.4l0.9-0.4l0.9-1.3l1.7-1.2l-1.2-0.5l-6,0.3l-4.2-0.2
      l-1,0.7l-0.4-1.6l3.6-1.4l-0.3-1.3l-4.2-2.2l-0.3-1.6l-2-3.1l1.9-0.5l0.1-2.5l-0.4-1.5l-3.9-1.3l-0.8,0.1l-1.1-1.3l-1.7-0.9
      l-1.2,0.7l-3.3-1.4l-0.6-0.6l0.5-1.4l1-1.1l-0.9-1.9l-0.1-1l1.8-0.1l1,1.1l0.3,2.2l3.6,0.7l2.9-0.6l-2.5-1.1l-1.1-1.2l-1.2-2.3
      l1.8-1.1l1.2-1.7l-2.7-1.2l0.2-2.4l-2.5-2.7l0.3-0.8l2.3-2.8l-1.2-0.7l-4.3,0.7l-1.6,0.6l-3.1,0.2l-0.3-1.6l0.6-1.3l-0.5-3.4
      l0.2-1.8l1.7-0.6l1.7-2.7l3-3.1h3.5l1.3-0.9h2.1l0.8,1.2l1.9,0.9l3.2-0.1l1.4-0.9l-1.6-1.5l1.7-0.5l1.5,0.4l-0.1,1.8l4.1-0.5
      l4.4,0.4l1.4-0.2h3.4l0.5-0.5l-3.6-1.7l2-1.5l6.8-1.2l3.7-0.8l-5.7-0.8l-1.4-0.6l-2-1.4l-1-1.1l0.3-2.6l0.6-0.7l2.2-0.1l7.7,1.2
      l5.3-0.8l6.1,1.8l5.6-0.4l1.1-0.7l1.1-2.6l7.4-4.2l2.4-2.1l2.8-1.2l5-1.4l4-1.7l1.2-0.2l10.4,0.8l7,0.1l3-1.6l2,0.5l-0.1,2.1
      l2.6,2.6l3.5,1.4l4.4-1.2l1.8,0.5l2.2,4l1.5,1.4l1.8,0.9l1.3,0.2l1.5-1.4l1.7-0.1l2.9,1.3l1.2,1.4l4.8,1.1l4.3,0.6l2,1.2l6.2,1.2
      l2.2-0.2l3.6-1.3l7-1.3l5.2,1.9l2.5,0.1l1.7,0.5l1.7-0.3l5-2.3l1.4-1.2l1.7-0.4l5.2-3.3L791.9,544.2L791.9,544.2z M620,537.1
      l-0.1,1.8l1,2l2.3,2.7l2,1.4l8.1,3.3l1.4,0.3l-0.9,3.5l-2.1,0.5l-6.4-1.5l-1.6-0.1l-2.9,1.4l-2.3-0.4l-3.1,0.6l-0.6,2.1l-2,2.4
      l-3.3,1.9l-2.5,1l-3.5,3.7l-1.5,2.2l-1.5,0.7l0.5-2l-0.3-1.7l2.3-2l3.3-1.6l0.7-1.3l-5.4,0.3h-3.3l-1-1.8l0.8-0.4l2.5-3.2l-0.5-4.4
      l3.4-2.5l-0.9-3.1l-2.3-1.5l-1.2-0.3l0.3-1.4l1.9-0.3l1-2.2l3.4-0.4l1.5-1.1l3.5-0.3l3.4,2.5l1.5-0.6h1.8l0.9-0.4L620,537.1
      L620,537.1z"/>
    <path id="UA" class="st0" d="M660.7,471.6v0.6l-3.9-0.8l-0.9-0.9L660.7,471.6L660.7,471.6z M634.3,486.2l-1.9-1.8l-2.2-0.7l-2.2,0.2
      l-2.2,1.3l-1.6,0.5l-0.9-0.3l-0.6,1.2l-4-0.9l-1.8-0.9l-1.5-1.6l1.1-0.7l2-0.2l0.4-1l-0.5-1.4l2.5-2.9v-1.3l2.3-1.7l0.4-2l-1-1.7
      l-0.5-2.1l2.5-1.6l2.1,1l1.9,0.2l2.1,0.8l1.6-0.6l1.2,1.3l2.9-0.4l0.6-0.7l-2.9-1.7l-0.2-2.9l-1-1.6l-2.1-0.8l-2-1.3l-0.9-1.9v-2.4
      l-2.9-2l-2.3-1.2l-0.6-1.2l0.6-3.1l-0.6-2.3l-1.4-1.4l-1.4,0.7l-1.4-1l-1.4-1.9l-5.6-0.6l-0.6-1.2l-2.5-0.3l-3.6-2.4l-3.5-1l-1.6,1
      l-0.8-0.3l-1.2,1l-4-0.1l-0.7-0.2l-2.3,1.4l-0.2,0.6l-3.7,0.8l-0.2,1.4l-1.1,1.9l-8.4,1.2l-3.4,1.3l-1,1.2l-2.1,0.5l-4.3-3.3
      l-1.2-0.3l-3.6,0.7l-6.9-1.4l-2.7,0.1l-2.7-1.5h-0.7l-0.9,1.2l-2.1,0.9l-0.7-1.7l-0.9-0.7L541,442l-0.9-1.1l-2.2-0.8l-1.4-2.3H535
      l-0.1-2.5l1.6-1.7l0.8-2.9l1.5-3l3.3,0.7l0.4-0.9l-1.9-1.4l0.1-1.8l-1.5-3.8l0.6-1l3.4-4.4l2.4-2.7l4.8-4.6l3-0.5l1.2-1.8l-0.1-1.3
      l-1.8-2.6l1.2-1.3l-1.4-1l-1.9-2.8l-2.7-2.8v-1.3l-1.2-1.8l-0.1-1.4l1.1-0.5l1.9,0.3l1.1,0.5l1.9-1.2l1.6-1.6l0.8-1.4l5.9-0.5
      l2.3-0.5l2.4-0.1l7.8,0.4l6.5,1.5l6.1,0.9h2.3l1.8,2.1l1,0.3l3-0.1l1.1,0.4l0.8,1.4l1.2-1.7l1.9,0.5l1.9-0.7l5.1,1l0.8,1.3l1,0.3
      l0.6-1.1l3.8-1.6l2.5,3l0.6,0.5l2.3-0.8l7.1-0.6l2,1.1l0.5,1.2l2.7,0.9l0.8-1.4l-1.8-3.6l1-3.3l0.8-1.2l2.2-2.3l1.1-0.5l1.7,0.4
      l1.4-0.8l5,0.1l2.6,0.8l1.7-0.1l1.8-0.9l0.5-2.4l1.6-0.6l3.7,0.9l1-0.1l2.7-1.2l1.6-0.2l2,0.3l3.4-0.2l2.5,1.4l1.4,1.4l1.7,2.7l4,3
      l-0.1,1l-2.9,0.5l1.3,1.9l0.5,2l1.2,1.7l-0.4,1l3.1,0.1l2.9,1l4.1-0.5l1.5,2.2l1.9,0.2l0.2,0.9l1.4,2.8l0.9,1.1l-0.2,1.8l0.5,1
      l1.9,1.6l0.7,1l1.1,0.4l2.3-1.4l2.8,0.4l2.7,2h2.3l1.7,1.1l1.4-1.3l4.3-0.9l2.3-1l1,0.1l2.3,1.8l0.5,1.2l1.5,1.6l4.7,2.9l1.3-0.6
      l0.9-1.5l2.6,1.4l2.4,0.2l3.6,1.9l1.4,0.1l1.6-0.6l2,1.8l1.9,0.2l4.4,2.3l2.9-0.3l1,0.8l-0.1,1.7l1,0.9l-0.1,2.6l-1.7,2.1l-2.3,0.8
      l1.1,1.5l3.1,0.9l-0.9,0.9l-1.4-0.2l-0.8,1l-0.3,2.3l2.5,0.7l1.2,2.8v1.1l1.2,0.3l-1.3,4.7l-0.1,1.8l-4.2,0.2l-6-0.3l-0.9,0.2
      l-0.9,1.9l-2.3,1.4l-1.7,0.2l-0.8,0.8v2.3l-0.4,1.3l1.1,0.7l-0.7,1.6l0.5,1.3l-0.5,0.1l-4.3-0.2l-3.4,0.3l-2.1,2.4h-1.5l-3.2,1.5
      l-1.4,1.7l-1.4-0.8l-3.1,0.5l-1.7,1.1l-3.1-0.1l-2.3,0.6l-4.6,3.8l-1.3,0.1l-1-1l-1.6,2.6l-2.4,1.2l0.6,3.1l2.8,4.5l3.6,3.9l1.7,1.4
      l2.4,0.7l3.1-1.4l2.4,0.4l1.7-1.2l1.5-0.1l3.7,1l-1.1,2.5l-0.3,2.6l-1.9,0.6l-2.2-0.1l-2.2,0.4l-2.7-1.5h-2.5l-1.1,1.9l-2.3,1.3
      l-0.6,1.4l-2.6-0.3l-2.1,0.2l-2.8,1.4l-1.9,2.8l-2.3,1.8l-1.9,0.5l-2-0.1l-1.3-0.6l-2.9-1.8l0.7-2l0.5-3.5l-1.2-2.9l-2.3-1.4
      l-1.6,0.2l-0.9-0.3l-3.7-2.4l-1.9-0.2l-1.9,0.5l-1.5-1.2l3.5-2.9l3.5-2.4l1.7-0.2l2.1-1.2l2.2-1.6l-1.3-2.3l-1.9,0.6l-2.2-1.1
      l-0.9-0.8l-3.1,0.8l-1.8-0.1l-3.8,0.8l-1.9-0.8l-4-2l-2.6-0.3v-1l1.8-0.3l0.1-1l-3.8-0.6l-0.1-1.3l2,0.5l3.2,0.2l2.9,0.5l2.1-1.8
      l-2.4,0.5l-2.9-0.5l-2.1-1.8l-2.2,1.2l-3.2-0.5l-2.4,0.8l-2.3-0.2l-4.1,1.1l-0.4,2.9l-2,4l-3.1,3.7l-4.6,2.1l-1.7-0.4l-0.9,1.1
      l0.2,1.3l1,0.9l1.1,3.1L634.3,486.2L634.3,486.2z"/>
    <path id="XK" class="st0" d="M538,532.8l-2.1,0.4l-1.5,1.9l-1.6-1.2l-1,0.1l-3.4,1.5l-0.2,2.6l-0.5,0.8l-1.7-0.3l-0.1-2.2l-1.4-3.2
      l-1.9-1.3l-1.4-0.5l-2-2.9l-0.5-0.4l0.2-1.3l-0.9-1.5l2-0.4l0.2-0.7l1.6-0.4l1.5-0.5v-1.4l1.7-1.3l0.4-1l-0.6-1.6l1.7-0.9l1.1,1.3
      l2.8,1.3l2.3,2.1l0.2,0.7l2.2,1.2v1.3l4.7,1.2l-0.2,1.2l-1.2,3.2l-1,0.9L538,532.8L538,532.8z"/>
    <path  id="NL" class="st0" d="M316.2,392.5l-0.6,1.2l-3.2,1.5l-3.9-1.1l-1.2,0.6l-1.2-0.7l-0.3-1.3l2.8-0.4l3.5,0.7l1.5-0.6l1.2,0.5
      L316.2,392.5L316.2,392.5z M312.8,387.2l1.5,1.4l-1.5,0.3l-1.6-1L312.8,387.2L312.8,387.2z M330.9,378.7l-3-0.4l-0.9-0.7l2.4-1.7
      l3.2-1.5l1.7,0.4l0.5,0.9l-1.1,1.1L330.9,378.7L330.9,378.7z M323.3,367.2l-1.1,1.1l-0.6-1.4l1.7-1.4V367.2L323.3,367.2z
      M316.2,392.5l-2.6-0.8l-2.2,0.5l-2.8-0.7l-1.7-1.3l1.2-0.7l2.3-0.1l4,0.7l1.2-0.9l-0.6-1l-2.3-2.1l1.6-2.7l1.4-1l3.2-3.8l0.9-2
      l1.2-5.5l1-2l1.4,0.5l2-0.8l3.4-2l1-1.7l1-0.9l4-1.6l2.1-0.4l8.9-0.5l1.8,1.7l2.7,0.6l0.1,4.3l-0.7,1.7l-1.1,3.8l-3.1-0.1l-0.6,1.6
      l0.7,1l2.6,0.3l0.8,1l-0.6,2.6l-2.6,1.6l-0.3,0.9l1,0.9l-0.7,1l-4.5,1.3l-2.3-0.8l-1.8,0.7l-0.7,1.1l3.1,4.1v1.2l-1.3,2.8l0.7,1.2
      l-2.2,1.6l-0.5,0.8l1.9,1.2l-0.6,2.4l-1.2-0.1l-2.4-0.3l-0.7-1.1l1.1-1.3l1-2.9l-2.6-1.1l-1.7-1.3l-1.9,0.4l-2.6-1.4l-0.5-1.6
      l-2.5,0.8l-1.1-1.3l-1.5,1l-1.5-0.8l-1.4,0.7l0.2,0.9L316.2,392.5L316.2,392.5z M334.3,376.9l0.9-0.9l-0.5-1.9l-2.1-0.3l-0.5-0.8
      l0.4-2.5l-2.8-0.4l-0.4-2.5l-1.5,0.3l-2.3,1.5l0.6,1.3l1.6,1.6v0.9l-2.1,0.7l0.1,2.6l-0.2,1.6l5.4,1.4L334.3,376.9L334.3,376.9z"/>
    <path  id="ES" class="st0" d="M284.4,584.7l-0.4,1l-2-0.4v-1.5l1.2-1.6l2.7-0.7l0.8,1.3L284.4,584.7L284.4,584.7z M306.1,571.1
      l1.2,0.5l1.3-0.5l1.4,0.4l0.2,1L308,576l-0.6,1.4l-2.1,1.3l-4-1.7l-0.3-1.6l-1.4-0.7l-1.7,1.3l-1.4-1l-0.3-1.2l5.3-3.7l1.5-0.9
      l3.2-0.9l0.5,1.2L306.1,571.1L306.1,571.1z M320.8,570.3l-0.3,0.2l-3.9-1.9l-1.6-0.4l0.1-1.4l2.6-0.2l2.1,0.7l1.2,1.8L320.8,570.3
      L320.8,570.3z M243.4,514.8l0.5,1.3l4.3,1.3l-0.3,3.2l1.8-0.4l4.4,1.7l2.2,0.2l2.2,2.1l3.6-0.4l3.2,2.1l3.1-0.4l0.7,0.4h4.7l0.8-2.4
      l4,1.1l2.5,1l1.7,0.3l1.1,1.5v2.1l0.7,0.4l2.8-1.1l2.8,1.2l1.3,1.2l2.1-1.1l4.7,1.2l1.2-0.8l3.8-1.1l3.1,0.6l1.2,2.2l-1.8,0.5
      l-0.2,1.4l1.2,1.3l0.1,2.1l-3,2.8l-8.7,4.7l-2.9,2.7l-6.6,1.5l-4.5,1.5l-2.2,0.5l-4.1,3.8l1.1,0.3l1.2,1.2l-0.4,0.6l-2.5,1.1h-0.9
      l-2.9,4.6l-2.6,3.3l-1.5,1.5l-1.5,2.1l-3.2,5.6l-0.1,1.6l1.6,5.5l2.2,2.7l2.4,1.1l0.6,1l-0.8,1l-2.4,1.7l-4.3,2.3l-1.8,1.9l-0.3,1.8
      l-1.3,0.8l-0.5,2.5l-1.8,4.4l1.3,1.2l-1.3,0.8l-6.5,0.3l-4.1,2.8l-2,2.4l-1.9,4.5l-2.2,2.6l-1,0.5l-1.5-1.2l-1.9-0.1l-1.9,0.3l-1,1
      l-1.5,0.5l-1.5-0.5l-4.6-0.2l-2.3,0.8l-1.9-0.5l-3.2-0.3l-7,0.6l-4,3.4h-3.4l-3.1,1.2l-2.1,3l-0.5,1.6l-1-0.3l-0.3,1.2l-2.1,0.8
      l-2.4-1l-2-1.5l-1-0.1l-1.6-2.2l-1.2-3.1V621l-1.5-0.6l-0.3-1.4l0.2-1.6l-1.2-2l-5-3.7l-3.7-0.3l-3,0.5l-1.1-6.4l0.8-2.2l3.5-4.3
      l2.1-0.6l0.7-2.4l-1.7,0.2l-3-4.3l0.9-4l3.2-3l0.6-2.4l-0.5-0.8l-1.7-0.4l-1.6-3.2l-0.3-1.9l-1.4-1.2l-1.1-1.9l1.1-0.3h4.3l1-0.5
      l1.7-3.5v-1.9l-1.4-1.3l0.2-1l2.7-2.1l-0.4-1.1l0.4-3.8l-0.4-3.5l-0.8-2l2-1.6l1.1-1.6l1.6-1.4l2.1-1.1l2.5-2.5l-0.3-1.1l-1.9-0.9
      l-1.9-0.2l-0.1-3.1l-0.7-1.1l-5.2-0.1l-1.5-0.5l-0.8,1.4l-2.5,0.9h-1.4l-2.2-0.8l-2.9,0.1l-3,1.1l-0.9-1.3l1.3-1.9l-1-1.8l-4.1,1
      l-1.9,0.9l-1.2,1.1l-1.3-0.1V535l2.6-2.6l-1.6-0.2l1.2-1.9l-1-1l0.1-2.6l-2.3,0.9l-0.5-1.2l1.4-2.2l-1.4-0.2l-2.3-2.5l0.8-3.1l2-1
      l1.9-1.5l2.6,0.3l1.7-0.3l3.6-1.6l-0.4-1.5l0.4-0.7l3.2-1.7l2-0.2l1.9-0.9l1.3,0.5l1.1-0.1l1.3,0.6l1.7,1.6l2.5,0.6l2-0.5l3.6-0.1
      l1.7,0.2l3.2-0.3l1.8,0.1l2.9-0.8l2.3,1l4.4,0.4l2.6,0.8l7.2,1.4h2.7l3.7-0.8l1.6-0.5l1.5,0.3l2.1-0.6l2.3,1l4.7,1.3l2.1-1.3
      l3.4,0.6l3.3,1.3l1.8,0.1l2.6-0.3L243.4,514.8L243.4,514.8z"/>
    <path id="FR" class="st0" d="M385.2,524.1l-0.3,2.3l1,1.7l0.6,6.5l-1.8,3.2l0.1,3l-1.6,4.3l-0.8,1.1l-3.8-2l-1.2-1.1l1-1.8l-2.2-0.9
      l0.4-1.7l-0.2-0.9l-1.6-0.5l1-1.3v-0.8l-1.5-1l-0.3-0.9l1.3-1.1l-0.6-0.9l0.1-1.3l0.9-1.9l1.2-0.9l2.8-0.8l1.2-1.1l1.9,0.6l0.6-1.2
      l-0.2-2.7l0.3-1.1l1.3,0.5L385.2,524.1L385.2,524.1z M251.3,476.2l-0.4,1.4l-1.9-2.4l1-0.5L251.3,476.2z M335.7,420.6l2.1,1.2h1.4
      l2-0.6l1.3,0.7l1.4,0.1l3.5,4.3l1.8-0.7l1.4,0.4l0.3,0.9l2.1,0.1l3-0.6l2,1.4l4.8,0.8l1.6,0.6l0.1,1.3l-3.5,3.8l-1.4,5.5l-1,1.8
      l-0.3,1.5l0.2,2.4l-0.6,2v1.5l1.1,1.3l-1.5,0.7l-0.8,1.4l-2.7,0.3l-0.8-0.8h-1.1l-1.8,1.4l1.3,1.1l-0.6,0.9l-3.8,4l-2.1,0.9
      l-0.5,2.9l-3,2.2l-1.1,2.9l0.8,0.7l-0.3,1.5l-1.5,1v1l1.4,0.1l2.3-1.6l-0.5-1.3l2.3-1.5l1.9-0.1l2.2,0.3l0.8,2.2l-0.5,1.7l2.3,2.3
      l0.9,1.4l-2.6,1.7l0.1,1.6l0.9,0.6l1.7,2.6l1.8,1.6l-0.8,2.5l-1.2,0.3l-1.7,1.3l-1.9-0.2l-0.8,0.4l1.5,3.1l3.2,1.4l0.5,1.7l-0.8,0.7
      l-1.4,2.5l0.7,1.3l0.1,1.4l0.9,0.9l5.1,2.4l3.3-0.6l0.3,2l-2.1,2.6l0.2,1.5l-0.6,0.3l-0.8,0.3l-2.4,1.1l-3.9,3.4l-1.8,1l-0.7,1.8
      l-2,1.4L345,519l-2.3,1l-1.1-0.4h-2.8l-1.7-1.2l-3.4-0.8l-1.1-1.8l-2.5-0.1l-0.8-1.5l-1.9,0.3l-1.5,0.7l-2-0.1l-5.9-1.8l-1.4-1.4
      l-1.7,0.5l-1.6,1.6l-6.5,4.1l-2.6,4.3l-0.1,1.2l0.7,3.9l1.6,2.5l-3.1-0.6l-3.8,1.1l-1.2,0.8l-4.7-1.2l-2.1,1.1l-1.3-1.2l-2.8-1.2
      v-1.5l-2.6-0.6l-0.9,0.7l-1.1-1.5l-1.7-0.3l-2.5-1l-4-1.1l-0.8,2.4h-4.7l-0.7-0.4l-3.1,0.4l-3.2-2.1l-3.6,0.4l-2.2-2.1l-2.2-0.2
      l-4.4-1.7l-1.8,0.4l0.3-3.2l-4.3-1.3l-0.5-1.3l2-0.5l1.9-1.9l1.7-7.1l1.3-8.3l1-1.6l1.2-0.4l-1-1.2l-1.1,1.5l0.7-7.6l0.5-2.8l0.9-3
      l3.1,2.4l0.8,1l0.9,3.4l0.6,0.1l-1.1-4.6l-1.8-2.3l-3.6-2.3l-0.5-1.3l1.8-0.6l-0.5-1.8l-0.5-5.9l-3-0.6l-4.8-2.6l-1.7-2.6l-1.6-1.9
      l-0.4-1.7l0.9-1.8l-0.8-1.1l-1.4-0.8l1.1-1.6l-3-0.2l-1.8-0.5l-0.3-1.1l1.3-1.4l-1.6-0.8l-2.6,0.2l-0.2-1.7l-2.2,0.3l-1.2-0.3
      l-1.1-1.1l-1.3,0.2l-2.2-0.4l-0.8-0.7l-4.8-1.3l-2-0.1l-1.9,0.6l-1.1-0.3l-1.3-2.2l-3.1-1.1l0.6-0.7l3.1-0.6l0.6-0.7l-2.2-0.9
      l-0.2-1.2l1.6,0.3l0.1-1.2l-4,0.1l-0.4-1.3l0.5-1.4l2.3-1.2l5.8-1.4l2.5,0.2l1.7-0.2l3-1.6l2.9-0.4l2.7,0.8l2.5,2.8l1.2,1l3.1-1.7
      l4.4,0.1l0.9,0.9l1.2-1.7l1,1l4.7-0.2l-1.5-2.5l-0.2-6l-1.3-1.7l-2.1-4.3l0.2-1.4l3.2,0.3l2.7-0.6l1.3,0.4l0.3,2.8l1.1,1.6h2.2
      l2.3,0.5l3,0.1l4.3,0.8l1.8-0.5l3.5-2l-1.8-0.7l-0.2-0.7l0.9-2.2l5.2-2.5l3.7-0.7l3.8-1.3l2-1.4l1.2-1.8l0.5-1.3l0.3-6.8l1-2.2
      l2.9-1.6l6.4-1.1l0.9-0.5l0.9,2.2v1.2l2.9,2.4l3.2-1l1.6,1.8l0.5,2l4.2,1.1l0.6,2l0.9-0.3l3.6,0.4l1.6,1.1l-0.4,1.6l0.7,0.7
      l-0.7,1.4l0.5,0.6l2.3,0.3l2.2-0.3l1.3-0.6l0.5-1.4l1.9-0.6l-0.8,2.7l0.6,0.6l0.4,2l1.7,0.1l3.3,1.5l2.8,2.6L335.7,420.6
      L335.7,420.6z"/>
    <path  id="PT" class="st0" d="M170,611.9l-1.2,0.2l-4.5,2.5H163l-2.5-1.1l-4.5-0.4l-1.5-0.3l-1.8,0.7h-1.5l-1.1,1l-0.8-0.3l1-2.1l1.6-4.1
      v-2.6l0.4-2.2l-0.3-2.1l-0.7-1.4l1.1-3.5v-1.8l-0.9-2.3l2.8,0.3l-1.7-1.4h-1.5l-2.3,0.9l-1.5,0.1l0.1-1.4l-0.5-1.8l2-0.6l1.6-1.7
      l-0.3-1.6L149,586l-0.6,1.4l-2.8,0.7l-1.5-0.5v-1.9l0.6-1.7l0.4-2.3l0.8-2.2l-0.2-1.4l1.6-1.3l1.4-1.9l4.3-8.9l-0.6-1l1.7-6.6
      l1.2-2.3l0.6-4.3l-0.2-2l-0.7-2l-0.7-4.3v-1.4l-0.9-1.8l0.1-1l1.4-1.7l1.2-1.1l1.9-0.9l4.1-1l1,1.8l-1.3,1.9l0.9,1.3l3-1.1l2.9-0.1
      l2.2,0.8h1.4l2.5-0.9l0.8-1.4l1.5,0.5l5.2,0.1l0.7,1.1l0.1,3.1l1.9,0.2l1.9,0.9l0.3,1.1l-2.5,2.5l-2.1,1.1l-1.6,1.4l-1.1,1.6l-2,1.6
      l0.8,2l0.4,3.5l-0.4,3.8l0.4,1.1l-2.7,2.1l-0.2,1l1.4,1.3v1.9l-1.7,3.5l-1,0.5h-4.3l-1.1,0.3l1.1,1.9l1.4,1.2l0.3,1.9l1.6,3.2
      l1.7,0.4l0.5,0.8l-0.6,2.4l-3.2,3l-0.9,4l3,4.3l1.7-0.2l-0.7,2.4l-2.1,0.6l-3.5,4.3l-0.8,2.2L170,611.9L170,611.9z"/>
    <path  id="CY" class="st0" d="M707.2,646.3L707.2,646.3H707H707.2L707.2,646.3z M707.2,646.3L707.2,646.3h0.2l0.1,0.1h-0.1
      L707.2,646.3L707.2,646.3L707.2,646.3z M706.8,646L706.8,646L706.8,646L706.8,646v-0.2V646L706.8,646L706.8,646z M710.3,645.2
      l0.2,0.1l0.3,0.3l0.2,0.4l0.1,0.3l0.2,0.2l0.2,0.1h-0.2H711l-0.3-0.1l-0.2-0.2h-0.2l-0.7,0.1l-0.6,0.1l-0.1,0.1l-0.1,0.1h-0.3h-0.3
      l-0.1-0.1l0.2-0.1h0.1l-0.1-0.3h-0.2l-0.2-0.1v-0.4l-0.1-0.1l-0.3-0.1v-0.2l0.1-0.1l0.2-0.1l0.1,0.1l0.1,0.1l0.2-0.1l0.1-0.1
      l0.1-0.1l0.1-0.1l0.2,0.2l0.2,0.1h0.1l0.2,0.1h0.1l0.3-0.1h0.2l0.1,0.1h0.2h0.1h0.1L710.3,645.2L710.3,645.2z M706.3,646.3v0.2
      l-0.3,0.1l-0.3,0.3v0.2l-0.1,0.3v0.3v0.3v0.3v0.1h-0.1l-0.1,0.1v0.3l-0.1,0.1h-0.2h-0.4l-0.2,0.1l-0.1,0.1l-0.1,0.2l-0.1,0.1
      l-0.2,0.1l-0.4,0.1l-0.4,0.2l-0.3,0.1l-0.2-0.3l0.1,0.5l-0.4,0.2l-0.9,0.2l-0.2,0.1l-0.1,0.1l-0.2,0.1h-0.2l-0.9-0.1l-1,0.1
      l-0.1,0.1l-0.2,0.1l-0.6,0.5l-0.1,0.3h-0.3l-0.3,0.1v0.1l-0.1-0.1l-0.1-0.2l0.1-0.2l0.1,0.1h0.3l-0.1-0.4l-0.4-0.1l-0.2,0.2
      l-0.1,0.1l-0.2-0.1v0.1l-0.4-0.1l-0.3-0.2l-0.1-0.1v-0.2h-0.1h-0.1h-0.1h-0.1l-0.1,0.1v0.1h-0.2l-0.1,0.2h-0.2h-0.2l-0.1,0.1
      l0.1,0.2l-0.2,0.1h-0.5l-0.6-0.1l-0.5-0.2l-0.7-0.4l-0.3-0.1l-0.3-0.1H691l-0.3-0.1l-0.2-0.2l-0.6-0.4l-0.1-0.1l-0.1-0.4v-0.1
      l-0.1-0.1l-0.4-0.9l-0.1-0.1l-0.3-0.2l-0.2-0.1l-0.1-0.1l-0.1-0.2v-0.2l0.1-0.2l-0.3-0.4l-0.1-0.2v-0.4l-0.1-0.2l-0.3-0.5l-0.2-0.3
      l-0.1-0.4l0.1-0.3h0.1l0.3,0.1l0.4,0.5l0.3,0.1l0.2,0.1h0.6l0.4-0.2l0.3-0.4l0.3-0.4l0.1-0.5l0.1-0.3l0.2-0.1l0.1-0.1v-0.1h0.1
      l0.1,0.1h0.1h0.2l0.1,0.1l0.2,0.2h0.2h0.1l0.2-0.2l0.1-0.2v-0.2l0.4,0.1l0.2,0.4l0.1,0.2l0.1,0.2l0.2,0.1l0.4,0.1l0.3,0.1l0.2,0.2
      l0.2,0.1l0.1,0.2v0.2l0.1,0.1l0.1,0.1h0.1l0.4-0.1l0.1-0.2l0.1-0.2l0.1-0.1l0.1,0.1l0.1,0.1l0.2,0.1h0.2l0.2-0.1l0.2-0.2l0.2-0.2
      l0.2-0.1l0.3-0.2l0.1-0.2h0.2l0.3,0.1h0.3h0.4l0.1-0.1h0.1l0.1-0.2l0.3-0.2h0.2l0.2,0.1l0.1,0.1h0.2h0.1l0.2,0.2l0.2,0.2l0.2,0.1
      l0.3,0.1h0.1l0.1-0.1v-0.1l0.1-0.2l0.3-0.3h0.1h0.2h0.3h0.2h0.1v0.2l0.1,0.2l0.1,0.1l0.2,0.2l0.2,0.2v0.1l0.1,0.3v0.2v0.3v0.4
      l-0.1,0.3l0.1,0.2l0.1,0.1h0.2h0.2v-0.3v-0.4l0.1-0.1l0.1-0.1l0.1-0.1l0.1,0.1l0.1,0.4l0.1,0.2l0.1,0.1l0.3-0.1v-0.2l0.1-0.1h0.2
      l0.1,0.1h0.2l0.1-0.1l0.1,0.1h0.1l0.3,0.2h0.2h0.1L706.3,646.3L706.3,646.3z"/>
    <polygon class="st0" points="263.9,390.8 263.9,390.8 263.9,390.8 263.9,390.8 "/>
    <polygon class="st0" points="439.4,412 439.4,412 439.4,412 439.4,412 "/>
    <polygon class="st0" points="385,266.6 385,266.6 385,266.6 385,266.6 "/>
  </svg>