  <svg version="1.1" id="map" fill="#16be99" stroke="#000" stroke-width="0.5" xmlns="http://www.w3.org/2000/svg" viewBox="0 0 1025.3 1033.3">
<path id="AO" class="st0" d="M505.5,620.9l-36-0.2l-4.3,1.7l-3.5-0.3l-5.1,1.9l-1.1,2.7l6,8.7
	l2.4,9.3l3.6,13.4l-3.8,5.5l-0.6,2.8l2.9,8.3l3.1,8.4l3.6,5l0.6,7.8l-1.4,10.3l-4,6.1l-7.1,9.1l-2.9,5.6l-4.1,12.5l-0.8,5.9
	l-4.3,12.7l-1.9,12.2l1,8.7l5.9-2.7l7.2-2.3l7.8,0.4l7.1,6.3l1.9-1l48.8-0.6l8.2,6.6l29.1,2l22.4-5.7l-7.6-8.6l-7.8-11.3l1.6-44
	l25.3,0.1l-1-4.7l2-5.2l-2-6.5l1.5-6.7l-1.2-4.3l-5.5-0.8l-7.6,2l-5.3-0.3l-3,1.3l0.9-16.5l-3.9-5.1l-0.8-8.5l1.9-8.4l-2.4-5.3
	l-0.1-8.7l-14.8,0.1l1.1-5l-6.2,0.1l-0.7,2.4l-7.6,0.5l-3.1,8.1l-1.9,3.4l-6.7-1.9l-4,1.9l-8.1,1.1l-4.6-7.2l-2.7-4.5l-3.5-8.3
	L505.5,620.9L505.5,620.9z M458.1,618.2l0.4-6l2-3.5l4.5-2.9l-4.6-4.8l-3.7,2.3l-5,6l3.3,10.4L458.1,618.2L458.1,618.2z"/>
<path id="BI" class="st0" d="M679.2,578.4l-0.6-5.4l0,0l-6.5-0.9l-3.8,7.9l-7.4-1.1l3,6.3l0.1,2.4
	l4.3,13.2v0.6l1.2-0.2l4.5-5l4.9-7.2l3-2.9l-0.1-4.5L679.2,578.4L679.2,578.4z"/>
<path id="BJ" class="st0" d="M350.2,378.3l-9.3-8l-4.3,0.1l-4.1,4l-2.6,4.2l-6,1.2l-2.5,6.1
	l-4.1,1.6l-1.6,7.2l3.7,4.1l4.3,4.9l0.4,6.8l2.5,2.8l-0.5,31.8l3,9.5l10.1-1.6l0.6-22.3l-0.3-8.8l2.3-8.7l3.7-4.3l5.9-8.5l-1.3-3.7
	l2.4-5.6l-2.8-8.2L350.2,378.3L350.2,378.3z"/>
<path id="BF" class="st0" d="M310.9,333.1h-7.8l-3-2.6l-6.7,1.9l-11.3,5.8l-2.3,4.3l-9.4,6.2
	l-1.7,3.6l-5.1,2.8l-5.8-1.9l-3.4,3.4l-1.8,9.5l-9.7,11.4l0.3,4.7l-3.4,5.9l0.8,8l5.5,3l2.1,4.6l5.4,2.9l4.3-3.4l5.7-0.6l8.3,3.6
	l-1.6-10.4l0.3-7.9l21.1-0.6l5.4,1l3.9-2.2l5.6,1.1l10.7,0.3l4.1-1.6l2.5-6.1l6-1.2l2.6-4.2l0.3-9.5l-14-3.1l-0.4-6.7l-6.9-9
	l-1.6-6.3L310.9,333.1L310.9,333.1z"/>
<path id="BW"   class="st0" d="M610.8,785l-2.2-1l-6.9,3.1h-3.6l-7.9,5.4l-4.4-5.7l-18.7,4.9l-9,0.4
	l-1.9,49.3l-11.8,0.5l-1.4,40.4l3.2,2l6.5,13.2l-1.5,8.4l2.5,4.9l8.5-1.4l6.2-6.2l5.8-4.2l3.2-6.6l6-3.2l4.9,1.7l5.5,3.9l9.6,0.6
	l7.8-3.2l1.4-4.3l2.4-6.6l6.5-1.1l3.9-5.2l4.4-9.3l11.2-10.3l17.3-10.2L651,839l-9.2-2.1l-3.1-8.8l0.2-4.9l-5.1-1.5l-13-15.2l-3.5-8
	l-2.3-2.4L610.8,785L610.8,785z"/>
<path id="CF"   class="st0" d="M597.2,420.4l-1-0.7l-4.2-4l-0.9-4.3l1.9-5.7l-0.1-5.7l-7.2-8.6
	l-1.5-5.9l-7.7,2.3l-6,5.6l-8.6,15.1l-11.3,6.4l-11.8-0.8l-3.4,1.2l1.2,4.9l-6.3,4.8l-5.1,5.4l-15.3,5.3l-3-3.1l-2.1-0.3l-2.2,3.6
	l-10,1l-6.1,14l-2.9,2.6l-0.8,10.7l1.2,5.8l-0.9,4.1l5.8,7.3l1,4.9l4.6,7.2l5.6,4.4l0.6,6.3l1.3,4l6.3-12.8l7.3-7.4l8.2,2.4l7.9,0.7
	l1-9.6l4.7-7.1l6.5-4.4l10.1,4.7l7.8,5.1l9,1.4l9.1,2.7l3.6-8.4l1.6-1.1l5.6,1.4l13.5-6.9l4.9,3l3.9-0.5l1.8-3.3l4.5-1.2l9.2,1.4
	l7.9,0.4l4-1.5l-2-4.4l-9.2-5.5L626,449l-5.2-6l-8.3-7.2l-0.1-4.5l-6.8-5.5L597.2,420.4z"/>
<path id="CI"   class="st0" d="M240.6,396.1l-5,2.1l-2.9,1.7l-1.8-5.9l-3.5,1.6l-2.1-0.3l-2.3,4
	l-9.4-0.1l-3.3-2.1l-1.6,1.3l-2.5,1.1l-1,4.7l2.8,5.7l3,11.1l-4.6,1.6l-1.1,1.9l0.9,2.7l-0.8,6.1h-1.9l-0.6,4l1.2,6.7l-2.7,6.1
	l3.6,3.8l3.8,0.9l5.2,5.8l0.3,5.5l-1.1,1.7l-1,11.4l2.3,0.4l12.1-5.1l8.5-4l14.5-2.4l7.8-0.2l8.5,2.7l5.6-0.1l0.5-5.5l-5.2-11.9
	l3.2-15.6l5.1-11.6l-3.2-19.7l-8.3-3.6l-5.7,0.6l-4.3,3.4l-5.4-2.9l-2.1-4.6L240.6,396.1L240.6,396.1z"/>
<path id="CM"   class="st0" d="M487.7,388.9l0.4-9.2l-1-9.1l-4.9-8.9l-3.4,0.8l-0.4,4.4l4.9,5.5
	l-1.3,2.5l-0.5,4.6l-10.2,10.7l-3.1,8.8l-1.6,7.2l-2.6,3.1l-2.4,9.7l-6.4,5.7l-1.9,7l-2.7,5.6l-1.1,5.7l-8.3,4.7l-6.9-5.7l-4.6,0.2
	l-7.2,8.1l-3.6,0.1l-5.7,13.4l-3.1,9.8l-0.1,3.8l3.1,2l2.5,6.2l5.6,2.3l4.8,9.2l-1.8,10.9l19.9,0.3l5.8-0.9l7.4,1.9l7.3-1.8l1.5,0.7
	l15.4,0.6l9.9,3.6l9.7,3.3l0.9-7.5l-1.3-4l-0.6-6.3l-5.6-4.4l-4.6-7.2l-1-4.9l-5.8-7.3l0.9-4.1l-1.2-5.8l0.8-10.7l2.9-2.6l6.1-14
	l1.8-3.7l-3.9-9.6l-1.8-5.7l-5.3-2.3l-7.2-8.1l2.5-6.5l5.6,1.3l3.4-0.9l6.8,0.1L487.7,388.9L487.7,388.9z"/>
<path id="CD"   class="st0" d="M628.5,468.3l-9.2-1.4l-4.5,1.2l-1.8,3.3l-3.9,0.5l-4.9-3l-13.5,6.9
	l-5.6-1.4l-1.6,1.1l-3.6,8.4l-9.1-2.7l-9-1.4l-7.8-5.1l-10.1-4.7l-6.5,4.4l-4.7,7.1l-1,9.6l-0.7,8.4l-3.6,7.4l-2.4,8.6l-1.5,12.3
	l0.7,7.8l-2,4.8l-0.3,5.1l-1.4,4.4l-8.1,6.7l-5.6,7.1l-5.3,13.4l0.3,11.4l-3.1,4.4l-7.2,6.8l-7.2,8.7l-4.5-2.5L479,602l-6.6-0.1
	l-4.2,5.3l-3.2-1.4l-4.5,2.9l-2,3.5l-0.4,6l-3.1,1.5l1.6,4.3l5.1-1.9l3.5,0.3l4.3-1.7l36,0.2l2.9,10.3l3.5,8.3l2.7,4.5l4.6,7.2
	l8.1-1.1l4-1.9l6.7,1.9l1.9-3.4l3.1-8.1l7.6-0.5l0.7-2.4l6.2-0.1l-1.1,5l14.8-0.1l0.1,8.7l2.4,5.3l-1.9,8.4l0.8,8.5l3.9,5.1
	l-0.9,16.5l3-1.3l5.3,0.3l7.6-2l5.5,0.8l4.2,0.3l0.6,4.3l5.7-0.3l7.7,1.3l3.9,6.2l9.7,2l7.5-4.4l2.6,7.3l9.2,1.9l4.3,5.9l4.8,7.6
	l9.3,0.1l-0.6-14.9l-3.4,2.5l-8.4-5.4l-3.2-2.4l1.9-13.9l2.5-16.4l-2.6-6.1l3.6-8.8l3.3-1.7l16.4-2.3l2.1,0.6l0.6-2.3l-3.4-3.7
	l-1.5-7.6l-7.3-7.6l-4.1-9.9l2.3-5.8l-3.2-7.8l2.4-22.1l0.1,0.2l-0.1-2.4l-3-6.3l1.2-7.6l1.7-1l0.5-8.3l3.5-3.8l0.1-10.5l2.9-5.3
	l0.6-11.1l2.6-6.4l4.6-7.2l4.7-3.7l3.9-4.9l-4.9-1.9l0.6-16.1l0,0l-10.9-9.2l-2.9-5.9l-6.8,2.9l-5.7-0.9l-3.2,2.3l-5.5-1.7
	l-7.5-11.4l-4,1.5L628.5,468.3L628.5,468.3z"/>
<path id="CG"   class="st0" d="M531.7,491.1l-7.9-0.7l-8.2-2.4l-7.3,7.4l-6.3,12.8l-0.9,7.5
	l-9.7-3.3l-9.9-3.6l-15.4-0.6l-0.9,6.1l3.4,7.1l9.1-1.1l3.1,2.7l-5.3,16.1l5.8,8.2l1.3,10.8l-1.6,9.2l-3.7,6.5l-10.8-0.6l-6.5-6.6
	l-1,6.1l-8.3,1.7l-4.2,3.5l4.6,9.1l-9.3,7.7l9.9,14.6l5-6l3.7-2.3l4.6,4.8l3.2,1.4l4.2-5.3l6.6,0.1l0.8,3.9l4.5,2.5l7.2-8.7l7.2-6.8
	l3.1-4.4l-0.3-11.4l5.3-13.4l5.6-7.1l8.1-6.7l1.4-4.4l0.3-5.1l2-4.8l-0.7-7.8l1.5-12.3l2.4-8.6l3.6-7.4L531.7,491.1L531.7,491.1z"/>
<path id="DJ"   class="st0" d="M830.5,381l-5.3-3.8l6.8-3.3l0.1-5.7l-3-4.3l-3.6,3.4l-5.2-1.2
	l-4,6.1l-3.9,6.5l1.1,3.8l0.3,4.2l6.8,0.2l2.9-0.9l2.8,2.4L830.5,381L830.5,381z"/>
<path id="DZ"   class="st0" d="M402.6,28l-7.8,0.8l-4.8-3.2l-12.2,0.1l-10.6,5.5l-5.8-2.1l-18.9,1.2
	l-19.4,2.5l-11,4.3l-7.2,5.8l-12.4,2.4L281.4,53l4.2,9l0.7,8.4l3.9,14.7l3.1,2.9l-2.2,5.4l-15.2,2.3l-5.4,5.1l-6.7,1.2l-0.6,10.2
	l-13.8,5.4l-4.6,7l-9.6,3.7l-11.8,2.1l-19.2,10.2l-0.2,16.3v1l-0.3,2.7l44.1,33.5l40,30.2l40.4,30.2l2.9,6.4l7.5,4l5.5,2.2l0.2,8.8
	l13.3-1.3l16.9-6.2l34.5-27.1l40.5-26.4l-5.4-8.7l-9.6-6.4l-5.5,2.5l-4.3-7.7l-0.6-5.9l-7.2-10.1l4.6-5.8l-1.3-8.7l1.4-7.6l-1-6.3
	l1.8-11.3l-0.8-6.4l-4.1-12.2l-5.7-24.7l-7.3-5.6l-0.2-3.3l-9.7-8.3L393.3,68l7-7.8l2.4-11.6l-2.3-13.4L402.6,28L402.6,28z"/>
<path id="EG"   class="st0" d="M639,110.4l-11.9-4l-11.5-3.7l-15.6,0.2l-3.7,6.6l2.2,5.9l-2.4,8.5
	l4.2,11.2l2.9,49.2l2.2,50.9h48.1h46.4h47.4l-2.2-2.8L730.4,220l-0.9-9l2.2-2.4l-11.6-15.3l-4.4-7.9l-4.9-7.5l-10.5-21.6l-8.4-13.9
	l-6.1-14.5l1.1-1.3l10.1,19.8l5.8,6.2l4.3,4.4l2.5-2.4l2.7-7.2l1.6-10.4l2.8-5.6l-1.5-3.5l-8.5-20.1l0,0l-5.4,3.4l-9.2-0.8l-9.6-3.2
	l-2.3,4.5l-3.8-6.8l-8.5-1.8l-10.2,1.2l-4.5,3.9l-8.6,4.4L639,110.4L639,110.4z"/>
<path id="ER"   class="st0" d="M787.8,326.1l-7-6.8l-4-12.7l-7.8-16l-5.7,7.9l-8.8,2.3l-3.6,4.2
	l-0.7,9.2l-4.3,20.3l1.5,5.6l14.3,2.9l3.3-10.4l7.6,6.3l7-3.2l3,2.9l8.3,0.1l10.8,5.6l3.4,4.8l5.5,4.4l5.4,8.1l4.3,4.5l5.2,1.2
	l3.6-3.4l-6.2-4.2l-4-4.7l-6.9-8l-7.1-7.9L787.8,326.1L787.8,326.1z"/>
<path id="ET"   class="st0" d="M765,332.6l-3.3,10.4l-14.3-2.9L746,352l-4.5,13.6l-7.1,6.8
	l-4.8,10.6l-1.1,5.7l-5.6,3.8l-3.3,14.5l0.1,1.7l0.4,10.8l-1.8,4.2l-6.4,0.3l-4,7.9l7.5,1l6.3,6.7l2.2,5.6l5.7,3.2l7.4,15l6.4,2.4
	l0.1,7.7l4.2,4.6h8.5l15.7,11.7l3.8,0.2l2.9-0.4l2.7,1.6l8.2,1.1l3.5-5.8l11.1-5.8l4.9,4.7h8.4l3.3-4.4l7.8-0.2l10.7-9.8l15.9-0.6
	l33.5-41.5l-10.3,0.1L838,412.6l-4.8-5l-4.6-6.6l-4.8-7.7l2.5-4.9l-2.8-2.4l-2.9,0.9l-6.8-0.2l-0.3-4.2l-1.1-3.8l3.9-6.5l4-6.1
	l-4.3-4.5l-5.4-8.1l-5.5-4.4l-3.4-4.8l-10.8-5.6l-8.3-0.1l-3-2.9l-7,3.2L765,332.6L765,332.6z"/>
<path id="GA"   class="st0" d="M466.1,508.2l-1.5-0.7l-7.3,1.8l-7.4-1.9l-5.8,0.9l0.1,16.7
	l-17.7-0.2l-4.2,0.8l-2.4,10.3l-3,10.1l-2.7,4.4l-0.3,4.6l7.3,14.3l8.1,11.4l12.5,14l9.3-7.7l-4.6-9.1l4.2-3.5l8.3-1.7l1-6.1
	l6.5,6.6l10.8,0.6l3.7-6.5l1.6-9.2l-1.3-10.8l-5.8-8.2l5.3-16.1l-3.1-2.7l-9.1,1.1l-3.4-7.1L466.1,508.2L466.1,508.2z"/>
<path id="GH"   class="st0" d="M306.6,387.2l-5.6-1.1l-3.9,2.2l-5.4-1l-21.1,0.6l-0.3,7.9l1.6,10.4
	l3.2,19.7l-5.1,11.6l-3.2,15.6L272,465l-0.5,5.5l10.9,3.9l11-4l6.7-4.7l19.2-8.1l-2.8-4.9l-3.2-8.8l-1-6.8l2.7-12.5l-3-5l-1.2-10.9
	v-10.1l-5.1-7.1L306.6,387.2L306.6,387.2z"/>
<path id="GN"   class="st0" d="M166.6,367.5l-1.8,0.7l-6.6-1.1l-0.9,1.6l-2.7,0.3l-8.7-3.4l-5.8-0.1
	l-0.3,4.7l-1.3,1.4l0.9,4.6l-1.9,1.8l-2.7,0.1l-3.2,2.3l-3.7-0.3l-5.5,6.8l3.6,2.2l1.7,3.1l1.3,6.1l3,2.7l3.1,1.8l4.7,5.4l5.3,8.2
	l6.5-6.1l1.5-3.8l2.1-3l3.3-0.3l2.9-2.6h9.7l3.3,5l2.6,5.8l-0.4,4l1.9,3.6l-0.1,5.1l3.3-0.8l2.6-0.3l3.2-1.6l5.1,8.5l-0.9,5.6
	l2.4,2.9l3.4,0.1l2.6-5.6l3.4,0.4h1.9l0.8-6.1l-0.9-2.7l1.1-1.9l4.6-1.6l-3-11.1l-2.8-5.7l1-4.7l2.5-1.1l-3.7-4l0.7-4.1l-1.6-1.6
	l-2.6,1.3l0.6-4.5l2.5-3.5l-5-5.8l-1.4-3.8l-2.7-3.1l-2.4-0.3l-2.9,1.9l-4,1.8l-3.3,3l-5.2-1.1l-3.3-3.5l-2-0.4l-3.2,1.8h-2
	L166.6,367.5L166.6,367.5z"/>
<path id="GM"   class="st0" d="M102.1,357.7l11,0.2l3-1.9l2.2-0.1l4.5-3.2l5.2,2.9l5.2,0.3l5.3-3.1
	l-2.4-4l-4,2.3l-3.8-0.1l-4.7-3.4l-3.8,0.2l-2.8,3.3l-13.2,0.4L102.1,357.7L102.1,357.7z"/>
<path id="GW"   class="st0" d="M140.1,365.5l-22.4-0.6l-3.3,1.6l-4-0.5l-6.5,2.3l0.7,2.9l3.7,3
	l-0.1,2.1l2.7,3.9l5.1,0.9l6.4,5.8l5.5-6.8l3.7,0.3l3.2-2.3l2.7-0.1l1.9-1.8l-0.9-4.6l1.3-1.4L140.1,365.5L140.1,365.5z"/>
<path id="GQ"   class="st0" d="M444.1,508.3l-19.9-0.3l-4.1,15.5l2.2,2.1l4.2-0.8l17.7,0.2
	L444.1,508.3L444.1,508.3z"/>
<path id="KE"   class="st0" d="M817.4,485.4H809l-4.9-4.7l-11.1,5.8l-3.5,5.8l-8.2-1.1l-2.7-1.6
	l-2.9,0.4l-3.8-0.2l-15.7-11.7h-8.5l-4.2-4.6l-0.1-7.7l-6.4-2.4l-8.1,9.1l-7.4,8.3l5.9,9.6l1.5,7l5.5,15.8l-4.4,10.1l-5.9,9.2
	l-3.5,5.6v0.7l2.9,5.2l-0.8,10.3l44.1,28.2l0.7,8l17.3,13.8l5-4.6l2.5-9.2l4-5.5l1.9-9.8l4.6-1l3.1-5.8l8.6-5.5l-7.2-11.4l-0.4-50.4
	L817.4,485.4L817.4,485.4z"/>
<path id="LR"   class="st0" d="M203.5,433.3l-3.4-0.4l-2.6,5.6l-3.4-0.1l-2.4-2.9l0.9-5.6l-5.1-8.5
	l-3.2,1.6l-2.6,0.3l-5.7,6.5l-5.5,7.5l-0.7,4l-2.9,4.4l8.1,8.9l10.4,7.6l11,10.5l12.6,6.6l3.2-0.1l1-11.4l1.1-1.7l-0.3-5.5l-5.2-5.8
	l-3.8-0.9l-3.6-3.8l2.7-6.1l-1.2-6.7L203.5,433.3L203.5,433.3z"/>
<path id="LY"   class="st0" d="M600,102.9l-3.1-4.5l-11.7-1.6l-3.9-2.4h-4.4l-4.4-6.2l-15.9-2.8
	l-7.9,1.8l-7.9,6.5l-3.3,6.7l3.4,10.6l-5.3,6.3l-5.5,3.6l-12.9-6.9l-16.7-5.7l-10.6-2.7l-6.1-12.3l-15.7-6.1l-9.8-2.3l-4.8,1.2
	l-13.8-4.8l-0.3,10.6l-5.6,4l-3.4,4.4l-7.9,5.3l1.5,5.7l-0.9,5.8l-5.6,3.2l4.1,12.2l0.8,6.4l-1.8,11.3l1,6.3l-1.4,7.6l1.3,8.7
	l-4.6,5.8l7.2,10.1l0.6,5.9l4.3,7.7l5.5-2.5l9.6,6.4l5.4,8.7l19,6l6.9,7.5l8.3-5.1l11.9-7.6l48.4,26.5l48.7,26.5l-0.1-5.8h13.8
	l-1-27.7l-2.2-50.9l-2.9-49.2l-4.2-11.2l2.4-8.5l-2.2-5.9L600,102.9L600,102.9z"/>
<path id="LS"   class="st0" d="M635.5,962.2l2.5-4.4l6.7-2.2l2.4-4.5l4.1-6.7l-3.8-4.2l-4.8-4.2
	l-5.7,2.8l-6.8,5.4l-6.9,8.7l8,10.6L635.5,962.2L635.5,962.2z"/>
<path id="MA"   class="st0" d="M281.4,53l-5-0.1l-11.9-3.1l-11,0.9l-6.8-5.9l-8.5-0.1l-3.8,8.6
	l-8,14.5l-8.7,5.7l-11.8,6.4l-7.7,9.3l-1.8,7.3l-4.8,11.8l2.5,17.2L184,137l-6,3.7l-9.6,9.4l-11,1.6l-6.1,5.3l-0.2,0.2l-7.9,14.1
	l-8.1,5.1l-4.5,8.5l-0.5,7.4l-3.4,8.1l-4,2.2l-6.9,8.8l-4.4,9.8l0.7,4.6l-4.1,7.3l-4.7,3.7l-0.8,6.4l0.2,0.1l27-1.1l1.6-5l5-6.2
	l4.4-19.1l16.9-15l6-17.4l3.7-1.1l4.2-10.8l10-1.4l4.2,1.8h5.4l3.9-3.2l7.3-0.4l-0.1-7.5l0,0h1.8l0.2-16.3l19.2-10.2l11.8-2.1
	l9.6-3.7l4.6-7l13.8-5.4l0.6-10.2l6.7-1.2l5.4-5.1l15.2-2.3l2.2-5.4l-3.1-2.9l-3.9-14.7l-0.7-8.4L281.4,53L281.4,53z"/>
<path id="MG"   class="st0" d="M913.1,727.1l-2.5-9.1l-3-5.9l-3.9-5.9l-4.3,6.2l-0.7,8.3l-7.1,9.6
	l-5.1-1.7l1.3,6l-4,6.9l-10.4,8.5l-7.3,7.9l-5.4,0.2l-4.6,2.5l-6.9,2.8l-6,0.6l-2.2,8.7l-4.7,7.8l0.2,12.7l1.7,8.7l2.4,6.6l-1.7,8.8
	l-6.4,10.5l-0.3,4.6l-5.7,2.4l-2.8,10l0.4,9.9l3.4,11l-0.1,12.3l2.6,7.3l9.1,5l6.5,3.5l10.9-5.8l9.9-3.3l6.8-16.1l6.1-19.2l9.3-26.2
	l7.3-19.1l5.9-16.1l1.6-11.7l3.5-3.2l1.5-5.9l-1.7-10.2l2.6-4.1l3.5,8.1l2.4-4.1l1.7-6.6l-2.8-6.5L913.1,727.1z"/>
<path id="ML"   class="st0" d="M357.6,274.6l-13.3,1.3l-0.2-8.8l-5.5-2.2l-7.5-4l-2.9-6.4
	l-40.4-30.2l-40-30.2l-18.2,0.2l5.1,59.7l5.4,59.7l2,1.8l-2.7,9.6l-48.5,0.2l-1.9,3.1l-4.6-0.9l-6.9,2.7l-8.4-3.8l-3.8,0.3l-2.2,8.2
	l-4.1,2.5l0.4,8.6l2.3,7.9l4.5,3.9l1,5.3l-0.6,4.4l0.6,5h2l3.2-1.8l2,0.4l3.3,3.5l5.2,1.1l3.3-3l4-1.8l2.9-1.9l2.4,0.3l2.7,3.1
	l1.4,3.8l5,5.8l-2.5,3.5l-0.6,4.5l2.6-1.3l1.6,1.6l-0.7,4.1l3.7,4l1.6-1.3l3.3,2.1l9.4,0.1l2.3-4l2.1,0.3l3.5-1.6l1.8,5.9l2.9-1.7
	l5-2.1l-0.8-8l3.4-5.9l-0.3-4.7l9.7-11.4l1.8-9.5l3.4-3.4l5.8,1.9l5.1-2.8l1.7-3.6l9.4-6.2l2.3-4.3l11.3-5.8l6.7-1.9l3,2.6h7.8
	l7.7-0.6l4.5-4.9l16.5-1.2l10.7-2.2l1-8.5l6.6-9.2L357.6,274.6L357.6,274.6z"/>
<path id="MZ"   class="st0" d="M798.4,688.5l-1.7-6.2l0,0l0,0l-10,8.1l-13.4,5.3l-7.3-0.2l-4.5,4.2
	l-8.4,0.3l-3.3,1.8l-14.4-3.9l-4.7,0.5l-3.3,13.1l1.4,15.8h0.7l4.2,4.4l4.6,10l0.3,17.8l-5.4,3l-4.1,9.6l-7.5-8.6l-0.5-9.7l2.9-6.5
	l-0.5-5.5l-4.7-3.5l-3.3,1.2l-6.8-6.6l-37.1,11.4l0.8,9.9l0.6,5.1l10-0.3l5.5,3l2.5,3.4l5.7,1l6.1,4.4l-0.8,17.5l-2.8,9.6l-1,10.4
	l1.7,4.1l-1.7,8.1l-1.9,1.3l-3.6,9.9l-13.4,15.7l4.7,19.5l2.5,9.9l-3,15.4l0.7,5l1.3,6.2l0.6,6.1l9,0.1l1.5-7.3l-2.9-0.9l-0.6-5.8
	l5.5-5.2l14.8-7.5l10.1-4.6l5.3-5l2.1-5.7l-2.7-2.4l2.4-6.4l1.1-13.6l-2.2,0.7l0.1-4.1l-1.9-8.1l-5.2-10.5l1.6-9.9l5.1-3.2l8.9-9.8
	l4.7-2.5l14.4-14.9l14-6.7l11.3-5.3l8.1-8.5l5.2-9.6l4.1-9.9l-1.8-6.8l0.4-21.6l-1-12.2L798.4,688.5L798.4,688.5z"/>
<path id="MR"   class="st0" d="M247.8,194.1l-44.1-33.5l-0.5,20.9l-38.9-0.7l-0.4,35.4l-11.2,1.3
	l-3.1,7.1l1.9,20l-46.9-0.1l-2.7,4.6l6.1,6l3,6.5l-1.4,6.9l1.3,6.9l1,13.7l-1.8,13l-3.5,6.8l0.9,7.5l4.2-4.5l6,1.2l5.9-3l6.8-0.1
	l5.7,4l7.9,3.7l7.2,10.2l7.8,9.5l4.1-2.5l2.2-8.2l3.8-0.3l8.4,3.8l6.9-2.7l4.6,0.9l1.9-3.1l48.5-0.2l2.7-9.6l-2-1.8l-5.4-59.7
	l-5.1-59.7L247.8,194.1L247.8,194.1z"/>
<path id="MW"   class="st0" d="M724.8,734l0.3-5.2l-2.7-4.1l0.4-6l-3.3-10.2l3.7-7.7l-0.2-16.7
	l-4.1-8.9l0.4-1.5l0,0l-2.3-3.8l-11.9-2.6l5.6,6.2l2.8,11.7l-2.2,3.8l-2.7,11.2l2,11.5l-4,4.8l-4.1,12.8l6.2,3.6l6.8,6.6l3.3-1.2
	l4.7,3.5l0.5,5.5l-2.9,6.5l0.5,9.7l7.5,8.6l4.1-9.6l5.4-3l-0.3-17.8l-4.6-10l-4.2-4.4h-0.7l0.1,1.9l2.3,0.5l2.2,7.4l-0.4,1.7
	l-4.1-5.3l-2.2,3.4L724.8,734L724.8,734z"/>
<path id="NA"   class="st0" d="M586.2,782l-22.4,5.7l-29.1-2l-8.2-6.6l-48.8,0.6l-1.9,1l-7.1-6.3
	l-7.8-0.4l-7.2,2.3l-5.9,2.7l0.6,10.6l9.5,13.5l2.5,8.7l6,16.6l5.9,11.4l4.6,5.7l1.3,7.6l-0.1,16.5l3.4,21.3l2.6,10.1l2.2,13.4
	l4.3,10.1l8.3,10.5l6-6.8l4.5,3.7l1.7,6l5.2,1l7.3,2.6l6.4-1l10.8-7.1l2.2-51.1l1.4-40.4l11.8-0.5l1.9-49.3l9-0.4l18.7-4.9l4.4,5.7
	l7.9-5.4h3.6l6.9-3.1v-1.2l-4.7-3.1l-7.8-0.8L586.2,782L586.2,782z"/>
<path id="NE"   class="st0" d="M468.5,220.9l-19-6L409,241.3l-34.5,27.1l-16.9,6.2l0.3,31.9
	l-6.6,9.2l-1,8.5l-10.7,2.2l-16.5,1.2l-4.5,4.9l-7.7,0.6l-1,6.7l1.6,6.3l6.9,9l0.4,6.7l14,3.1l-0.3,9.5l4.1-4l4.3-0.1l9.3,8
	l0.8-12.4l3.5-5.5l1.6-8l3.2-3l13-1.6l12.2,5.1l4.6,5.3l6.1,0.2l5.8-3.4l14.7,7.1l6.2-0.3l7.1-5.9l7.1,0.4l3.5-1.9l6.5,0.8l9.4,4
	l9.4-7.7l2.9,0.6l8.4,15.1l2.2-0.3l0.4-4.4l3.4-0.8l1.1-6.5l-7.8-0.3l-0.1-8.9l-5.1-5.2l4.9-18.2l15.2-13l0.2-18l4-28.1l2.5-6
	l-5.1-4.7l-0.3-4.4l-4.6-3.6l-3.4-21.5l-8.3,5.1L468.5,220.9L468.5,220.9z"/>
<path id="NG"   class="st0" d="M478.4,366.9l-2.2,0.3l-8.4-15.1l-2.9-0.6l-9.4,7.7l-9.4-4l-6.5-0.8
	l-3.5,1.9l-7.1-0.4l-7.1,5.9l-6.2,0.3L401,355l-5.8,3.4l-6.1-0.2l-4.6-5.3l-12.2-5.1l-13,1.6l-3.2,3l-1.6,8l-3.5,5.5l-0.8,12.4
	l-0.5,4.6l2.8,8.2l-2.4,5.6l1.3,3.7l-5.9,8.5l-3.7,4.3l-2.3,8.7l0.3,8.8l-0.6,22.3h10.7l9.2-0.1l8.6,9.1l4.1,10l6.5,8.6l9.8,0.3
	l4.7-3.1l4.6,0.8l12.7-5l3.1-9.8l5.7-13.4l3.6-0.1l7.2-8.1l4.6-0.2l6.9,5.7l8.3-4.7l1.1-5.7l2.7-5.6l1.9-7l6.4-5.7l2.4-9.7l2.6-3.1
	l1.6-7.2l3.1-8.8l10.2-10.7l0.5-4.6l1.3-2.5L478.4,366.9L478.4,366.9z"/>
<path id="RW"   class="st0" d="M678.1,555.3l-7.4,4.3l-2.9-1.4l-3.5,3.8l-0.5,8.3l-1.7,1l-1.2,7.6
	l7.4,1.1l3.8-7.9l6.5,0.9l0,0l3.5-1.8l0.8-8.1L678.1,555.3L678.1,555.3z"/>
<path id="EH"   class="st0" d="M204,156.9h-1.8l0,0l0.1,7.5l-7.3,0.4l-3.9,3.2h-5.4l-4.2-1.8
	l-10,1.4l-4.2,10.8l-3.7,1.1l-6,17.4l-16.9,15l-4.4,19.1l-5,6.2l-1.6,5l-27,1.1l-0.2-0.1l-0.6,5.9l2.7-4.6l46.9,0.1l-1.9-20l3.1-7.1
	l11.2-1.3l0.4-35.4l38.9,0.7l0.5-20.9l0.3-2.7L204,156.9L204,156.9z"/>
<path id="SD"   class="st0" d="M750.2,314.2l0.7-9.2l3.6-4.2l8.8-2.3l5.7-7.9l-6.9-5.1l-4.8-3.4
	l-5.3-16.5l-2.5-14.3l2.5-2.5l-4.7-13.6h-47.4h-46.4h-48.1l1,27.7h-13.8l0.1,5.8l2.4,54.9l-10.5-0.9l-5.2,10.2l-3,8.5l2.6,3.2
	l-3.8,4.3l1.5,5.7l-3,5.8l-1.2,5l4.3-0.8l2.6,5.4l0.3,8l4.6,4.1l-0.1,3.4l1.5,5.9l7.2,8.6l0.1,5.7l-1.9,5.7l0.9,4.3l4.2,4l1,0.7
	l3.8-1.6l4.1-2.6l2.9-12.3l3.2-6.4l8.8-1.9l2.1,3.8l6.5,8l3.3,1.2l4.4-2.3l8.7,0.4l1.8,2.9h12.1l0.3-2.9l6.3-2.6l1.1-4l4.6-2.9
	l10.4,8.1l6.2-1.4l5.8-10l6.5-7.6l-1.3-8.3l-3-4l7.3-0.8l0.7-3l5.7,0.9l-1.2,10.2l1.7,10l6.5,5.5l1.5,4.7v6.9l1.7,0.3l-0.1-1.7
	l3.3-14.5l5.6-3.8l1.1-5.7l4.8-10.6l7.1-6.8L746,352l1.4-11.9l-1.5-5.6L750.2,314.2L750.2,314.2z"/>
<path id="SS"   class="st0" d="M718,401.5l-1.5-4.7l-6.5-5.5l-1.7-10l1.2-10.2l-5.7-0.9l-0.7,3
	l-7.3,0.8l3,4l1.3,8.3l-6.5,7.6l-5.8,10l-6.2,1.4l-10.4-8.1l-4.6,2.9l-1.1,4l-6.3,2.6l-0.3,2.9h-12.1l-1.8-2.9l-8.7-0.4l-4.4,2.3
	l-3.3-1.2l-6.5-8l-2.1-3.8l-8.8,1.9l-3.2,6.4l-2.9,12.3l-4.1,2.6l-3.8,1.6l8.4,5.4l6.8,5.5l0.1,4.5l8.3,7.2l5.2,6l3.2,8.3l9.2,5.5
	l2,4.4l7.5,11.4l5.5,1.7l3.2-2.3l5.7,0.9l6.8-2.9l2.9,5.9l10.9,9.2l0,0l5-3.8l7.8,3.1l9.8-3.3l8.6,0.1l7.4-6.4l7.4-8.3l8.1-9.1
	l-7.4-15l-5.7-3.2l-2.2-5.6l-6.3-6.7l-7.5-1l4-7.9l6.4-0.3l1.8-4.2l-0.4-10.8l-1.7-0.3L718,401.5L718,401.5z"/>
<path id="SN"   class="st0" d="M159,337.4l-7.8-9.5l-7.2-10.2l-7.9-3.7l-5.7-4l-6.8,0.1l-5.9,3
	l-6-1.2l-4.2,4.5l-3,7.1l-6.1,9.7l-5.4,2.6l6,4.9l4.8,10.8l13.2-0.4l2.8-3.3l3.8-0.2l4.7,3.4l3.8,0.1l4-2.3l2.4,4l-5.3,3.1l-5.2-0.3
	l-5.2-2.9l-4.5,3.2l-2.2,0.1l-3,1.9l-11-0.2l1.8,10.6l6.5-2.3l4,0.5l3.3-1.6l22.4,0.6l5.8,0.1l8.7,3.4l2.7-0.3l0.9-1.6l6.6,1.1
	l1.8-0.7l0.6-4.4l-1-5.3l-4.5-3.9l-2.3-7.9L159,337.4L159,337.4z"/>
<path id="SL"   class="st0" d="M181.7,423.3l-3.3,0.8l0.1-5.1l-1.9-3.6l0.4-4l-2.6-5.8l-3.3-5h-9.7
	l-2.9,2.6l-3.3,0.3l-2.1,3l-1.5,3.8l-6.5,6.1l1.4,10.3l2.1,5l6.3,7.4l8.7,5.6l3.3,1l2.9-4.4l0.7-4l5.5-7.5L181.7,423.3L181.7,423.3z
	"/>
<path id="SZ"   class="st0" d="M684.2,897.2l-5.8-2.6l-3.5,1l-1.4,4l-3.6,5.2l-0.2,4.8l6.6,7.5
	l7-1.5l2.8-6.1l-0.6-6.1L684.2,897.2L684.2,897.2z"/>
<path id="TD"   class="st0" d="M592.7,268.7L544,242.2l-48.4-26.5l-11.9,7.6l3.4,21.5l4.6,3.6
	l0.3,4.4l5.1,4.7l-2.5,6l-4,28.1l-0.2,18l-15.2,13l-4.9,18.2l5.1,5.2l0.1,8.9l7.8,0.3l-1.1,6.5l4.9,8.9l1,9.1l-0.4,9.2l6.8,12.6
	l-6.8-0.1l-3.4,0.9l-5.6-1.3l-2.5,6.5l7.2,8.1l5.3,2.3l1.8,5.7l3.9,9.6l-1.8,3.7l10-1l2.2-3.6l2.1,0.3l3,3.1l15.3-5.3l5.1-5.4
	l6.3-4.8l-1.2-4.9l3.4-1.2l11.8,0.8l11.3-6.4l8.6-15.1l6-5.6l7.7-2.3l0.1-3.4l-4.6-4.1l-0.3-8l-2.6-5.4l-4.3,0.8l1.2-5l3-5.8
	l-1.5-5.7l3.8-4.3l-2.6-3.2l3-8.5l5.2-10.2l10.5,0.9L592.7,268.7L592.7,268.7z"/>
<path id="TG"   class="st0" d="M317.3,387.5l-10.7-0.3l-0.9,4.3l5.1,7.1v10.1l1.2,10.9l3,5
	l-2.7,12.5l1,6.8l3.2,8.8l2.8,4.9l9.8-3l-3-9.5l0.5-31.8l-2.5-2.8l-0.4-6.8l-4.3-4.9l-3.7-4.1L317.3,387.5z"/>
<path id="TN"   class="st0" d="M439.7,81.3l-4.5-2.2l-3.2-6.6l-6-0.2l-2.4-7.6l7.3-7l1.1-12.1
	l-4.1-3.5l-0.2-6.5l5.5-7l-0.9-2.7l-9.5,5.2l0.1-7.1l-8.1-1.7L402.6,28l-2.2,7.2l2.3,13.4l-2.4,11.6l-7,7.8l1.3,10.4l9.7,8.3
	l0.2,3.3l7.3,5.6l5.7,24.7l5.6-3.2l0.9-5.8l-1.5-5.7l7.9-5.3l3.4-4.4l5.6-4L439.7,81.3L439.7,81.3z"/>
<path id="TZ"   class="st0" d="M682.4,553.6l-4.3,1.7l4.8,7.8l-0.8,8.1l-3.5,1.8l0,0l0.6,5.4
	l2.6,3.2l0.1,4.5l-3,2.9l-4.9,7.2l-4.5,5l-1.2,0.2l-0.7,5.9l2.3,2l-0.5,5.9l2.3,5.5l-2.9,5.3l9.7,9.4l0.8,8.5l5.9,14.2l0,0l0.6,0.4
	l4.8,2.3l7.7,2.4l6.8,4.1l11.9,2.6l2.3,3.8l0,0l0.8-2.7l6.2,7.4l0.6,14.5l3.9,5.3l-0.1,0.2l4.7-0.5l14.4,3.9l3.3-1.8l8.4-0.3
	l4.5-4.2l7.3,0.2l13.4-5.3l10-8.1l0,0l-4.4-3l-4.7-13.6l-4-8.7l1-6.6l-0.6-4.2l3.5-8.4l-0.3-3.6l-7.7-5l-0.6-7.8l5.9-17.1
	l-17.3-13.8l-0.7-8l-44.1-28.2l0,0l-6,6.1l-4.1,6.3l4.8,4.7l-7,3.4l-1.5-1.6l-7.1,0.9l-5.5,3.1l-3.3-5.4l2.3-9.7l0.5-8.3l0,0l0,0
	L682.4,553.6L682.4,553.6z"/>
<path id="UG"   class="st0" d="M721.5,480.8l-7.4,6.4l-8.6-0.1l-9.8,3.3l-7.8-3.1l-5,3.8l0,0
	l-0.6,16.1l4.9,1.9l-3.9,4.9l-4.7,3.7l-4.6,7.2l-2.6,6.4l-0.6,11.1l-2.9,5.3l-0.1,10.5l2.9,1.4l7.4-4.3l4.3-1.7l13.4,0.2l0,0
	l-0.7-5.3l5.7-8.1l7.7-2l5.2-3.3l6.3,2.7l0.6,1v-0.7l3.5-5.6l5.9-9.2l4.4-10.1l-5.5-15.8l-1.5-7L721.5,480.8L721.5,480.8z"/>
<path id="ZA"   class="st0" d="M532.5,1021.3l5.3-0.3l7.5-5.3l10-2.2l12.3-5.5l4.7,0.7l7.2-1.7
	l12.3,2.7l5.9-2.6l6.9,2l1.8-3.8l6-0.8l12.6-5.3l9.3-6.3l8.9-8.3l14.4-14.2l7.5-9.9l3.9-7.1l5.5-7l2.5-2l8.6-7l3.5-6.2l2.3-11.5
	l3.7-10.1l-9-0.1l-2.8,6.1l-7,1.5l-6.6-7.5l0.2-4.8l3.6-5.2l1.4-4l3.5-1l5.8,2.6l-0.7-5l3-15.4l-2.5-9.9l-4.7-19.5l-6.3-1.3
	l-4.1,1.6l-5.7-2.3l-4.9-0.2L641,855.4l-11.2,10.3l-4.4,9.3l-3.9,5.2l-6.5,1.1l-2.4,6.6l-1.4,4.3l-7.8,3.2l-9.6-0.6l-5.5-3.9
	l-4.9-1.7l-6,3.2l-3.2,6.6l-5.8,4.2l-6.2,6.2l-8.5,1.4l-2.5-4.9l1.5-8.4l-6.5-13.2l-3.2-2l-2.2,51.1l-10.8,7.1l-6.4,1l-7.3-2.6
	l-5.2-1l-1.7-6l-4.5-3.7l-6,6.8l7.7,17.9v0.1l5.4,11.7l6.9,12.8l-0.2,10.6l-3.9,2.5l3.2,9.3l-0.5,8.1l1.3,3.8l0.7-1.9l4.6,6.2
	l3.8,0.2L532.5,1021.3L532.5,1021.3z M635.5,962.2l-4.3,1.3l-8-10.6l6.9-8.7l6.8-5.4l5.7-2.8l4.8,4.2l3.8,4.2l-4.1,6.7l-2.4,4.5
	l-6.7,2.2L635.5,962.2L635.5,962.2z"/>
<path id="ZM"   class="st0" d="M681.5,658.3l-4.1-1.1l0.7-3l-2.1-0.6l-16.4,2.3l-3.3,1.7l-3.6,8.8
	l2.6,6.1l-2.5,16.4l-1.9,13.9l3.2,2.4l8.4,5.4l3.4-2.5l0.6,14.9l-9.3-0.1l-4.8-7.6l-4.3-5.9l-9.2-1.9l-2.6-7.3l-7.5,4.4l-9.7-2
	l-3.9-6.2l-7.7-1.3l-5.7,0.3l-0.6-4.3l-4.2-0.3l1.2,4.3l-1.5,6.7l2,6.5l-2,5.2l1,4.7l-25.3-0.1l-1.6,44l7.8,11.3l7.6,8.6l9.9-3.1
	l7.8,0.8l4.7,3.1v1.2l2.2,1l13.4,1.5l3.8,1.6l4.1-0.3l7-9l10.9-11.4l4.4-1l1.7-4.8l7-5.5l9.3-1.9l-0.8-9.9l37.1-11.4l-6.2-3.6
	l4.1-12.8l4-4.8l-2-11.5l2.7-11.2l2.2-3.8l-2.8-11.7l-5.6-6.2l-6.8-4.1l-7.7-2.4l-4.8-2.3l-0.6-0.4l0,0l0.9,2.3l-2,0.8L681.5,658.3
	L681.5,658.3z"/>
<path id="ZW"   class="st0" d="M679.3,847.4l13.4-15.7l3.6-9.9l1.9-1.3l1.7-8.1l-1.7-4.1l1-10.4
	l2.8-9.6l0.8-17.5l-6.1-4.4l-5.7-1l-2.5-3.4l-5.5-3l-10,0.3l-0.6-5.1l-9.3,1.9l-7,5.5l-1.7,4.8l-4.4,1l-10.9,11.4l-7,9l-4.1,0.3
	l-3.8-1.6l-13.4-1.5l4.2,11.1l2.3,2.4l3.5,8l13,15.2l5.1,1.5l-0.2,4.9l3.1,8.8l9.2,2.1l7.3,6.2l4.9,0.2l5.7,2.3l4.1-1.6L679.3,847.4
	L679.3,847.4z"/>
<path id="SO"   class="st0" d="M842.8,395.1l-5.7-5.8l-2.5-5.7l-4.1-2.6l-4.2,7.4l-2.5,4.9l4.8,7.7
	l4.6,6.6l4.8,5l40.3,16.4l10.3-0.1l-33.5,41.5l-15.9,0.6l-10.7,9.8l-7.8,0.2l-3.3,4.4l-10.5,15.7l0.4,50.4l7.2,11.4l2.7-3.3l2.9-7.3
	l13.4-16.7l11.4-10.6l18.1-13.7l12.1-11.2l14.1-18.9l10.1-15.5l10-20.2l7-17.7l5.4-15.5l2.9-14.9l2.4-5l-0.4-7.3l0.8-8l-0.5-3.9
	l-4.6,0.1l-5.5,4.7l-6.4,1.4l-5.5,2.1l-3.9,0.2l0,0l-6.9,0.5l-4.2,2.6l-6,0.9l-10.5,4.3l-13.2,1.6l-11.3,3.5L842.8,395.1
	L842.8,395.1z"/>
</svg>